%TF.GenerationSoftware,KiCad,Pcbnew,9.0.7*%
%TF.CreationDate,2026-01-13T15:48:47+01:00*%
%TF.ProjectId,TABv1,54414276-312e-46b6-9963-61645f706362,rev?*%
%TF.SameCoordinates,Original*%
%TF.FileFunction,Paste,Top*%
%TF.FilePolarity,Positive*%
%FSLAX46Y46*%
G04 Gerber Fmt 4.6, Leading zero omitted, Abs format (unit mm)*
G04 Created by KiCad (PCBNEW 9.0.7) date 2026-01-13 15:48:47*
%MOMM*%
%LPD*%
G01*
G04 APERTURE LIST*
G04 Aperture macros list*
%AMRoundRect*
0 Rectangle with rounded corners*
0 $1 Rounding radius*
0 $2 $3 $4 $5 $6 $7 $8 $9 X,Y pos of 4 corners*
0 Add a 4 corners polygon primitive as box body*
4,1,4,$2,$3,$4,$5,$6,$7,$8,$9,$2,$3,0*
0 Add four circle primitives for the rounded corners*
1,1,$1+$1,$2,$3*
1,1,$1+$1,$4,$5*
1,1,$1+$1,$6,$7*
1,1,$1+$1,$8,$9*
0 Add four rect primitives between the rounded corners*
20,1,$1+$1,$2,$3,$4,$5,0*
20,1,$1+$1,$4,$5,$6,$7,0*
20,1,$1+$1,$6,$7,$8,$9,0*
20,1,$1+$1,$8,$9,$2,$3,0*%
%AMRotRect*
0 Rectangle, with rotation*
0 The origin of the aperture is its center*
0 $1 length*
0 $2 width*
0 $3 Rotation angle, in degrees counterclockwise*
0 Add horizontal line*
21,1,$1,$2,0,0,$3*%
G04 Aperture macros list end*
%ADD10R,0.250000X0.600000*%
%ADD11R,0.600000X0.250000*%
%ADD12R,0.250000X0.250000*%
%ADD13R,0.250000X1.350000*%
%ADD14R,0.250000X1.700000*%
%ADD15RoundRect,0.237500X-0.237500X0.250000X-0.237500X-0.250000X0.237500X-0.250000X0.237500X0.250000X0*%
%ADD16R,0.800000X0.500000*%
%ADD17R,0.800000X0.400000*%
%ADD18RoundRect,0.162500X-0.650000X-0.162500X0.650000X-0.162500X0.650000X0.162500X-0.650000X0.162500X0*%
%ADD19RotRect,0.254000X0.787400X135.000000*%
%ADD20RotRect,0.254000X0.787400X45.000000*%
%ADD21RoundRect,0.237500X0.237500X-0.250000X0.237500X0.250000X-0.237500X0.250000X-0.237500X-0.250000X0*%
%ADD22R,1.300000X1.050000*%
%ADD23RoundRect,0.237500X0.300000X0.237500X-0.300000X0.237500X-0.300000X-0.237500X0.300000X-0.237500X0*%
%ADD24RoundRect,0.218750X0.256250X-0.218750X0.256250X0.218750X-0.256250X0.218750X-0.256250X-0.218750X0*%
%ADD25R,0.350000X0.500000*%
%ADD26R,0.950000X1.000000*%
%ADD27R,0.300000X0.850000*%
%ADD28RoundRect,0.237500X-0.250000X-0.237500X0.250000X-0.237500X0.250000X0.237500X-0.250000X0.237500X0*%
%ADD29RoundRect,0.237500X-0.237500X0.300000X-0.237500X-0.300000X0.237500X-0.300000X0.237500X0.300000X0*%
%ADD30R,0.700000X1.100000*%
%ADD31R,0.900000X0.930000*%
%ADD32R,1.050000X0.780000*%
%ADD33R,0.700000X3.330000*%
%ADD34R,0.860000X2.800000*%
%ADD35R,1.140000X1.830000*%
%ADD36R,0.500000X0.800000*%
%ADD37R,0.400000X0.800000*%
%ADD38RoundRect,0.237500X-0.300000X-0.237500X0.300000X-0.237500X0.300000X0.237500X-0.300000X0.237500X0*%
%ADD39RoundRect,0.150000X-0.825000X-0.150000X0.825000X-0.150000X0.825000X0.150000X-0.825000X0.150000X0*%
%ADD40R,1.070000X0.600000*%
%ADD41RoundRect,0.200000X0.750000X0.200000X-0.750000X0.200000X-0.750000X-0.200000X0.750000X-0.200000X0*%
%ADD42RoundRect,0.180000X-0.770000X-0.420000X0.770000X-0.420000X0.770000X0.420000X-0.770000X0.420000X0*%
%ADD43RoundRect,0.227500X-0.227500X-0.227500X0.227500X-0.227500X0.227500X0.227500X-0.227500X0.227500X0*%
%ADD44RoundRect,0.050000X-0.350000X-0.050000X0.350000X-0.050000X0.350000X0.050000X-0.350000X0.050000X0*%
%ADD45RoundRect,0.050000X-0.050000X-0.350000X0.050000X-0.350000X0.050000X0.350000X-0.050000X0.350000X0*%
%ADD46R,1.016000X1.803400*%
%ADD47R,0.385000X0.690000*%
%ADD48R,1.035000X0.690000*%
%ADD49RoundRect,0.237500X0.237500X-0.300000X0.237500X0.300000X-0.237500X0.300000X-0.237500X-0.300000X0*%
%ADD50RoundRect,0.087500X0.125000X0.087500X-0.125000X0.087500X-0.125000X-0.087500X0.125000X-0.087500X0*%
%ADD51RoundRect,0.087500X0.087500X0.125000X-0.087500X0.125000X-0.087500X-0.125000X0.087500X-0.125000X0*%
%ADD52RoundRect,0.237500X0.250000X0.237500X-0.250000X0.237500X-0.250000X-0.237500X0.250000X-0.237500X0*%
%ADD53RoundRect,0.237500X0.044194X0.380070X-0.380070X-0.044194X-0.044194X-0.380070X0.380070X0.044194X0*%
%ADD54R,0.787400X0.254000*%
%ADD55R,0.254000X0.787400*%
%ADD56R,2.800000X1.350000*%
%ADD57R,2.800000X1.500000*%
%ADD58R,6.500000X6.000000*%
%ADD59R,0.375000X0.350000*%
%ADD60R,0.350000X0.375000*%
%ADD61RoundRect,0.250001X-0.462499X-0.624999X0.462499X-0.624999X0.462499X0.624999X-0.462499X0.624999X0*%
%ADD62RoundRect,0.200000X-0.200000X0.750000X-0.200000X-0.750000X0.200000X-0.750000X0.200000X0.750000X0*%
%ADD63RoundRect,0.150000X-0.425000X0.150000X-0.425000X-0.150000X0.425000X-0.150000X0.425000X0.150000X0*%
%ADD64RoundRect,0.075000X-0.500000X0.075000X-0.500000X-0.075000X0.500000X-0.075000X0.500000X0.075000X0*%
%ADD65O,2.100000X1.000000*%
%ADD66O,1.800000X1.000000*%
%ADD67RoundRect,0.237500X-0.044194X-0.380070X0.380070X0.044194X0.044194X0.380070X-0.380070X-0.044194X0*%
%ADD68RoundRect,0.180000X0.770000X0.420000X-0.770000X0.420000X-0.770000X-0.420000X0.770000X-0.420000X0*%
G04 APERTURE END LIST*
D10*
%TO.C,IC1*%
X145250000Y-45349000D03*
X144750000Y-45349000D03*
X144250000Y-45349000D03*
X143750000Y-45349000D03*
D11*
X143100000Y-45775000D03*
X143100000Y-46275000D03*
X143100000Y-46775000D03*
D12*
X143275000Y-47025000D03*
D11*
X143100000Y-47275000D03*
D13*
X144000000Y-47275000D03*
D14*
X144500000Y-47100000D03*
D13*
X145000000Y-47275000D03*
D11*
X145900000Y-47275000D03*
X145900000Y-46775000D03*
D12*
X145725000Y-47025000D03*
D11*
X145900000Y-46275000D03*
X145900000Y-45775000D03*
%TD*%
D15*
%TO.C,R8*%
X131500000Y-50587500D03*
X131500000Y-52412500D03*
%TD*%
D16*
%TO.C,RN8*%
X132200000Y-38300000D03*
D17*
X132200000Y-39100000D03*
X132200000Y-39900000D03*
D16*
X132200000Y-40700000D03*
X134000000Y-40700000D03*
D17*
X134000000Y-39900000D03*
X134000000Y-39100000D03*
D16*
X134000000Y-38300000D03*
%TD*%
D18*
%TO.C,U2*%
X100662500Y-40595000D03*
X100662500Y-41865000D03*
X100662500Y-43135000D03*
X100662500Y-44405000D03*
X107837500Y-44405000D03*
X107837500Y-43135000D03*
X107837500Y-41865000D03*
X107837500Y-40595000D03*
%TD*%
D19*
%TO.C,U4*%
X82272861Y-73566478D03*
X82626415Y-73920032D03*
X82979968Y-74273585D03*
X83333522Y-74627139D03*
D20*
X84263651Y-74270756D03*
X84617203Y-73917203D03*
X84970756Y-73563651D03*
D19*
X85327139Y-72633522D03*
X84973585Y-72279968D03*
X84620032Y-71926415D03*
X84266478Y-71572861D03*
D20*
X83336349Y-71929244D03*
X82982797Y-72282797D03*
X82629244Y-72636349D03*
%TD*%
D21*
%TO.C,R34*%
X150480000Y-65462500D03*
X150480000Y-63637500D03*
%TD*%
D22*
%TO.C,Y1*%
X111650000Y-73475000D03*
X109350000Y-73475000D03*
X109350000Y-75225000D03*
X111650000Y-75225000D03*
%TD*%
D23*
%TO.C,C27*%
X91862500Y-76043700D03*
X90137500Y-76043700D03*
%TD*%
D24*
%TO.C,D7*%
X115750000Y-77000000D03*
X115750000Y-75425000D03*
%TD*%
D25*
%TO.C,Q13*%
X151429844Y-59824500D03*
X150779844Y-59824500D03*
X150129844Y-59824500D03*
X150129844Y-61824500D03*
X150779844Y-61824500D03*
X151429844Y-61824500D03*
D26*
X151069844Y-60804500D03*
D27*
X150089844Y-60824500D03*
%TD*%
D28*
%TO.C,R35*%
X144687500Y-56281406D03*
X146512500Y-56281406D03*
%TD*%
D23*
%TO.C,C39*%
X102400000Y-77100000D03*
X100675000Y-77100000D03*
%TD*%
%TO.C,C38*%
X99062500Y-75000000D03*
X97337500Y-75000000D03*
%TD*%
D29*
%TO.C,C35*%
X89000000Y-47137500D03*
X89000000Y-48862500D03*
%TD*%
D28*
%TO.C,R32*%
X144887500Y-63700000D03*
X146712500Y-63700000D03*
%TD*%
D23*
%TO.C,C16*%
X111162500Y-77550000D03*
X109437500Y-77550000D03*
%TD*%
D30*
%TO.C,J7*%
X120382500Y-35635000D03*
X121482500Y-35635000D03*
X122582500Y-35635000D03*
X123682500Y-35635000D03*
X124782500Y-35635000D03*
X125882500Y-35635000D03*
X126982500Y-35635000D03*
X128082500Y-35635000D03*
D31*
X118592500Y-48100000D03*
D32*
X122857500Y-48175000D03*
D33*
X129242500Y-46900000D03*
D34*
X129162500Y-36135000D03*
D35*
X116502500Y-35650000D03*
D33*
X116282500Y-46900000D03*
%TD*%
D36*
%TO.C,RN10*%
X117050000Y-69100000D03*
D37*
X116250000Y-69100000D03*
X115450000Y-69100000D03*
D36*
X114650000Y-69100000D03*
X114650000Y-70900000D03*
D37*
X115450000Y-70900000D03*
X116250000Y-70900000D03*
D36*
X117050000Y-70900000D03*
%TD*%
D38*
%TO.C,C9*%
X89600000Y-66730000D03*
X91325000Y-66730000D03*
%TD*%
%TO.C,C2*%
X98700000Y-50200000D03*
X100425000Y-50200000D03*
%TD*%
D21*
%TO.C,R19*%
X135900000Y-60112500D03*
X135900000Y-58287500D03*
%TD*%
D16*
%TO.C,RN6*%
X113300000Y-40500000D03*
D17*
X113300000Y-39700000D03*
X113300000Y-38900000D03*
D16*
X113300000Y-38100000D03*
X111500000Y-38100000D03*
D17*
X111500000Y-38900000D03*
X111500000Y-39700000D03*
D16*
X111500000Y-40500000D03*
%TD*%
D23*
%TO.C,C3*%
X104225000Y-53750000D03*
X102500000Y-53750000D03*
%TD*%
D21*
%TO.C,R15*%
X140250000Y-66068750D03*
X140250000Y-64243750D03*
%TD*%
D38*
%TO.C,C1*%
X98675000Y-48687500D03*
X100400000Y-48687500D03*
%TD*%
D25*
%TO.C,Q11*%
X142300000Y-67656250D03*
X141650000Y-67656250D03*
X141000000Y-67656250D03*
X141000000Y-69656250D03*
X141650000Y-69656250D03*
X142300000Y-69656250D03*
D26*
X141940000Y-68636250D03*
D27*
X140960000Y-68656250D03*
%TD*%
D39*
%TO.C,U7*%
X134025000Y-51095000D03*
X134025000Y-52365000D03*
X134025000Y-53635000D03*
X134025000Y-54905000D03*
X138975000Y-54905000D03*
X138975000Y-53635000D03*
X138975000Y-52365000D03*
X138975000Y-51095000D03*
%TD*%
D40*
%TO.C,Q4*%
X129010000Y-54050000D03*
X129010000Y-55950000D03*
X131490000Y-55000000D03*
%TD*%
D41*
%TO.C,Q8*%
X148111844Y-69104346D03*
X148111844Y-67204346D03*
X145111844Y-68154346D03*
%TD*%
D24*
%TO.C,D6*%
X117500000Y-77000000D03*
X117500000Y-75425000D03*
%TD*%
D28*
%TO.C,R40*%
X111287500Y-49700000D03*
X113112500Y-49700000D03*
%TD*%
D21*
%TO.C,R23*%
X148300000Y-44762500D03*
X148300000Y-42937500D03*
%TD*%
%TO.C,R17*%
X148780000Y-65475000D03*
X148780000Y-63650000D03*
%TD*%
D28*
%TO.C,R30*%
X135837500Y-64156250D03*
X137662500Y-64156250D03*
%TD*%
D42*
%TO.C,SW1*%
X88625000Y-41500000D03*
X96375000Y-41500000D03*
%TD*%
D21*
%TO.C,R6*%
X95100000Y-47125000D03*
X95100000Y-45300000D03*
%TD*%
D43*
%TO.C,U1*%
X94370000Y-58470000D03*
X94370000Y-59600000D03*
X94370000Y-60730000D03*
X95500000Y-58470000D03*
X95500000Y-59600000D03*
X95500000Y-60730000D03*
X96630000Y-58470000D03*
X96630000Y-59600000D03*
X96630000Y-60730000D03*
D44*
X90550000Y-55800000D03*
X90550000Y-56200000D03*
X90550000Y-56600000D03*
X90550000Y-57000000D03*
X90550000Y-57400000D03*
X90550000Y-57800000D03*
X90550000Y-58200000D03*
X90550000Y-58600000D03*
X90550000Y-59000000D03*
X90550000Y-59400000D03*
X90550000Y-59800000D03*
X90550000Y-60200000D03*
X90550000Y-60600000D03*
X90550000Y-61000000D03*
X90550000Y-61400000D03*
X90550000Y-61800000D03*
X90550000Y-62200000D03*
X90550000Y-62600000D03*
X90550000Y-63000000D03*
X90550000Y-63400000D03*
D45*
X91700000Y-64550000D03*
X92100000Y-64550000D03*
X92500000Y-64550000D03*
X92900000Y-64550000D03*
X93300000Y-64550000D03*
X93700000Y-64550000D03*
X94100000Y-64550000D03*
X94500000Y-64550000D03*
X94900000Y-64550000D03*
X95300000Y-64550000D03*
X95700000Y-64550000D03*
X96100000Y-64550000D03*
X96500000Y-64550000D03*
X96900000Y-64550000D03*
X97300000Y-64550000D03*
X97700000Y-64550000D03*
X98100000Y-64550000D03*
X98500000Y-64550000D03*
X98900000Y-64550000D03*
X99300000Y-64550000D03*
D44*
X100450000Y-63400000D03*
X100450000Y-63000000D03*
X100450000Y-62600000D03*
X100450000Y-62200000D03*
X100450000Y-61800000D03*
X100450000Y-61400000D03*
X100450000Y-61000000D03*
X100450000Y-60600000D03*
X100450000Y-60200000D03*
X100450000Y-59800000D03*
X100450000Y-59400000D03*
X100450000Y-59000000D03*
X100450000Y-58600000D03*
X100450000Y-58200000D03*
X100450000Y-57800000D03*
X100450000Y-57400000D03*
X100450000Y-57000000D03*
X100450000Y-56600000D03*
X100450000Y-56200000D03*
X100450000Y-55800000D03*
D45*
X99300000Y-54650000D03*
X98900000Y-54650000D03*
X98500000Y-54650000D03*
X98100000Y-54650000D03*
X97700000Y-54650000D03*
X97300000Y-54650000D03*
X96900000Y-54650000D03*
X96500000Y-54650000D03*
X96100000Y-54650000D03*
X95700000Y-54650000D03*
X95300000Y-54650000D03*
X94900000Y-54650000D03*
X94500000Y-54650000D03*
X94100000Y-54650000D03*
X93700000Y-54650000D03*
X93300000Y-54650000D03*
X92900000Y-54650000D03*
X92500000Y-54650000D03*
X92100000Y-54650000D03*
X91700000Y-54650000D03*
%TD*%
D21*
%TO.C,R12*%
X148900000Y-72812500D03*
X148900000Y-70987500D03*
%TD*%
D38*
%TO.C,C10*%
X85150000Y-61875000D03*
X86875000Y-61875000D03*
%TD*%
D21*
%TO.C,R38*%
X150116750Y-58043906D03*
X150116750Y-56218906D03*
%TD*%
D23*
%TO.C,C32*%
X113387500Y-35650000D03*
X111662500Y-35650000D03*
%TD*%
D25*
%TO.C,Q10*%
X151421844Y-74444000D03*
X150771844Y-74444000D03*
X150121844Y-74444000D03*
X150121844Y-76444000D03*
X150771844Y-76444000D03*
X151421844Y-76444000D03*
D26*
X151061844Y-75424000D03*
D27*
X150081844Y-75444000D03*
%TD*%
D21*
%TO.C,R7*%
X112950000Y-70662500D03*
X112950000Y-68837500D03*
%TD*%
%TO.C,R14*%
X150600000Y-72812500D03*
X150600000Y-70987500D03*
%TD*%
D36*
%TO.C,RN9*%
X134000000Y-42200000D03*
D37*
X133200000Y-42200000D03*
X132400000Y-42200000D03*
D36*
X131600000Y-42200000D03*
X131600000Y-44000000D03*
D37*
X132400000Y-44000000D03*
X133200000Y-44000000D03*
D36*
X134000000Y-44000000D03*
%TD*%
D23*
%TO.C,C14*%
X99662500Y-68600000D03*
X97937500Y-68600000D03*
%TD*%
D46*
%TO.C,L1*%
X98674900Y-46687500D03*
X100275100Y-46687500D03*
%TD*%
D38*
%TO.C,C11*%
X89600000Y-68200000D03*
X91325000Y-68200000D03*
%TD*%
D15*
%TO.C,R22*%
X138750000Y-42937500D03*
X138750000Y-44762500D03*
%TD*%
D47*
%TO.C,D2*%
X149531500Y-48300000D03*
D48*
X150443500Y-48300000D03*
%TD*%
D49*
%TO.C,C18*%
X137400000Y-48162500D03*
X137400000Y-46437500D03*
%TD*%
D21*
%TO.C,R37*%
X148396750Y-58043906D03*
X148396750Y-56218906D03*
%TD*%
D50*
%TO.C,U11*%
X98962500Y-73150000D03*
X98962500Y-72650000D03*
D51*
X98700000Y-72137500D03*
X98200000Y-72137500D03*
X97700000Y-72137500D03*
D50*
X97437500Y-72650000D03*
X97437500Y-73150000D03*
D51*
X97700000Y-73662500D03*
X98200000Y-73662500D03*
X98700000Y-73662500D03*
%TD*%
D23*
%TO.C,C34*%
X85225000Y-46000000D03*
X83500000Y-46000000D03*
%TD*%
D52*
%TO.C,R3*%
X108075000Y-46500000D03*
X106250000Y-46500000D03*
%TD*%
D49*
%TO.C,C36*%
X87000000Y-48862500D03*
X87000000Y-47137500D03*
%TD*%
D28*
%TO.C,R27*%
X144987500Y-71100000D03*
X146812500Y-71100000D03*
%TD*%
%TO.C,R4*%
X109600000Y-69650000D03*
X111425000Y-69650000D03*
%TD*%
D53*
%TO.C,C30*%
X85329879Y-75966420D03*
X84110119Y-77186180D03*
%TD*%
D24*
%TO.C,D5*%
X119250000Y-77000000D03*
X119250000Y-75425000D03*
%TD*%
D38*
%TO.C,C17*%
X109637500Y-71150000D03*
X111362500Y-71150000D03*
%TD*%
D36*
%TO.C,RN7*%
X113900000Y-42250000D03*
D37*
X113100000Y-42250000D03*
X112300000Y-42250000D03*
D36*
X111500000Y-42250000D03*
X111500000Y-44050000D03*
D37*
X112300000Y-44050000D03*
X113100000Y-44050000D03*
D36*
X113900000Y-44050000D03*
%TD*%
D47*
%TO.C,D1*%
X149550000Y-47200000D03*
D48*
X150462000Y-47200000D03*
%TD*%
D28*
%TO.C,R1*%
X102425000Y-52000000D03*
X104250000Y-52000000D03*
%TD*%
D54*
%TO.C,U5*%
X90090300Y-72499999D03*
X90090300Y-73000000D03*
X90090300Y-73500000D03*
X90090300Y-74000001D03*
D55*
X91000001Y-74405700D03*
X91500000Y-74405700D03*
X91999999Y-74405700D03*
D54*
X92909700Y-74000001D03*
X92909700Y-73500000D03*
X92909700Y-73000000D03*
X92909700Y-72499999D03*
D55*
X91999999Y-72094300D03*
X91500000Y-72094300D03*
X91000001Y-72094300D03*
%TD*%
D52*
%TO.C,R31*%
X137662500Y-65906250D03*
X135837500Y-65906250D03*
%TD*%
D29*
%TO.C,C21*%
X140500000Y-46437500D03*
X140500000Y-48162500D03*
%TD*%
D21*
%TO.C,R18*%
X134200000Y-60112500D03*
X134200000Y-58287500D03*
%TD*%
%TO.C,R13*%
X141250000Y-60112500D03*
X141250000Y-58287500D03*
%TD*%
D56*
%TO.C,Q1*%
X126480000Y-55690000D03*
D57*
X126480000Y-51110000D03*
D58*
X119520000Y-53380000D03*
%TD*%
D25*
%TO.C,Q12*%
X151420000Y-67250000D03*
X150770000Y-67250000D03*
X150120000Y-67250000D03*
X150120000Y-69250000D03*
X150770000Y-69250000D03*
X151420000Y-69250000D03*
D26*
X151060000Y-68230000D03*
D27*
X150080000Y-68250000D03*
%TD*%
D41*
%TO.C,Q9*%
X147912000Y-61662000D03*
X147912000Y-59762000D03*
X144912000Y-60712000D03*
%TD*%
D28*
%TO.C,R2*%
X102425000Y-46500000D03*
X104250000Y-46500000D03*
%TD*%
D59*
%TO.C,U8*%
X83737500Y-47750000D03*
X83737500Y-48250000D03*
X83737500Y-48750000D03*
X83737500Y-49250000D03*
D60*
X84250000Y-49262500D03*
X84750000Y-49262500D03*
D59*
X85262500Y-49250000D03*
X85262500Y-48750000D03*
X85262500Y-48250000D03*
X85262500Y-47750000D03*
D60*
X84750000Y-47737500D03*
X84250000Y-47737500D03*
%TD*%
D49*
%TO.C,C4*%
X109800000Y-44862500D03*
X109800000Y-43137500D03*
%TD*%
D15*
%TO.C,R20*%
X148300000Y-46287500D03*
X148300000Y-48112500D03*
%TD*%
D61*
%TO.C,L2*%
X143062500Y-50300000D03*
X146037500Y-50300000D03*
%TD*%
D62*
%TO.C,Q5*%
X139550000Y-58700000D03*
X137650000Y-58700000D03*
X138600000Y-61700000D03*
%TD*%
D41*
%TO.C,Q6*%
X148001844Y-76394000D03*
X148001844Y-74494000D03*
X145001844Y-75444000D03*
%TD*%
D52*
%TO.C,R36*%
X146512500Y-58031406D03*
X144687500Y-58031406D03*
%TD*%
D28*
%TO.C,R42*%
X145137500Y-35250000D03*
X146962500Y-35250000D03*
%TD*%
D63*
%TO.C,J1*%
X79190000Y-45500000D03*
X79190000Y-46300000D03*
D64*
X79190000Y-47450000D03*
X79190000Y-48450000D03*
X79190000Y-48950000D03*
X79190000Y-49950000D03*
D63*
X79190000Y-51100000D03*
X79190000Y-51900000D03*
X79190000Y-51900000D03*
X79190000Y-51100000D03*
D64*
X79190000Y-50450000D03*
X79190000Y-49450000D03*
X79190000Y-47950000D03*
X79190000Y-46950000D03*
D63*
X79190000Y-46300000D03*
X79190000Y-45500000D03*
D65*
X78615000Y-44380000D03*
D66*
X74435000Y-44380000D03*
D65*
X78615000Y-53020000D03*
D66*
X74435000Y-53020000D03*
%TD*%
D49*
%TO.C,C22*%
X138950000Y-48162500D03*
X138950000Y-46437500D03*
%TD*%
D52*
%TO.C,R33*%
X146712500Y-65400000D03*
X144887500Y-65400000D03*
%TD*%
D67*
%TO.C,C29*%
X86640119Y-74626180D03*
X87859879Y-73406420D03*
%TD*%
D52*
%TO.C,R28*%
X146812500Y-72800000D03*
X144987500Y-72800000D03*
%TD*%
%TO.C,R41*%
X146962500Y-36800000D03*
X145137500Y-36800000D03*
%TD*%
D38*
%TO.C,C20*%
X143637500Y-42050000D03*
X145362500Y-42050000D03*
%TD*%
D41*
%TO.C,Q7*%
X139000000Y-69606250D03*
X139000000Y-67706250D03*
X136000000Y-68656250D03*
%TD*%
D29*
%TO.C,C28*%
X94700000Y-72381200D03*
X94700000Y-74106200D03*
%TD*%
D21*
%TO.C,R5*%
X93600000Y-47125000D03*
X93600000Y-45300000D03*
%TD*%
D68*
%TO.C,SW2*%
X112575000Y-67400000D03*
X104825000Y-67400000D03*
%TD*%
D29*
%TO.C,C5*%
X92100000Y-45350000D03*
X92100000Y-47075000D03*
%TD*%
D21*
%TO.C,R21*%
X140500000Y-44762500D03*
X140500000Y-42937500D03*
%TD*%
D23*
%TO.C,C31*%
X133875000Y-36150000D03*
X132150000Y-36150000D03*
%TD*%
D21*
%TO.C,R16*%
X141850000Y-66068750D03*
X141850000Y-64243750D03*
%TD*%
D29*
%TO.C,C33*%
X83950000Y-51187500D03*
X83950000Y-52912500D03*
%TD*%
D38*
%TO.C,C15*%
X83737500Y-56100000D03*
X85462500Y-56100000D03*
%TD*%
D49*
%TO.C,C19*%
X135850000Y-48162500D03*
X135850000Y-46437500D03*
%TD*%
D38*
%TO.C,C12*%
X83775000Y-54500000D03*
X85500000Y-54500000D03*
%TD*%
D23*
%TO.C,C40*%
X102400000Y-75500000D03*
X100675000Y-75500000D03*
%TD*%
D15*
%TO.C,R29*%
X142850000Y-58287500D03*
X142850000Y-60112500D03*
%TD*%
M02*
