%TF.GenerationSoftware,KiCad,Pcbnew,9.0.7*%
%TF.CreationDate,2026-01-13T15:48:47+01:00*%
%TF.ProjectId,TABv1,54414276-312e-46b6-9963-61645f706362,rev?*%
%TF.SameCoordinates,Original*%
%TF.FileFunction,Legend,Bot*%
%TF.FilePolarity,Positive*%
%FSLAX46Y46*%
G04 Gerber Fmt 4.6, Leading zero omitted, Abs format (unit mm)*
G04 Created by KiCad (PCBNEW 9.0.7) date 2026-01-13 15:48:47*
%MOMM*%
%LPD*%
G01*
G04 APERTURE LIST*
%ADD10C,0.100000*%
%ADD11C,0.150000*%
%ADD12C,0.149962*%
%ADD13C,0.254000*%
%ADD14C,0.120000*%
%ADD15C,0.152400*%
%ADD16C,0.000000*%
%ADD17C,0.127000*%
%ADD18C,0.200000*%
%ADD19C,0.508000*%
G04 APERTURE END LIST*
D10*
G36*
X82003998Y-71282365D02*
G01*
X82083707Y-71362074D01*
X82122419Y-71439496D01*
X82122419Y-71606365D01*
X82083707Y-71683787D01*
X82003998Y-71763496D01*
X81832930Y-71806264D01*
X81511907Y-71806264D01*
X81340837Y-71763496D01*
X81261131Y-71683790D01*
X81222419Y-71606366D01*
X81222419Y-71439496D01*
X81261131Y-71362072D01*
X81340837Y-71282365D01*
X81511907Y-71239598D01*
X81832930Y-71239598D01*
X82003998Y-71282365D01*
G37*
G36*
X82122419Y-69991009D02*
G01*
X82081099Y-70114968D01*
X81999942Y-70196124D01*
X81916872Y-70237660D01*
X81737692Y-70282455D01*
X81607145Y-70282455D01*
X81427966Y-70237660D01*
X81344892Y-70196123D01*
X81263739Y-70114970D01*
X81222419Y-69991008D01*
X81222419Y-69811027D01*
X82122419Y-69811027D01*
X82122419Y-69991009D01*
G37*
G36*
X81836704Y-69263083D02*
G01*
X81330532Y-69094360D01*
X81836704Y-68925636D01*
X81836704Y-69263083D01*
G37*
G36*
X81646228Y-68273032D02*
G01*
X81607516Y-68350455D01*
X81571372Y-68386600D01*
X81493949Y-68425312D01*
X81374699Y-68425312D01*
X81297275Y-68386600D01*
X81261130Y-68350456D01*
X81222419Y-68273033D01*
X81222419Y-67953884D01*
X81646228Y-67953884D01*
X81646228Y-68273032D01*
G37*
G36*
X82333530Y-72017375D02*
G01*
X81011308Y-72017375D01*
X81011308Y-71427693D01*
X81122419Y-71427693D01*
X81122419Y-71618169D01*
X81122907Y-71620625D01*
X81122545Y-71621714D01*
X81124661Y-71629441D01*
X81126225Y-71637303D01*
X81127036Y-71638114D01*
X81127698Y-71640530D01*
X81175316Y-71735767D01*
X81180231Y-71742100D01*
X81184683Y-71748762D01*
X81279921Y-71844000D01*
X81284423Y-71847008D01*
X81285510Y-71848819D01*
X81291048Y-71851435D01*
X81296142Y-71854839D01*
X81298253Y-71854839D01*
X81303149Y-71857152D01*
X81493625Y-71904771D01*
X81499742Y-71905068D01*
X81505752Y-71906264D01*
X81839085Y-71906264D01*
X81845094Y-71905068D01*
X81851212Y-71904771D01*
X82041688Y-71857152D01*
X82046584Y-71854839D01*
X82048695Y-71854839D01*
X82053790Y-71851434D01*
X82059327Y-71848819D01*
X82060412Y-71847010D01*
X82064916Y-71844001D01*
X82160155Y-71748762D01*
X82164605Y-71742102D01*
X82169521Y-71735768D01*
X82217140Y-71640530D01*
X82217801Y-71638114D01*
X82218613Y-71637303D01*
X82220176Y-71629441D01*
X82222293Y-71621714D01*
X82221930Y-71620625D01*
X82222419Y-71618169D01*
X82222419Y-71427693D01*
X82221930Y-71425236D01*
X82222293Y-71424148D01*
X82220176Y-71416420D01*
X82218613Y-71408559D01*
X82217801Y-71407747D01*
X82217140Y-71405332D01*
X82169521Y-71310094D01*
X82164605Y-71303759D01*
X82160155Y-71297100D01*
X82064916Y-71201861D01*
X82060412Y-71198851D01*
X82059327Y-71197043D01*
X82053790Y-71194427D01*
X82048695Y-71191023D01*
X82046584Y-71191023D01*
X82041688Y-71188710D01*
X81851212Y-71141091D01*
X81845094Y-71140793D01*
X81839085Y-71139598D01*
X81505752Y-71139598D01*
X81499742Y-71140793D01*
X81493625Y-71141091D01*
X81303149Y-71188710D01*
X81298253Y-71191023D01*
X81296142Y-71191023D01*
X81291048Y-71194426D01*
X81285510Y-71197043D01*
X81284423Y-71198853D01*
X81279921Y-71201862D01*
X81184683Y-71297100D01*
X81180231Y-71303761D01*
X81175316Y-71310095D01*
X81127698Y-71405332D01*
X81127036Y-71407747D01*
X81126225Y-71408559D01*
X81124661Y-71416420D01*
X81122545Y-71424148D01*
X81122907Y-71425236D01*
X81122419Y-71427693D01*
X81011308Y-71427693D01*
X81011308Y-70741893D01*
X81126225Y-70741893D01*
X81126225Y-70780161D01*
X81153285Y-70807221D01*
X81172419Y-70811027D01*
X82172419Y-70811027D01*
X82191553Y-70807221D01*
X82218613Y-70780161D01*
X82218613Y-70741893D01*
X82191553Y-70714833D01*
X82172419Y-70711027D01*
X81172419Y-70711027D01*
X81153285Y-70714833D01*
X81126225Y-70741893D01*
X81011308Y-70741893D01*
X81011308Y-69761027D01*
X81122419Y-69761027D01*
X81122419Y-69999122D01*
X81123982Y-70006984D01*
X81124985Y-70014933D01*
X81172604Y-70157790D01*
X81173844Y-70159965D01*
X81173844Y-70161113D01*
X81178297Y-70167777D01*
X81182265Y-70174738D01*
X81183291Y-70175251D01*
X81184683Y-70177334D01*
X81279921Y-70272572D01*
X81286580Y-70277022D01*
X81292915Y-70281938D01*
X81388153Y-70329557D01*
X81393434Y-70331003D01*
X81398387Y-70333343D01*
X81588863Y-70380962D01*
X81594980Y-70381259D01*
X81600990Y-70382455D01*
X81743847Y-70382455D01*
X81749856Y-70381259D01*
X81755974Y-70380962D01*
X81946450Y-70333343D01*
X81951402Y-70331003D01*
X81956684Y-70329557D01*
X82051921Y-70281939D01*
X82058249Y-70277027D01*
X82064916Y-70272573D01*
X82160155Y-70177334D01*
X82161545Y-70175252D01*
X82162573Y-70174739D01*
X82166543Y-70167773D01*
X82170994Y-70161113D01*
X82170994Y-70159965D01*
X82172234Y-70157790D01*
X82219853Y-70014934D01*
X82220855Y-70006983D01*
X82222419Y-69999122D01*
X82222419Y-69761027D01*
X82218613Y-69741893D01*
X82191553Y-69714833D01*
X82172419Y-69711027D01*
X81172419Y-69711027D01*
X81153285Y-69714833D01*
X81126225Y-69741893D01*
X81122419Y-69761027D01*
X81011308Y-69761027D01*
X81011308Y-69090816D01*
X81122545Y-69090816D01*
X81123726Y-69094360D01*
X81122545Y-69097904D01*
X81129632Y-69112080D01*
X81134646Y-69127120D01*
X81137988Y-69128790D01*
X81139659Y-69132133D01*
X81156608Y-69141794D01*
X82156607Y-69475127D01*
X82175963Y-69477567D01*
X82210191Y-69460453D01*
X82222293Y-69424149D01*
X82205178Y-69389920D01*
X82188230Y-69380259D01*
X81936704Y-69296417D01*
X81936704Y-68892302D01*
X82188230Y-68808461D01*
X82205178Y-68798800D01*
X82222293Y-68764571D01*
X82210191Y-68728267D01*
X82175963Y-68711153D01*
X82156607Y-68713593D01*
X81156608Y-69046926D01*
X81139659Y-69056587D01*
X81137988Y-69059929D01*
X81134646Y-69061600D01*
X81129632Y-69076639D01*
X81122545Y-69090816D01*
X81011308Y-69090816D01*
X81011308Y-67903884D01*
X81122419Y-67903884D01*
X81122419Y-68284836D01*
X81122907Y-68287292D01*
X81122545Y-68288381D01*
X81124661Y-68296108D01*
X81126225Y-68303970D01*
X81127036Y-68304781D01*
X81127698Y-68307197D01*
X81175316Y-68402434D01*
X81180231Y-68408767D01*
X81184683Y-68415429D01*
X81232301Y-68463048D01*
X81238967Y-68467502D01*
X81245296Y-68472414D01*
X81340534Y-68520033D01*
X81342949Y-68520694D01*
X81343761Y-68521506D01*
X81351622Y-68523069D01*
X81359350Y-68525186D01*
X81360438Y-68524823D01*
X81362895Y-68525312D01*
X81505752Y-68525312D01*
X81508208Y-68524823D01*
X81509297Y-68525186D01*
X81517024Y-68523069D01*
X81524886Y-68521506D01*
X81525697Y-68520694D01*
X81528113Y-68520033D01*
X81623350Y-68472415D01*
X81629683Y-68467499D01*
X81636345Y-68463048D01*
X81683964Y-68415430D01*
X81688418Y-68408763D01*
X81693330Y-68402435D01*
X81740949Y-68307197D01*
X81741610Y-68304781D01*
X81742422Y-68303970D01*
X81743985Y-68296108D01*
X81746102Y-68288381D01*
X81745739Y-68287292D01*
X81746228Y-68284836D01*
X81746228Y-68238011D01*
X82143746Y-68516274D01*
X82161604Y-68524128D01*
X82199290Y-68517478D01*
X82221235Y-68486127D01*
X82214585Y-68448441D01*
X82201092Y-68434350D01*
X81746228Y-68115945D01*
X81746228Y-67953884D01*
X82172419Y-67953884D01*
X82191553Y-67950078D01*
X82218613Y-67923018D01*
X82218613Y-67884750D01*
X82191553Y-67857690D01*
X82172419Y-67853884D01*
X81172419Y-67853884D01*
X81153285Y-67857690D01*
X81126225Y-67884750D01*
X81122419Y-67903884D01*
X81011308Y-67903884D01*
X81011308Y-67742773D01*
X82333530Y-67742773D01*
X82333530Y-72017375D01*
G37*
X74972306Y-71034990D02*
X75067544Y-70996895D01*
X75067544Y-70996895D02*
X75210401Y-70996895D01*
X75210401Y-70996895D02*
X75353258Y-71034990D01*
X75353258Y-71034990D02*
X75448496Y-71111180D01*
X75448496Y-71111180D02*
X75496115Y-71187371D01*
X75496115Y-71187371D02*
X75543734Y-71339752D01*
X75543734Y-71339752D02*
X75543734Y-71454038D01*
X75543734Y-71454038D02*
X75496115Y-71606419D01*
X75496115Y-71606419D02*
X75448496Y-71682609D01*
X75448496Y-71682609D02*
X75353258Y-71758800D01*
X75353258Y-71758800D02*
X75210401Y-71796895D01*
X75210401Y-71796895D02*
X75115163Y-71796895D01*
X75115163Y-71796895D02*
X74972306Y-71758800D01*
X74972306Y-71758800D02*
X74924687Y-71720704D01*
X74924687Y-71720704D02*
X74924687Y-71454038D01*
X74924687Y-71454038D02*
X75115163Y-71454038D01*
X74496115Y-71796895D02*
X74496115Y-70996895D01*
X74496115Y-70996895D02*
X73924687Y-71796895D01*
X73924687Y-71796895D02*
X73924687Y-70996895D01*
X73448496Y-71796895D02*
X73448496Y-70996895D01*
X73448496Y-70996895D02*
X73210401Y-70996895D01*
X73210401Y-70996895D02*
X73067544Y-71034990D01*
X73067544Y-71034990D02*
X72972306Y-71111180D01*
X72972306Y-71111180D02*
X72924687Y-71187371D01*
X72924687Y-71187371D02*
X72877068Y-71339752D01*
X72877068Y-71339752D02*
X72877068Y-71454038D01*
X72877068Y-71454038D02*
X72924687Y-71606419D01*
X72924687Y-71606419D02*
X72972306Y-71682609D01*
X72972306Y-71682609D02*
X73067544Y-71758800D01*
X73067544Y-71758800D02*
X73210401Y-71796895D01*
X73210401Y-71796895D02*
X73448496Y-71796895D01*
X77724687Y-71720704D02*
X77772306Y-71758800D01*
X77772306Y-71758800D02*
X77915163Y-71796895D01*
X77915163Y-71796895D02*
X78010401Y-71796895D01*
X78010401Y-71796895D02*
X78153258Y-71758800D01*
X78153258Y-71758800D02*
X78248496Y-71682609D01*
X78248496Y-71682609D02*
X78296115Y-71606419D01*
X78296115Y-71606419D02*
X78343734Y-71454038D01*
X78343734Y-71454038D02*
X78343734Y-71339752D01*
X78343734Y-71339752D02*
X78296115Y-71187371D01*
X78296115Y-71187371D02*
X78248496Y-71111180D01*
X78248496Y-71111180D02*
X78153258Y-71034990D01*
X78153258Y-71034990D02*
X78010401Y-70996895D01*
X78010401Y-70996895D02*
X77915163Y-70996895D01*
X77915163Y-70996895D02*
X77772306Y-71034990D01*
X77772306Y-71034990D02*
X77724687Y-71073085D01*
X76819925Y-71796895D02*
X77296115Y-71796895D01*
X77296115Y-71796895D02*
X77296115Y-70996895D01*
X76486591Y-71796895D02*
X76486591Y-70996895D01*
X75915163Y-71796895D02*
X76343734Y-71339752D01*
X75915163Y-70996895D02*
X76486591Y-71454038D01*
X80296115Y-71796895D02*
X80296115Y-70996895D01*
X79629449Y-70996895D02*
X79438973Y-70996895D01*
X79438973Y-70996895D02*
X79343735Y-71034990D01*
X79343735Y-71034990D02*
X79248497Y-71111180D01*
X79248497Y-71111180D02*
X79200878Y-71263561D01*
X79200878Y-71263561D02*
X79200878Y-71530228D01*
X79200878Y-71530228D02*
X79248497Y-71682609D01*
X79248497Y-71682609D02*
X79343735Y-71758800D01*
X79343735Y-71758800D02*
X79438973Y-71796895D01*
X79438973Y-71796895D02*
X79629449Y-71796895D01*
X79629449Y-71796895D02*
X79724687Y-71758800D01*
X79724687Y-71758800D02*
X79819925Y-71682609D01*
X79819925Y-71682609D02*
X79867544Y-71530228D01*
X79867544Y-71530228D02*
X79867544Y-71263561D01*
X79867544Y-71263561D02*
X79819925Y-71111180D01*
X79819925Y-71111180D02*
X79724687Y-71034990D01*
X79724687Y-71034990D02*
X79629449Y-70996895D01*
G36*
X82703998Y-58182365D02*
G01*
X82783707Y-58262074D01*
X82822419Y-58339496D01*
X82822419Y-58506365D01*
X82783707Y-58583787D01*
X82703998Y-58663496D01*
X82532930Y-58706264D01*
X82211907Y-58706264D01*
X82040837Y-58663496D01*
X81961131Y-58583790D01*
X81922419Y-58506366D01*
X81922419Y-58339496D01*
X81961131Y-58262072D01*
X82040837Y-58182365D01*
X82211907Y-58139598D01*
X82532930Y-58139598D01*
X82703998Y-58182365D01*
G37*
G36*
X82822419Y-56891009D02*
G01*
X82781099Y-57014968D01*
X82699942Y-57096124D01*
X82616872Y-57137660D01*
X82437692Y-57182455D01*
X82307145Y-57182455D01*
X82127966Y-57137660D01*
X82044892Y-57096123D01*
X81963739Y-57014970D01*
X81922419Y-56891008D01*
X81922419Y-56711027D01*
X82822419Y-56711027D01*
X82822419Y-56891009D01*
G37*
G36*
X82536704Y-56163083D02*
G01*
X82030532Y-55994360D01*
X82536704Y-55825636D01*
X82536704Y-56163083D01*
G37*
G36*
X82346228Y-55173032D02*
G01*
X82307516Y-55250455D01*
X82271372Y-55286600D01*
X82193949Y-55325312D01*
X82074699Y-55325312D01*
X81997275Y-55286600D01*
X81961130Y-55250456D01*
X81922419Y-55173033D01*
X81922419Y-54853884D01*
X82346228Y-54853884D01*
X82346228Y-55173032D01*
G37*
G36*
X83033530Y-58917375D02*
G01*
X81711308Y-58917375D01*
X81711308Y-58327693D01*
X81822419Y-58327693D01*
X81822419Y-58518169D01*
X81822907Y-58520625D01*
X81822545Y-58521714D01*
X81824661Y-58529441D01*
X81826225Y-58537303D01*
X81827036Y-58538114D01*
X81827698Y-58540530D01*
X81875316Y-58635767D01*
X81880231Y-58642100D01*
X81884683Y-58648762D01*
X81979921Y-58744000D01*
X81984423Y-58747008D01*
X81985510Y-58748819D01*
X81991048Y-58751435D01*
X81996142Y-58754839D01*
X81998253Y-58754839D01*
X82003149Y-58757152D01*
X82193625Y-58804771D01*
X82199742Y-58805068D01*
X82205752Y-58806264D01*
X82539085Y-58806264D01*
X82545094Y-58805068D01*
X82551212Y-58804771D01*
X82741688Y-58757152D01*
X82746584Y-58754839D01*
X82748695Y-58754839D01*
X82753790Y-58751434D01*
X82759327Y-58748819D01*
X82760412Y-58747010D01*
X82764916Y-58744001D01*
X82860155Y-58648762D01*
X82864605Y-58642102D01*
X82869521Y-58635768D01*
X82917140Y-58540530D01*
X82917801Y-58538114D01*
X82918613Y-58537303D01*
X82920176Y-58529441D01*
X82922293Y-58521714D01*
X82921930Y-58520625D01*
X82922419Y-58518169D01*
X82922419Y-58327693D01*
X82921930Y-58325236D01*
X82922293Y-58324148D01*
X82920176Y-58316420D01*
X82918613Y-58308559D01*
X82917801Y-58307747D01*
X82917140Y-58305332D01*
X82869521Y-58210094D01*
X82864605Y-58203759D01*
X82860155Y-58197100D01*
X82764916Y-58101861D01*
X82760412Y-58098851D01*
X82759327Y-58097043D01*
X82753790Y-58094427D01*
X82748695Y-58091023D01*
X82746584Y-58091023D01*
X82741688Y-58088710D01*
X82551212Y-58041091D01*
X82545094Y-58040793D01*
X82539085Y-58039598D01*
X82205752Y-58039598D01*
X82199742Y-58040793D01*
X82193625Y-58041091D01*
X82003149Y-58088710D01*
X81998253Y-58091023D01*
X81996142Y-58091023D01*
X81991048Y-58094426D01*
X81985510Y-58097043D01*
X81984423Y-58098853D01*
X81979921Y-58101862D01*
X81884683Y-58197100D01*
X81880231Y-58203761D01*
X81875316Y-58210095D01*
X81827698Y-58305332D01*
X81827036Y-58307747D01*
X81826225Y-58308559D01*
X81824661Y-58316420D01*
X81822545Y-58324148D01*
X81822907Y-58325236D01*
X81822419Y-58327693D01*
X81711308Y-58327693D01*
X81711308Y-57641893D01*
X81826225Y-57641893D01*
X81826225Y-57680161D01*
X81853285Y-57707221D01*
X81872419Y-57711027D01*
X82872419Y-57711027D01*
X82891553Y-57707221D01*
X82918613Y-57680161D01*
X82918613Y-57641893D01*
X82891553Y-57614833D01*
X82872419Y-57611027D01*
X81872419Y-57611027D01*
X81853285Y-57614833D01*
X81826225Y-57641893D01*
X81711308Y-57641893D01*
X81711308Y-56661027D01*
X81822419Y-56661027D01*
X81822419Y-56899122D01*
X81823982Y-56906984D01*
X81824985Y-56914933D01*
X81872604Y-57057790D01*
X81873844Y-57059965D01*
X81873844Y-57061113D01*
X81878297Y-57067777D01*
X81882265Y-57074738D01*
X81883291Y-57075251D01*
X81884683Y-57077334D01*
X81979921Y-57172572D01*
X81986580Y-57177022D01*
X81992915Y-57181938D01*
X82088153Y-57229557D01*
X82093434Y-57231003D01*
X82098387Y-57233343D01*
X82288863Y-57280962D01*
X82294980Y-57281259D01*
X82300990Y-57282455D01*
X82443847Y-57282455D01*
X82449856Y-57281259D01*
X82455974Y-57280962D01*
X82646450Y-57233343D01*
X82651402Y-57231003D01*
X82656684Y-57229557D01*
X82751921Y-57181939D01*
X82758249Y-57177027D01*
X82764916Y-57172573D01*
X82860155Y-57077334D01*
X82861545Y-57075252D01*
X82862573Y-57074739D01*
X82866543Y-57067773D01*
X82870994Y-57061113D01*
X82870994Y-57059965D01*
X82872234Y-57057790D01*
X82919853Y-56914934D01*
X82920855Y-56906983D01*
X82922419Y-56899122D01*
X82922419Y-56661027D01*
X82918613Y-56641893D01*
X82891553Y-56614833D01*
X82872419Y-56611027D01*
X81872419Y-56611027D01*
X81853285Y-56614833D01*
X81826225Y-56641893D01*
X81822419Y-56661027D01*
X81711308Y-56661027D01*
X81711308Y-55990816D01*
X81822545Y-55990816D01*
X81823726Y-55994360D01*
X81822545Y-55997904D01*
X81829632Y-56012080D01*
X81834646Y-56027120D01*
X81837988Y-56028790D01*
X81839659Y-56032133D01*
X81856608Y-56041794D01*
X82856607Y-56375127D01*
X82875963Y-56377567D01*
X82910191Y-56360453D01*
X82922293Y-56324149D01*
X82905178Y-56289920D01*
X82888230Y-56280259D01*
X82636704Y-56196417D01*
X82636704Y-55792302D01*
X82888230Y-55708461D01*
X82905178Y-55698800D01*
X82922293Y-55664571D01*
X82910191Y-55628267D01*
X82875963Y-55611153D01*
X82856607Y-55613593D01*
X81856608Y-55946926D01*
X81839659Y-55956587D01*
X81837988Y-55959929D01*
X81834646Y-55961600D01*
X81829632Y-55976639D01*
X81822545Y-55990816D01*
X81711308Y-55990816D01*
X81711308Y-54803884D01*
X81822419Y-54803884D01*
X81822419Y-55184836D01*
X81822907Y-55187292D01*
X81822545Y-55188381D01*
X81824661Y-55196108D01*
X81826225Y-55203970D01*
X81827036Y-55204781D01*
X81827698Y-55207197D01*
X81875316Y-55302434D01*
X81880231Y-55308767D01*
X81884683Y-55315429D01*
X81932301Y-55363048D01*
X81938967Y-55367502D01*
X81945296Y-55372414D01*
X82040534Y-55420033D01*
X82042949Y-55420694D01*
X82043761Y-55421506D01*
X82051622Y-55423069D01*
X82059350Y-55425186D01*
X82060438Y-55424823D01*
X82062895Y-55425312D01*
X82205752Y-55425312D01*
X82208208Y-55424823D01*
X82209297Y-55425186D01*
X82217024Y-55423069D01*
X82224886Y-55421506D01*
X82225697Y-55420694D01*
X82228113Y-55420033D01*
X82323350Y-55372415D01*
X82329683Y-55367499D01*
X82336345Y-55363048D01*
X82383964Y-55315430D01*
X82388418Y-55308763D01*
X82393330Y-55302435D01*
X82440949Y-55207197D01*
X82441610Y-55204781D01*
X82442422Y-55203970D01*
X82443985Y-55196108D01*
X82446102Y-55188381D01*
X82445739Y-55187292D01*
X82446228Y-55184836D01*
X82446228Y-55138011D01*
X82843746Y-55416274D01*
X82861604Y-55424128D01*
X82899290Y-55417478D01*
X82921235Y-55386127D01*
X82914585Y-55348441D01*
X82901092Y-55334350D01*
X82446228Y-55015945D01*
X82446228Y-54853884D01*
X82872419Y-54853884D01*
X82891553Y-54850078D01*
X82918613Y-54823018D01*
X82918613Y-54784750D01*
X82891553Y-54757690D01*
X82872419Y-54753884D01*
X81872419Y-54753884D01*
X81853285Y-54757690D01*
X81826225Y-54784750D01*
X81822419Y-54803884D01*
X81711308Y-54803884D01*
X81711308Y-54642773D01*
X83033530Y-54642773D01*
X83033530Y-58917375D01*
G37*
G36*
X106146115Y-68946228D02*
G01*
X105826967Y-68946228D01*
X105749543Y-68907516D01*
X105713398Y-68871372D01*
X105674687Y-68793949D01*
X105674687Y-68674698D01*
X105713398Y-68597274D01*
X105749543Y-68561130D01*
X105826967Y-68522419D01*
X106146115Y-68522419D01*
X106146115Y-68946228D01*
G37*
G36*
X107404845Y-69633530D02*
G01*
X104463576Y-69633530D01*
X104463576Y-68472419D01*
X104574687Y-68472419D01*
X104574687Y-69281942D01*
X104575175Y-69284398D01*
X104574813Y-69285487D01*
X104576929Y-69293214D01*
X104578493Y-69301076D01*
X104579304Y-69301887D01*
X104579966Y-69304303D01*
X104627584Y-69399540D01*
X104632495Y-69405868D01*
X104636950Y-69412535D01*
X104684569Y-69460155D01*
X104691235Y-69464609D01*
X104697564Y-69469521D01*
X104792802Y-69517140D01*
X104795217Y-69517801D01*
X104796029Y-69518613D01*
X104803890Y-69520176D01*
X104811618Y-69522293D01*
X104812706Y-69521930D01*
X104815163Y-69522419D01*
X105005639Y-69522419D01*
X105008095Y-69521930D01*
X105009184Y-69522293D01*
X105016911Y-69520176D01*
X105024773Y-69518613D01*
X105025584Y-69517801D01*
X105028000Y-69517140D01*
X105123237Y-69469522D01*
X105129564Y-69464611D01*
X105136233Y-69460155D01*
X105183852Y-69412535D01*
X105188305Y-69405869D01*
X105193217Y-69399541D01*
X105240836Y-69304303D01*
X105241497Y-69301887D01*
X105242309Y-69301076D01*
X105243872Y-69293214D01*
X105245989Y-69285487D01*
X105245626Y-69284398D01*
X105246115Y-69281942D01*
X105246115Y-68662895D01*
X105574687Y-68662895D01*
X105574687Y-68805752D01*
X105575175Y-68808208D01*
X105574813Y-68809297D01*
X105576929Y-68817024D01*
X105578493Y-68824886D01*
X105579304Y-68825697D01*
X105579966Y-68828113D01*
X105627584Y-68923350D01*
X105632499Y-68929683D01*
X105636951Y-68936345D01*
X105684569Y-68983964D01*
X105691235Y-68988418D01*
X105697564Y-68993330D01*
X105792802Y-69040949D01*
X105795217Y-69041610D01*
X105796029Y-69042422D01*
X105803890Y-69043985D01*
X105811618Y-69046102D01*
X105812706Y-69045739D01*
X105815163Y-69046228D01*
X106146115Y-69046228D01*
X106146115Y-69472419D01*
X106149921Y-69491553D01*
X106176981Y-69518613D01*
X106215249Y-69518613D01*
X106242309Y-69491553D01*
X106246115Y-69472419D01*
X106246115Y-68548523D01*
X106578493Y-68548523D01*
X106578493Y-68586791D01*
X106605553Y-68613851D01*
X106643821Y-68613851D01*
X106660042Y-68603012D01*
X106699315Y-68563739D01*
X106823276Y-68522419D01*
X106902288Y-68522419D01*
X107026249Y-68563739D01*
X107107402Y-68644892D01*
X107148939Y-68727966D01*
X107193734Y-68907145D01*
X107193734Y-69037692D01*
X107148939Y-69216870D01*
X107107402Y-69299944D01*
X107026248Y-69381098D01*
X106902288Y-69422419D01*
X106823276Y-69422419D01*
X106699316Y-69381099D01*
X106660043Y-69341825D01*
X106643822Y-69330986D01*
X106605553Y-69330986D01*
X106578493Y-69358045D01*
X106578493Y-69396314D01*
X106589331Y-69412535D01*
X106636950Y-69460155D01*
X106639032Y-69461546D01*
X106639546Y-69462573D01*
X106646504Y-69466539D01*
X106653171Y-69470994D01*
X106654320Y-69470994D01*
X106656495Y-69472234D01*
X106799351Y-69519853D01*
X106807301Y-69520855D01*
X106815163Y-69522419D01*
X106910401Y-69522419D01*
X106918263Y-69520855D01*
X106926212Y-69519853D01*
X107069069Y-69472234D01*
X107071244Y-69470994D01*
X107072393Y-69470994D01*
X107079063Y-69466536D01*
X107086017Y-69462573D01*
X107086529Y-69461547D01*
X107088614Y-69460155D01*
X107183852Y-69364916D01*
X107188305Y-69358250D01*
X107193217Y-69351922D01*
X107240836Y-69256684D01*
X107242282Y-69251402D01*
X107244622Y-69246450D01*
X107292241Y-69055974D01*
X107292538Y-69049856D01*
X107293734Y-69043847D01*
X107293734Y-68900990D01*
X107292538Y-68894980D01*
X107292241Y-68888863D01*
X107244622Y-68698387D01*
X107242282Y-68693434D01*
X107240836Y-68688153D01*
X107193217Y-68592915D01*
X107188301Y-68586580D01*
X107183851Y-68579921D01*
X107088613Y-68484683D01*
X107086530Y-68483291D01*
X107086017Y-68482265D01*
X107079056Y-68478297D01*
X107072392Y-68473844D01*
X107071244Y-68473844D01*
X107069069Y-68472604D01*
X106926212Y-68424985D01*
X106918263Y-68423982D01*
X106910401Y-68422419D01*
X106815163Y-68422419D01*
X106807301Y-68423982D01*
X106799351Y-68424985D01*
X106656495Y-68472604D01*
X106654320Y-68473844D01*
X106653171Y-68473844D01*
X106646504Y-68478298D01*
X106639546Y-68482265D01*
X106639032Y-68483291D01*
X106636950Y-68484683D01*
X106589332Y-68532302D01*
X106578493Y-68548523D01*
X106246115Y-68548523D01*
X106246115Y-68472419D01*
X106242309Y-68453285D01*
X106215249Y-68426225D01*
X106196115Y-68422419D01*
X105815163Y-68422419D01*
X105812706Y-68422907D01*
X105811618Y-68422545D01*
X105803890Y-68424661D01*
X105796029Y-68426225D01*
X105795217Y-68427036D01*
X105792802Y-68427698D01*
X105697564Y-68475317D01*
X105691235Y-68480228D01*
X105684569Y-68484683D01*
X105636951Y-68532302D01*
X105632499Y-68538963D01*
X105627584Y-68545297D01*
X105579966Y-68640534D01*
X105579304Y-68642949D01*
X105578493Y-68643761D01*
X105576929Y-68651622D01*
X105574813Y-68659350D01*
X105575175Y-68660438D01*
X105574687Y-68662895D01*
X105246115Y-68662895D01*
X105246115Y-68472419D01*
X105242309Y-68453285D01*
X105215249Y-68426225D01*
X105176981Y-68426225D01*
X105149921Y-68453285D01*
X105146115Y-68472419D01*
X105146115Y-69270138D01*
X105107403Y-69347561D01*
X105071257Y-69383708D01*
X104993836Y-69422419D01*
X104826967Y-69422419D01*
X104749544Y-69383708D01*
X104713398Y-69347561D01*
X104674687Y-69270139D01*
X104674687Y-68472419D01*
X104670881Y-68453285D01*
X104643821Y-68426225D01*
X104605553Y-68426225D01*
X104578493Y-68453285D01*
X104574687Y-68472419D01*
X104463576Y-68472419D01*
X104463576Y-68311308D01*
X107404845Y-68311308D01*
X107404845Y-69633530D01*
G37*
X103672306Y-75920038D02*
X103767544Y-75872419D01*
X103767544Y-75872419D02*
X103910401Y-75872419D01*
X103910401Y-75872419D02*
X104053258Y-75920038D01*
X104053258Y-75920038D02*
X104148496Y-76015276D01*
X104148496Y-76015276D02*
X104196115Y-76110514D01*
X104196115Y-76110514D02*
X104243734Y-76300990D01*
X104243734Y-76300990D02*
X104243734Y-76443847D01*
X104243734Y-76443847D02*
X104196115Y-76634323D01*
X104196115Y-76634323D02*
X104148496Y-76729561D01*
X104148496Y-76729561D02*
X104053258Y-76824800D01*
X104053258Y-76824800D02*
X103910401Y-76872419D01*
X103910401Y-76872419D02*
X103815163Y-76872419D01*
X103815163Y-76872419D02*
X103672306Y-76824800D01*
X103672306Y-76824800D02*
X103624687Y-76777180D01*
X103624687Y-76777180D02*
X103624687Y-76443847D01*
X103624687Y-76443847D02*
X103815163Y-76443847D01*
X103196115Y-76872419D02*
X103196115Y-75872419D01*
X103196115Y-75872419D02*
X102624687Y-76872419D01*
X102624687Y-76872419D02*
X102624687Y-75872419D01*
X102148496Y-76872419D02*
X102148496Y-75872419D01*
X102148496Y-75872419D02*
X101910401Y-75872419D01*
X101910401Y-75872419D02*
X101767544Y-75920038D01*
X101767544Y-75920038D02*
X101672306Y-76015276D01*
X101672306Y-76015276D02*
X101624687Y-76110514D01*
X101624687Y-76110514D02*
X101577068Y-76300990D01*
X101577068Y-76300990D02*
X101577068Y-76443847D01*
X101577068Y-76443847D02*
X101624687Y-76634323D01*
X101624687Y-76634323D02*
X101672306Y-76729561D01*
X101672306Y-76729561D02*
X101767544Y-76824800D01*
X101767544Y-76824800D02*
X101910401Y-76872419D01*
X101910401Y-76872419D02*
X102148496Y-76872419D01*
X103624687Y-74277180D02*
X103672306Y-74324800D01*
X103672306Y-74324800D02*
X103815163Y-74372419D01*
X103815163Y-74372419D02*
X103910401Y-74372419D01*
X103910401Y-74372419D02*
X104053258Y-74324800D01*
X104053258Y-74324800D02*
X104148496Y-74229561D01*
X104148496Y-74229561D02*
X104196115Y-74134323D01*
X104196115Y-74134323D02*
X104243734Y-73943847D01*
X104243734Y-73943847D02*
X104243734Y-73800990D01*
X104243734Y-73800990D02*
X104196115Y-73610514D01*
X104196115Y-73610514D02*
X104148496Y-73515276D01*
X104148496Y-73515276D02*
X104053258Y-73420038D01*
X104053258Y-73420038D02*
X103910401Y-73372419D01*
X103910401Y-73372419D02*
X103815163Y-73372419D01*
X103815163Y-73372419D02*
X103672306Y-73420038D01*
X103672306Y-73420038D02*
X103624687Y-73467657D01*
X102719925Y-74372419D02*
X103196115Y-74372419D01*
X103196115Y-74372419D02*
X103196115Y-73372419D01*
X102386591Y-74372419D02*
X102386591Y-73372419D01*
X101815163Y-74372419D02*
X102243734Y-73800990D01*
X101815163Y-73372419D02*
X102386591Y-73943847D01*
D11*
X80380180Y-57841792D02*
X80856371Y-58175125D01*
X80380180Y-58413220D02*
X81380180Y-58413220D01*
X81380180Y-58413220D02*
X81380180Y-58032268D01*
X81380180Y-58032268D02*
X81332561Y-57937030D01*
X81332561Y-57937030D02*
X81284942Y-57889411D01*
X81284942Y-57889411D02*
X81189704Y-57841792D01*
X81189704Y-57841792D02*
X81046847Y-57841792D01*
X81046847Y-57841792D02*
X80951609Y-57889411D01*
X80951609Y-57889411D02*
X80903990Y-57937030D01*
X80903990Y-57937030D02*
X80856371Y-58032268D01*
X80856371Y-58032268D02*
X80856371Y-58413220D01*
X80475419Y-57413220D02*
X80427800Y-57365601D01*
X80427800Y-57365601D02*
X80380180Y-57413220D01*
X80380180Y-57413220D02*
X80427800Y-57460839D01*
X80427800Y-57460839D02*
X80475419Y-57413220D01*
X80475419Y-57413220D02*
X80380180Y-57413220D01*
X81332561Y-56413221D02*
X81380180Y-56508459D01*
X81380180Y-56508459D02*
X81380180Y-56651316D01*
X81380180Y-56651316D02*
X81332561Y-56794173D01*
X81332561Y-56794173D02*
X81237323Y-56889411D01*
X81237323Y-56889411D02*
X81142085Y-56937030D01*
X81142085Y-56937030D02*
X80951609Y-56984649D01*
X80951609Y-56984649D02*
X80808752Y-56984649D01*
X80808752Y-56984649D02*
X80618276Y-56937030D01*
X80618276Y-56937030D02*
X80523038Y-56889411D01*
X80523038Y-56889411D02*
X80427800Y-56794173D01*
X80427800Y-56794173D02*
X80380180Y-56651316D01*
X80380180Y-56651316D02*
X80380180Y-56556078D01*
X80380180Y-56556078D02*
X80427800Y-56413221D01*
X80427800Y-56413221D02*
X80475419Y-56365602D01*
X80475419Y-56365602D02*
X80808752Y-56365602D01*
X80808752Y-56365602D02*
X80808752Y-56556078D01*
X80475419Y-55937030D02*
X80427800Y-55889411D01*
X80427800Y-55889411D02*
X80380180Y-55937030D01*
X80380180Y-55937030D02*
X80427800Y-55984649D01*
X80427800Y-55984649D02*
X80475419Y-55937030D01*
X80475419Y-55937030D02*
X80380180Y-55937030D01*
X80903990Y-55127507D02*
X80856371Y-54984650D01*
X80856371Y-54984650D02*
X80808752Y-54937031D01*
X80808752Y-54937031D02*
X80713514Y-54889412D01*
X80713514Y-54889412D02*
X80570657Y-54889412D01*
X80570657Y-54889412D02*
X80475419Y-54937031D01*
X80475419Y-54937031D02*
X80427800Y-54984650D01*
X80427800Y-54984650D02*
X80380180Y-55079888D01*
X80380180Y-55079888D02*
X80380180Y-55460840D01*
X80380180Y-55460840D02*
X81380180Y-55460840D01*
X81380180Y-55460840D02*
X81380180Y-55127507D01*
X81380180Y-55127507D02*
X81332561Y-55032269D01*
X81332561Y-55032269D02*
X81284942Y-54984650D01*
X81284942Y-54984650D02*
X81189704Y-54937031D01*
X81189704Y-54937031D02*
X81094466Y-54937031D01*
X81094466Y-54937031D02*
X80999228Y-54984650D01*
X80999228Y-54984650D02*
X80951609Y-55032269D01*
X80951609Y-55032269D02*
X80903990Y-55127507D01*
X80903990Y-55127507D02*
X80903990Y-55460840D01*
D10*
X104196115Y-71672419D02*
X104196115Y-70672419D01*
X104196115Y-70672419D02*
X103958020Y-70672419D01*
X103958020Y-70672419D02*
X103815163Y-70720038D01*
X103815163Y-70720038D02*
X103719925Y-70815276D01*
X103719925Y-70815276D02*
X103672306Y-70910514D01*
X103672306Y-70910514D02*
X103624687Y-71100990D01*
X103624687Y-71100990D02*
X103624687Y-71243847D01*
X103624687Y-71243847D02*
X103672306Y-71434323D01*
X103672306Y-71434323D02*
X103719925Y-71529561D01*
X103719925Y-71529561D02*
X103815163Y-71624800D01*
X103815163Y-71624800D02*
X103958020Y-71672419D01*
X103958020Y-71672419D02*
X104196115Y-71672419D01*
X103196115Y-71672419D02*
X103196115Y-70672419D01*
X102529449Y-70672419D02*
X102338973Y-70672419D01*
X102338973Y-70672419D02*
X102243735Y-70720038D01*
X102243735Y-70720038D02*
X102148497Y-70815276D01*
X102148497Y-70815276D02*
X102100878Y-71005752D01*
X102100878Y-71005752D02*
X102100878Y-71339085D01*
X102100878Y-71339085D02*
X102148497Y-71529561D01*
X102148497Y-71529561D02*
X102243735Y-71624800D01*
X102243735Y-71624800D02*
X102338973Y-71672419D01*
X102338973Y-71672419D02*
X102529449Y-71672419D01*
X102529449Y-71672419D02*
X102624687Y-71624800D01*
X102624687Y-71624800D02*
X102719925Y-71529561D01*
X102719925Y-71529561D02*
X102767544Y-71339085D01*
X102767544Y-71339085D02*
X102767544Y-71005752D01*
X102767544Y-71005752D02*
X102719925Y-70815276D01*
X102719925Y-70815276D02*
X102624687Y-70720038D01*
X102624687Y-70720038D02*
X102529449Y-70672419D01*
D11*
X116504819Y-41357142D02*
X116028628Y-41023809D01*
X116504819Y-40785714D02*
X115504819Y-40785714D01*
X115504819Y-40785714D02*
X115504819Y-41166666D01*
X115504819Y-41166666D02*
X115552438Y-41261904D01*
X115552438Y-41261904D02*
X115600057Y-41309523D01*
X115600057Y-41309523D02*
X115695295Y-41357142D01*
X115695295Y-41357142D02*
X115838152Y-41357142D01*
X115838152Y-41357142D02*
X115933390Y-41309523D01*
X115933390Y-41309523D02*
X115981009Y-41261904D01*
X115981009Y-41261904D02*
X116028628Y-41166666D01*
X116028628Y-41166666D02*
X116028628Y-40785714D01*
X116504819Y-42309523D02*
X116504819Y-41738095D01*
X116504819Y-42023809D02*
X115504819Y-42023809D01*
X115504819Y-42023809D02*
X115647676Y-41928571D01*
X115647676Y-41928571D02*
X115742914Y-41833333D01*
X115742914Y-41833333D02*
X115790533Y-41738095D01*
X115504819Y-42928571D02*
X115504819Y-43023809D01*
X115504819Y-43023809D02*
X115552438Y-43119047D01*
X115552438Y-43119047D02*
X115600057Y-43166666D01*
X115600057Y-43166666D02*
X115695295Y-43214285D01*
X115695295Y-43214285D02*
X115885771Y-43261904D01*
X115885771Y-43261904D02*
X116123866Y-43261904D01*
X116123866Y-43261904D02*
X116314342Y-43214285D01*
X116314342Y-43214285D02*
X116409580Y-43166666D01*
X116409580Y-43166666D02*
X116457200Y-43119047D01*
X116457200Y-43119047D02*
X116504819Y-43023809D01*
X116504819Y-43023809D02*
X116504819Y-42928571D01*
X116504819Y-42928571D02*
X116457200Y-42833333D01*
X116457200Y-42833333D02*
X116409580Y-42785714D01*
X116409580Y-42785714D02*
X116314342Y-42738095D01*
X116314342Y-42738095D02*
X116123866Y-42690476D01*
X116123866Y-42690476D02*
X115885771Y-42690476D01*
X115885771Y-42690476D02*
X115695295Y-42738095D01*
X115695295Y-42738095D02*
X115600057Y-42785714D01*
X115600057Y-42785714D02*
X115552438Y-42833333D01*
X115552438Y-42833333D02*
X115504819Y-42928571D01*
X87509523Y-40854819D02*
X87509523Y-41569104D01*
X87509523Y-41569104D02*
X87557142Y-41711961D01*
X87557142Y-41711961D02*
X87652380Y-41807200D01*
X87652380Y-41807200D02*
X87795237Y-41854819D01*
X87795237Y-41854819D02*
X87890475Y-41854819D01*
X86509523Y-41854819D02*
X87080951Y-41854819D01*
X86795237Y-41854819D02*
X86795237Y-40854819D01*
X86795237Y-40854819D02*
X86890475Y-40997676D01*
X86890475Y-40997676D02*
X86985713Y-41092914D01*
X86985713Y-41092914D02*
X87080951Y-41140533D01*
X85557142Y-41854819D02*
X86128570Y-41854819D01*
X85842856Y-41854819D02*
X85842856Y-40854819D01*
X85842856Y-40854819D02*
X85938094Y-40997676D01*
X85938094Y-40997676D02*
X86033332Y-41092914D01*
X86033332Y-41092914D02*
X86128570Y-41140533D01*
X118857738Y-34550057D02*
X118952976Y-34502438D01*
X118952976Y-34502438D02*
X119048214Y-34407200D01*
X119048214Y-34407200D02*
X119191071Y-34264342D01*
X119191071Y-34264342D02*
X119286309Y-34216723D01*
X119286309Y-34216723D02*
X119381547Y-34216723D01*
X119333928Y-34454819D02*
X119429166Y-34407200D01*
X119429166Y-34407200D02*
X119524404Y-34311961D01*
X119524404Y-34311961D02*
X119572023Y-34121485D01*
X119572023Y-34121485D02*
X119572023Y-33788152D01*
X119572023Y-33788152D02*
X119524404Y-33597676D01*
X119524404Y-33597676D02*
X119429166Y-33502438D01*
X119429166Y-33502438D02*
X119333928Y-33454819D01*
X119333928Y-33454819D02*
X119143452Y-33454819D01*
X119143452Y-33454819D02*
X119048214Y-33502438D01*
X119048214Y-33502438D02*
X118952976Y-33597676D01*
X118952976Y-33597676D02*
X118905357Y-33788152D01*
X118905357Y-33788152D02*
X118905357Y-34121485D01*
X118905357Y-34121485D02*
X118952976Y-34311961D01*
X118952976Y-34311961D02*
X119048214Y-34407200D01*
X119048214Y-34407200D02*
X119143452Y-34454819D01*
X119143452Y-34454819D02*
X119333928Y-34454819D01*
X118524404Y-33550057D02*
X118476785Y-33502438D01*
X118476785Y-33502438D02*
X118381547Y-33454819D01*
X118381547Y-33454819D02*
X118143452Y-33454819D01*
X118143452Y-33454819D02*
X118048214Y-33502438D01*
X118048214Y-33502438D02*
X118000595Y-33550057D01*
X118000595Y-33550057D02*
X117952976Y-33645295D01*
X117952976Y-33645295D02*
X117952976Y-33740533D01*
X117952976Y-33740533D02*
X118000595Y-33883390D01*
X118000595Y-33883390D02*
X118572023Y-34454819D01*
X118572023Y-34454819D02*
X117952976Y-34454819D01*
X109354819Y-36666666D02*
X110069104Y-36666666D01*
X110069104Y-36666666D02*
X110211961Y-36619047D01*
X110211961Y-36619047D02*
X110307200Y-36523809D01*
X110307200Y-36523809D02*
X110354819Y-36380952D01*
X110354819Y-36380952D02*
X110354819Y-36285714D01*
X109354819Y-37619047D02*
X109354819Y-37142857D01*
X109354819Y-37142857D02*
X109831009Y-37095238D01*
X109831009Y-37095238D02*
X109783390Y-37142857D01*
X109783390Y-37142857D02*
X109735771Y-37238095D01*
X109735771Y-37238095D02*
X109735771Y-37476190D01*
X109735771Y-37476190D02*
X109783390Y-37571428D01*
X109783390Y-37571428D02*
X109831009Y-37619047D01*
X109831009Y-37619047D02*
X109926247Y-37666666D01*
X109926247Y-37666666D02*
X110164342Y-37666666D01*
X110164342Y-37666666D02*
X110259580Y-37619047D01*
X110259580Y-37619047D02*
X110307200Y-37571428D01*
X110307200Y-37571428D02*
X110354819Y-37476190D01*
X110354819Y-37476190D02*
X110354819Y-37238095D01*
X110354819Y-37238095D02*
X110307200Y-37142857D01*
X110307200Y-37142857D02*
X110259580Y-37095238D01*
X82190476Y-73954819D02*
X82523809Y-73478628D01*
X82761904Y-73954819D02*
X82761904Y-72954819D01*
X82761904Y-72954819D02*
X82380952Y-72954819D01*
X82380952Y-72954819D02*
X82285714Y-73002438D01*
X82285714Y-73002438D02*
X82238095Y-73050057D01*
X82238095Y-73050057D02*
X82190476Y-73145295D01*
X82190476Y-73145295D02*
X82190476Y-73288152D01*
X82190476Y-73288152D02*
X82238095Y-73383390D01*
X82238095Y-73383390D02*
X82285714Y-73431009D01*
X82285714Y-73431009D02*
X82380952Y-73478628D01*
X82380952Y-73478628D02*
X82761904Y-73478628D01*
X81761904Y-73954819D02*
X81761904Y-72954819D01*
X81761904Y-72954819D02*
X81190476Y-73954819D01*
X81190476Y-73954819D02*
X81190476Y-72954819D01*
X80190476Y-73954819D02*
X80761904Y-73954819D01*
X80476190Y-73954819D02*
X80476190Y-72954819D01*
X80476190Y-72954819D02*
X80571428Y-73097676D01*
X80571428Y-73097676D02*
X80666666Y-73192914D01*
X80666666Y-73192914D02*
X80761904Y-73240533D01*
D12*
X78347702Y-61720176D02*
X78347702Y-62338775D01*
X78347702Y-62338775D02*
X78388941Y-62462495D01*
X78388941Y-62462495D02*
X78471421Y-62544975D01*
X78471421Y-62544975D02*
X78595141Y-62586214D01*
X78595141Y-62586214D02*
X78677621Y-62586214D01*
X77564144Y-62008856D02*
X77564144Y-62586214D01*
X77770343Y-61678937D02*
X77976543Y-62297535D01*
X77976543Y-62297535D02*
X77440424Y-62297535D01*
D11*
X121454819Y-41357142D02*
X120978628Y-41023809D01*
X121454819Y-40785714D02*
X120454819Y-40785714D01*
X120454819Y-40785714D02*
X120454819Y-41166666D01*
X120454819Y-41166666D02*
X120502438Y-41261904D01*
X120502438Y-41261904D02*
X120550057Y-41309523D01*
X120550057Y-41309523D02*
X120645295Y-41357142D01*
X120645295Y-41357142D02*
X120788152Y-41357142D01*
X120788152Y-41357142D02*
X120883390Y-41309523D01*
X120883390Y-41309523D02*
X120931009Y-41261904D01*
X120931009Y-41261904D02*
X120978628Y-41166666D01*
X120978628Y-41166666D02*
X120978628Y-40785714D01*
X121454819Y-42309523D02*
X121454819Y-41738095D01*
X121454819Y-42023809D02*
X120454819Y-42023809D01*
X120454819Y-42023809D02*
X120597676Y-41928571D01*
X120597676Y-41928571D02*
X120692914Y-41833333D01*
X120692914Y-41833333D02*
X120740533Y-41738095D01*
X121454819Y-43261904D02*
X121454819Y-42690476D01*
X121454819Y-42976190D02*
X120454819Y-42976190D01*
X120454819Y-42976190D02*
X120597676Y-42880952D01*
X120597676Y-42880952D02*
X120692914Y-42785714D01*
X120692914Y-42785714D02*
X120740533Y-42690476D01*
X87738094Y-76554819D02*
X87738094Y-77364342D01*
X87738094Y-77364342D02*
X87690475Y-77459580D01*
X87690475Y-77459580D02*
X87642856Y-77507200D01*
X87642856Y-77507200D02*
X87547618Y-77554819D01*
X87547618Y-77554819D02*
X87357142Y-77554819D01*
X87357142Y-77554819D02*
X87261904Y-77507200D01*
X87261904Y-77507200D02*
X87214285Y-77459580D01*
X87214285Y-77459580D02*
X87166666Y-77364342D01*
X87166666Y-77364342D02*
X87166666Y-76554819D01*
X86166666Y-77554819D02*
X86738094Y-77554819D01*
X86452380Y-77554819D02*
X86452380Y-76554819D01*
X86452380Y-76554819D02*
X86547618Y-76697676D01*
X86547618Y-76697676D02*
X86642856Y-76792914D01*
X86642856Y-76792914D02*
X86738094Y-76840533D01*
X85547618Y-76554819D02*
X85452380Y-76554819D01*
X85452380Y-76554819D02*
X85357142Y-76602438D01*
X85357142Y-76602438D02*
X85309523Y-76650057D01*
X85309523Y-76650057D02*
X85261904Y-76745295D01*
X85261904Y-76745295D02*
X85214285Y-76935771D01*
X85214285Y-76935771D02*
X85214285Y-77173866D01*
X85214285Y-77173866D02*
X85261904Y-77364342D01*
X85261904Y-77364342D02*
X85309523Y-77459580D01*
X85309523Y-77459580D02*
X85357142Y-77507200D01*
X85357142Y-77507200D02*
X85452380Y-77554819D01*
X85452380Y-77554819D02*
X85547618Y-77554819D01*
X85547618Y-77554819D02*
X85642856Y-77507200D01*
X85642856Y-77507200D02*
X85690475Y-77459580D01*
X85690475Y-77459580D02*
X85738094Y-77364342D01*
X85738094Y-77364342D02*
X85785713Y-77173866D01*
X85785713Y-77173866D02*
X85785713Y-76935771D01*
X85785713Y-76935771D02*
X85738094Y-76745295D01*
X85738094Y-76745295D02*
X85690475Y-76650057D01*
X85690475Y-76650057D02*
X85642856Y-76602438D01*
X85642856Y-76602438D02*
X85547618Y-76554819D01*
X103097857Y-58494580D02*
X103145476Y-58542200D01*
X103145476Y-58542200D02*
X103288333Y-58589819D01*
X103288333Y-58589819D02*
X103383571Y-58589819D01*
X103383571Y-58589819D02*
X103526428Y-58542200D01*
X103526428Y-58542200D02*
X103621666Y-58446961D01*
X103621666Y-58446961D02*
X103669285Y-58351723D01*
X103669285Y-58351723D02*
X103716904Y-58161247D01*
X103716904Y-58161247D02*
X103716904Y-58018390D01*
X103716904Y-58018390D02*
X103669285Y-57827914D01*
X103669285Y-57827914D02*
X103621666Y-57732676D01*
X103621666Y-57732676D02*
X103526428Y-57637438D01*
X103526428Y-57637438D02*
X103383571Y-57589819D01*
X103383571Y-57589819D02*
X103288333Y-57589819D01*
X103288333Y-57589819D02*
X103145476Y-57637438D01*
X103145476Y-57637438D02*
X103097857Y-57685057D01*
X102145476Y-58589819D02*
X102716904Y-58589819D01*
X102431190Y-58589819D02*
X102431190Y-57589819D01*
X102431190Y-57589819D02*
X102526428Y-57732676D01*
X102526428Y-57732676D02*
X102621666Y-57827914D01*
X102621666Y-57827914D02*
X102716904Y-57875533D01*
X101812142Y-57589819D02*
X101193095Y-57589819D01*
X101193095Y-57589819D02*
X101526428Y-57970771D01*
X101526428Y-57970771D02*
X101383571Y-57970771D01*
X101383571Y-57970771D02*
X101288333Y-58018390D01*
X101288333Y-58018390D02*
X101240714Y-58066009D01*
X101240714Y-58066009D02*
X101193095Y-58161247D01*
X101193095Y-58161247D02*
X101193095Y-58399342D01*
X101193095Y-58399342D02*
X101240714Y-58494580D01*
X101240714Y-58494580D02*
X101288333Y-58542200D01*
X101288333Y-58542200D02*
X101383571Y-58589819D01*
X101383571Y-58589819D02*
X101669285Y-58589819D01*
X101669285Y-58589819D02*
X101764523Y-58542200D01*
X101764523Y-58542200D02*
X101812142Y-58494580D01*
X141461904Y-60754819D02*
X141461904Y-61564342D01*
X141461904Y-61564342D02*
X141414285Y-61659580D01*
X141414285Y-61659580D02*
X141366666Y-61707200D01*
X141366666Y-61707200D02*
X141271428Y-61754819D01*
X141271428Y-61754819D02*
X141080952Y-61754819D01*
X141080952Y-61754819D02*
X140985714Y-61707200D01*
X140985714Y-61707200D02*
X140938095Y-61659580D01*
X140938095Y-61659580D02*
X140890476Y-61564342D01*
X140890476Y-61564342D02*
X140890476Y-60754819D01*
X140366666Y-61754819D02*
X140176190Y-61754819D01*
X140176190Y-61754819D02*
X140080952Y-61707200D01*
X140080952Y-61707200D02*
X140033333Y-61659580D01*
X140033333Y-61659580D02*
X139938095Y-61516723D01*
X139938095Y-61516723D02*
X139890476Y-61326247D01*
X139890476Y-61326247D02*
X139890476Y-60945295D01*
X139890476Y-60945295D02*
X139938095Y-60850057D01*
X139938095Y-60850057D02*
X139985714Y-60802438D01*
X139985714Y-60802438D02*
X140080952Y-60754819D01*
X140080952Y-60754819D02*
X140271428Y-60754819D01*
X140271428Y-60754819D02*
X140366666Y-60802438D01*
X140366666Y-60802438D02*
X140414285Y-60850057D01*
X140414285Y-60850057D02*
X140461904Y-60945295D01*
X140461904Y-60945295D02*
X140461904Y-61183390D01*
X140461904Y-61183390D02*
X140414285Y-61278628D01*
X140414285Y-61278628D02*
X140366666Y-61326247D01*
X140366666Y-61326247D02*
X140271428Y-61373866D01*
X140271428Y-61373866D02*
X140080952Y-61373866D01*
X140080952Y-61373866D02*
X139985714Y-61326247D01*
X139985714Y-61326247D02*
X139938095Y-61278628D01*
X139938095Y-61278628D02*
X139890476Y-61183390D01*
X160345180Y-74209523D02*
X159630895Y-74209523D01*
X159630895Y-74209523D02*
X159488038Y-74257142D01*
X159488038Y-74257142D02*
X159392800Y-74352380D01*
X159392800Y-74352380D02*
X159345180Y-74495237D01*
X159345180Y-74495237D02*
X159345180Y-74590475D01*
X159345180Y-73209523D02*
X159345180Y-73780951D01*
X159345180Y-73495237D02*
X160345180Y-73495237D01*
X160345180Y-73495237D02*
X160202323Y-73590475D01*
X160202323Y-73590475D02*
X160107085Y-73685713D01*
X160107085Y-73685713D02*
X160059466Y-73780951D01*
X160345180Y-72304761D02*
X160345180Y-72780951D01*
X160345180Y-72780951D02*
X159868990Y-72828570D01*
X159868990Y-72828570D02*
X159916609Y-72780951D01*
X159916609Y-72780951D02*
X159964228Y-72685713D01*
X159964228Y-72685713D02*
X159964228Y-72447618D01*
X159964228Y-72447618D02*
X159916609Y-72352380D01*
X159916609Y-72352380D02*
X159868990Y-72304761D01*
X159868990Y-72304761D02*
X159773752Y-72257142D01*
X159773752Y-72257142D02*
X159535657Y-72257142D01*
X159535657Y-72257142D02*
X159440419Y-72304761D01*
X159440419Y-72304761D02*
X159392800Y-72352380D01*
X159392800Y-72352380D02*
X159345180Y-72447618D01*
X159345180Y-72447618D02*
X159345180Y-72685713D01*
X159345180Y-72685713D02*
X159392800Y-72780951D01*
X159392800Y-72780951D02*
X159440419Y-72828570D01*
X78988094Y-55454819D02*
X78988094Y-54454819D01*
X78988094Y-54454819D02*
X78749999Y-54454819D01*
X78749999Y-54454819D02*
X78607142Y-54502438D01*
X78607142Y-54502438D02*
X78511904Y-54597676D01*
X78511904Y-54597676D02*
X78464285Y-54692914D01*
X78464285Y-54692914D02*
X78416666Y-54883390D01*
X78416666Y-54883390D02*
X78416666Y-55026247D01*
X78416666Y-55026247D02*
X78464285Y-55216723D01*
X78464285Y-55216723D02*
X78511904Y-55311961D01*
X78511904Y-55311961D02*
X78607142Y-55407200D01*
X78607142Y-55407200D02*
X78749999Y-55454819D01*
X78749999Y-55454819D02*
X78988094Y-55454819D01*
X77940475Y-55454819D02*
X77749999Y-55454819D01*
X77749999Y-55454819D02*
X77654761Y-55407200D01*
X77654761Y-55407200D02*
X77607142Y-55359580D01*
X77607142Y-55359580D02*
X77511904Y-55216723D01*
X77511904Y-55216723D02*
X77464285Y-55026247D01*
X77464285Y-55026247D02*
X77464285Y-54645295D01*
X77464285Y-54645295D02*
X77511904Y-54550057D01*
X77511904Y-54550057D02*
X77559523Y-54502438D01*
X77559523Y-54502438D02*
X77654761Y-54454819D01*
X77654761Y-54454819D02*
X77845237Y-54454819D01*
X77845237Y-54454819D02*
X77940475Y-54502438D01*
X77940475Y-54502438D02*
X77988094Y-54550057D01*
X77988094Y-54550057D02*
X78035713Y-54645295D01*
X78035713Y-54645295D02*
X78035713Y-54883390D01*
X78035713Y-54883390D02*
X77988094Y-54978628D01*
X77988094Y-54978628D02*
X77940475Y-55026247D01*
X77940475Y-55026247D02*
X77845237Y-55073866D01*
X77845237Y-55073866D02*
X77654761Y-55073866D01*
X77654761Y-55073866D02*
X77559523Y-55026247D01*
X77559523Y-55026247D02*
X77511904Y-54978628D01*
X77511904Y-54978628D02*
X77464285Y-54883390D01*
X139750594Y-50554819D02*
X139750594Y-49554819D01*
X139750594Y-49554819D02*
X139512499Y-49554819D01*
X139512499Y-49554819D02*
X139369642Y-49602438D01*
X139369642Y-49602438D02*
X139274404Y-49697676D01*
X139274404Y-49697676D02*
X139226785Y-49792914D01*
X139226785Y-49792914D02*
X139179166Y-49983390D01*
X139179166Y-49983390D02*
X139179166Y-50126247D01*
X139179166Y-50126247D02*
X139226785Y-50316723D01*
X139226785Y-50316723D02*
X139274404Y-50411961D01*
X139274404Y-50411961D02*
X139369642Y-50507200D01*
X139369642Y-50507200D02*
X139512499Y-50554819D01*
X139512499Y-50554819D02*
X139750594Y-50554819D01*
X138607737Y-49983390D02*
X138702975Y-49935771D01*
X138702975Y-49935771D02*
X138750594Y-49888152D01*
X138750594Y-49888152D02*
X138798213Y-49792914D01*
X138798213Y-49792914D02*
X138798213Y-49745295D01*
X138798213Y-49745295D02*
X138750594Y-49650057D01*
X138750594Y-49650057D02*
X138702975Y-49602438D01*
X138702975Y-49602438D02*
X138607737Y-49554819D01*
X138607737Y-49554819D02*
X138417261Y-49554819D01*
X138417261Y-49554819D02*
X138322023Y-49602438D01*
X138322023Y-49602438D02*
X138274404Y-49650057D01*
X138274404Y-49650057D02*
X138226785Y-49745295D01*
X138226785Y-49745295D02*
X138226785Y-49792914D01*
X138226785Y-49792914D02*
X138274404Y-49888152D01*
X138274404Y-49888152D02*
X138322023Y-49935771D01*
X138322023Y-49935771D02*
X138417261Y-49983390D01*
X138417261Y-49983390D02*
X138607737Y-49983390D01*
X138607737Y-49983390D02*
X138702975Y-50031009D01*
X138702975Y-50031009D02*
X138750594Y-50078628D01*
X138750594Y-50078628D02*
X138798213Y-50173866D01*
X138798213Y-50173866D02*
X138798213Y-50364342D01*
X138798213Y-50364342D02*
X138750594Y-50459580D01*
X138750594Y-50459580D02*
X138702975Y-50507200D01*
X138702975Y-50507200D02*
X138607737Y-50554819D01*
X138607737Y-50554819D02*
X138417261Y-50554819D01*
X138417261Y-50554819D02*
X138322023Y-50507200D01*
X138322023Y-50507200D02*
X138274404Y-50459580D01*
X138274404Y-50459580D02*
X138226785Y-50364342D01*
X138226785Y-50364342D02*
X138226785Y-50173866D01*
X138226785Y-50173866D02*
X138274404Y-50078628D01*
X138274404Y-50078628D02*
X138322023Y-50031009D01*
X138322023Y-50031009D02*
X138417261Y-49983390D01*
X79714285Y-57204819D02*
X79714285Y-56204819D01*
X79714285Y-56204819D02*
X79476190Y-56204819D01*
X79476190Y-56204819D02*
X79333333Y-56252438D01*
X79333333Y-56252438D02*
X79238095Y-56347676D01*
X79238095Y-56347676D02*
X79190476Y-56442914D01*
X79190476Y-56442914D02*
X79142857Y-56633390D01*
X79142857Y-56633390D02*
X79142857Y-56776247D01*
X79142857Y-56776247D02*
X79190476Y-56966723D01*
X79190476Y-56966723D02*
X79238095Y-57061961D01*
X79238095Y-57061961D02*
X79333333Y-57157200D01*
X79333333Y-57157200D02*
X79476190Y-57204819D01*
X79476190Y-57204819D02*
X79714285Y-57204819D01*
X78190476Y-57204819D02*
X78761904Y-57204819D01*
X78476190Y-57204819D02*
X78476190Y-56204819D01*
X78476190Y-56204819D02*
X78571428Y-56347676D01*
X78571428Y-56347676D02*
X78666666Y-56442914D01*
X78666666Y-56442914D02*
X78761904Y-56490533D01*
X77571428Y-56204819D02*
X77476190Y-56204819D01*
X77476190Y-56204819D02*
X77380952Y-56252438D01*
X77380952Y-56252438D02*
X77333333Y-56300057D01*
X77333333Y-56300057D02*
X77285714Y-56395295D01*
X77285714Y-56395295D02*
X77238095Y-56585771D01*
X77238095Y-56585771D02*
X77238095Y-56823866D01*
X77238095Y-56823866D02*
X77285714Y-57014342D01*
X77285714Y-57014342D02*
X77333333Y-57109580D01*
X77333333Y-57109580D02*
X77380952Y-57157200D01*
X77380952Y-57157200D02*
X77476190Y-57204819D01*
X77476190Y-57204819D02*
X77571428Y-57204819D01*
X77571428Y-57204819D02*
X77666666Y-57157200D01*
X77666666Y-57157200D02*
X77714285Y-57109580D01*
X77714285Y-57109580D02*
X77761904Y-57014342D01*
X77761904Y-57014342D02*
X77809523Y-56823866D01*
X77809523Y-56823866D02*
X77809523Y-56585771D01*
X77809523Y-56585771D02*
X77761904Y-56395295D01*
X77761904Y-56395295D02*
X77714285Y-56300057D01*
X77714285Y-56300057D02*
X77666666Y-56252438D01*
X77666666Y-56252438D02*
X77571428Y-56204819D01*
X79464285Y-58954819D02*
X79464285Y-57954819D01*
X79464285Y-57954819D02*
X79226190Y-57954819D01*
X79226190Y-57954819D02*
X79083333Y-58002438D01*
X79083333Y-58002438D02*
X78988095Y-58097676D01*
X78988095Y-58097676D02*
X78940476Y-58192914D01*
X78940476Y-58192914D02*
X78892857Y-58383390D01*
X78892857Y-58383390D02*
X78892857Y-58526247D01*
X78892857Y-58526247D02*
X78940476Y-58716723D01*
X78940476Y-58716723D02*
X78988095Y-58811961D01*
X78988095Y-58811961D02*
X79083333Y-58907200D01*
X79083333Y-58907200D02*
X79226190Y-58954819D01*
X79226190Y-58954819D02*
X79464285Y-58954819D01*
X77940476Y-58954819D02*
X78511904Y-58954819D01*
X78226190Y-58954819D02*
X78226190Y-57954819D01*
X78226190Y-57954819D02*
X78321428Y-58097676D01*
X78321428Y-58097676D02*
X78416666Y-58192914D01*
X78416666Y-58192914D02*
X78511904Y-58240533D01*
X76988095Y-58954819D02*
X77559523Y-58954819D01*
X77273809Y-58954819D02*
X77273809Y-57954819D01*
X77273809Y-57954819D02*
X77369047Y-58097676D01*
X77369047Y-58097676D02*
X77464285Y-58192914D01*
X77464285Y-58192914D02*
X77559523Y-58240533D01*
X142531009Y-53464285D02*
X142578628Y-53607142D01*
X142578628Y-53607142D02*
X142626247Y-53654761D01*
X142626247Y-53654761D02*
X142721485Y-53702380D01*
X142721485Y-53702380D02*
X142864342Y-53702380D01*
X142864342Y-53702380D02*
X142959580Y-53654761D01*
X142959580Y-53654761D02*
X143007200Y-53607142D01*
X143007200Y-53607142D02*
X143054819Y-53511904D01*
X143054819Y-53511904D02*
X143054819Y-53130952D01*
X143054819Y-53130952D02*
X142054819Y-53130952D01*
X142054819Y-53130952D02*
X142054819Y-53464285D01*
X142054819Y-53464285D02*
X142102438Y-53559523D01*
X142102438Y-53559523D02*
X142150057Y-53607142D01*
X142150057Y-53607142D02*
X142245295Y-53654761D01*
X142245295Y-53654761D02*
X142340533Y-53654761D01*
X142340533Y-53654761D02*
X142435771Y-53607142D01*
X142435771Y-53607142D02*
X142483390Y-53559523D01*
X142483390Y-53559523D02*
X142531009Y-53464285D01*
X142531009Y-53464285D02*
X142531009Y-53130952D01*
X142054819Y-53988095D02*
X142054819Y-54559523D01*
X143054819Y-54273809D02*
X142054819Y-54273809D01*
X143054819Y-55416666D02*
X143054819Y-54845238D01*
X143054819Y-55130952D02*
X142054819Y-55130952D01*
X142054819Y-55130952D02*
X142197676Y-55035714D01*
X142197676Y-55035714D02*
X142292914Y-54940476D01*
X142292914Y-54940476D02*
X142340533Y-54845238D01*
X102966666Y-56759580D02*
X103014285Y-56807200D01*
X103014285Y-56807200D02*
X103157142Y-56854819D01*
X103157142Y-56854819D02*
X103252380Y-56854819D01*
X103252380Y-56854819D02*
X103395237Y-56807200D01*
X103395237Y-56807200D02*
X103490475Y-56711961D01*
X103490475Y-56711961D02*
X103538094Y-56616723D01*
X103538094Y-56616723D02*
X103585713Y-56426247D01*
X103585713Y-56426247D02*
X103585713Y-56283390D01*
X103585713Y-56283390D02*
X103538094Y-56092914D01*
X103538094Y-56092914D02*
X103490475Y-55997676D01*
X103490475Y-55997676D02*
X103395237Y-55902438D01*
X103395237Y-55902438D02*
X103252380Y-55854819D01*
X103252380Y-55854819D02*
X103157142Y-55854819D01*
X103157142Y-55854819D02*
X103014285Y-55902438D01*
X103014285Y-55902438D02*
X102966666Y-55950057D01*
X102109523Y-55854819D02*
X102299999Y-55854819D01*
X102299999Y-55854819D02*
X102395237Y-55902438D01*
X102395237Y-55902438D02*
X102442856Y-55950057D01*
X102442856Y-55950057D02*
X102538094Y-56092914D01*
X102538094Y-56092914D02*
X102585713Y-56283390D01*
X102585713Y-56283390D02*
X102585713Y-56664342D01*
X102585713Y-56664342D02*
X102538094Y-56759580D01*
X102538094Y-56759580D02*
X102490475Y-56807200D01*
X102490475Y-56807200D02*
X102395237Y-56854819D01*
X102395237Y-56854819D02*
X102204761Y-56854819D01*
X102204761Y-56854819D02*
X102109523Y-56807200D01*
X102109523Y-56807200D02*
X102061904Y-56759580D01*
X102061904Y-56759580D02*
X102014285Y-56664342D01*
X102014285Y-56664342D02*
X102014285Y-56426247D01*
X102014285Y-56426247D02*
X102061904Y-56331009D01*
X102061904Y-56331009D02*
X102109523Y-56283390D01*
X102109523Y-56283390D02*
X102204761Y-56235771D01*
X102204761Y-56235771D02*
X102395237Y-56235771D01*
X102395237Y-56235771D02*
X102490475Y-56283390D01*
X102490475Y-56283390D02*
X102538094Y-56331009D01*
X102538094Y-56331009D02*
X102585713Y-56426247D01*
X102966666Y-60359580D02*
X103014285Y-60407200D01*
X103014285Y-60407200D02*
X103157142Y-60454819D01*
X103157142Y-60454819D02*
X103252380Y-60454819D01*
X103252380Y-60454819D02*
X103395237Y-60407200D01*
X103395237Y-60407200D02*
X103490475Y-60311961D01*
X103490475Y-60311961D02*
X103538094Y-60216723D01*
X103538094Y-60216723D02*
X103585713Y-60026247D01*
X103585713Y-60026247D02*
X103585713Y-59883390D01*
X103585713Y-59883390D02*
X103538094Y-59692914D01*
X103538094Y-59692914D02*
X103490475Y-59597676D01*
X103490475Y-59597676D02*
X103395237Y-59502438D01*
X103395237Y-59502438D02*
X103252380Y-59454819D01*
X103252380Y-59454819D02*
X103157142Y-59454819D01*
X103157142Y-59454819D02*
X103014285Y-59502438D01*
X103014285Y-59502438D02*
X102966666Y-59550057D01*
X102633332Y-59454819D02*
X101966666Y-59454819D01*
X101966666Y-59454819D02*
X102395237Y-60454819D01*
X157474472Y-39064566D02*
X158188757Y-39064566D01*
X158188757Y-39064566D02*
X158331614Y-39016947D01*
X158331614Y-39016947D02*
X158426853Y-38921709D01*
X158426853Y-38921709D02*
X158474472Y-38778852D01*
X158474472Y-38778852D02*
X158474472Y-38683614D01*
X157903043Y-39683614D02*
X157855424Y-39588376D01*
X157855424Y-39588376D02*
X157807805Y-39540757D01*
X157807805Y-39540757D02*
X157712567Y-39493138D01*
X157712567Y-39493138D02*
X157664948Y-39493138D01*
X157664948Y-39493138D02*
X157569710Y-39540757D01*
X157569710Y-39540757D02*
X157522091Y-39588376D01*
X157522091Y-39588376D02*
X157474472Y-39683614D01*
X157474472Y-39683614D02*
X157474472Y-39874090D01*
X157474472Y-39874090D02*
X157522091Y-39969328D01*
X157522091Y-39969328D02*
X157569710Y-40016947D01*
X157569710Y-40016947D02*
X157664948Y-40064566D01*
X157664948Y-40064566D02*
X157712567Y-40064566D01*
X157712567Y-40064566D02*
X157807805Y-40016947D01*
X157807805Y-40016947D02*
X157855424Y-39969328D01*
X157855424Y-39969328D02*
X157903043Y-39874090D01*
X157903043Y-39874090D02*
X157903043Y-39683614D01*
X157903043Y-39683614D02*
X157950662Y-39588376D01*
X157950662Y-39588376D02*
X157998281Y-39540757D01*
X157998281Y-39540757D02*
X158093519Y-39493138D01*
X158093519Y-39493138D02*
X158283995Y-39493138D01*
X158283995Y-39493138D02*
X158379233Y-39540757D01*
X158379233Y-39540757D02*
X158426853Y-39588376D01*
X158426853Y-39588376D02*
X158474472Y-39683614D01*
X158474472Y-39683614D02*
X158474472Y-39874090D01*
X158474472Y-39874090D02*
X158426853Y-39969328D01*
X158426853Y-39969328D02*
X158379233Y-40016947D01*
X158379233Y-40016947D02*
X158283995Y-40064566D01*
X158283995Y-40064566D02*
X158093519Y-40064566D01*
X158093519Y-40064566D02*
X157998281Y-40016947D01*
X157998281Y-40016947D02*
X157950662Y-39969328D01*
X157950662Y-39969328D02*
X157903043Y-39874090D01*
X102966666Y-62234580D02*
X103014285Y-62282200D01*
X103014285Y-62282200D02*
X103157142Y-62329819D01*
X103157142Y-62329819D02*
X103252380Y-62329819D01*
X103252380Y-62329819D02*
X103395237Y-62282200D01*
X103395237Y-62282200D02*
X103490475Y-62186961D01*
X103490475Y-62186961D02*
X103538094Y-62091723D01*
X103538094Y-62091723D02*
X103585713Y-61901247D01*
X103585713Y-61901247D02*
X103585713Y-61758390D01*
X103585713Y-61758390D02*
X103538094Y-61567914D01*
X103538094Y-61567914D02*
X103490475Y-61472676D01*
X103490475Y-61472676D02*
X103395237Y-61377438D01*
X103395237Y-61377438D02*
X103252380Y-61329819D01*
X103252380Y-61329819D02*
X103157142Y-61329819D01*
X103157142Y-61329819D02*
X103014285Y-61377438D01*
X103014285Y-61377438D02*
X102966666Y-61425057D01*
X102395237Y-61758390D02*
X102490475Y-61710771D01*
X102490475Y-61710771D02*
X102538094Y-61663152D01*
X102538094Y-61663152D02*
X102585713Y-61567914D01*
X102585713Y-61567914D02*
X102585713Y-61520295D01*
X102585713Y-61520295D02*
X102538094Y-61425057D01*
X102538094Y-61425057D02*
X102490475Y-61377438D01*
X102490475Y-61377438D02*
X102395237Y-61329819D01*
X102395237Y-61329819D02*
X102204761Y-61329819D01*
X102204761Y-61329819D02*
X102109523Y-61377438D01*
X102109523Y-61377438D02*
X102061904Y-61425057D01*
X102061904Y-61425057D02*
X102014285Y-61520295D01*
X102014285Y-61520295D02*
X102014285Y-61567914D01*
X102014285Y-61567914D02*
X102061904Y-61663152D01*
X102061904Y-61663152D02*
X102109523Y-61710771D01*
X102109523Y-61710771D02*
X102204761Y-61758390D01*
X102204761Y-61758390D02*
X102395237Y-61758390D01*
X102395237Y-61758390D02*
X102490475Y-61806009D01*
X102490475Y-61806009D02*
X102538094Y-61853628D01*
X102538094Y-61853628D02*
X102585713Y-61948866D01*
X102585713Y-61948866D02*
X102585713Y-62139342D01*
X102585713Y-62139342D02*
X102538094Y-62234580D01*
X102538094Y-62234580D02*
X102490475Y-62282200D01*
X102490475Y-62282200D02*
X102395237Y-62329819D01*
X102395237Y-62329819D02*
X102204761Y-62329819D01*
X102204761Y-62329819D02*
X102109523Y-62282200D01*
X102109523Y-62282200D02*
X102061904Y-62234580D01*
X102061904Y-62234580D02*
X102014285Y-62139342D01*
X102014285Y-62139342D02*
X102014285Y-61948866D01*
X102014285Y-61948866D02*
X102061904Y-61853628D01*
X102061904Y-61853628D02*
X102109523Y-61806009D01*
X102109523Y-61806009D02*
X102204761Y-61758390D01*
X128142857Y-44554819D02*
X128619047Y-44554819D01*
X128619047Y-44554819D02*
X128619047Y-43554819D01*
X127857142Y-44507200D02*
X127714285Y-44554819D01*
X127714285Y-44554819D02*
X127476190Y-44554819D01*
X127476190Y-44554819D02*
X127380952Y-44507200D01*
X127380952Y-44507200D02*
X127333333Y-44459580D01*
X127333333Y-44459580D02*
X127285714Y-44364342D01*
X127285714Y-44364342D02*
X127285714Y-44269104D01*
X127285714Y-44269104D02*
X127333333Y-44173866D01*
X127333333Y-44173866D02*
X127380952Y-44126247D01*
X127380952Y-44126247D02*
X127476190Y-44078628D01*
X127476190Y-44078628D02*
X127666666Y-44031009D01*
X127666666Y-44031009D02*
X127761904Y-43983390D01*
X127761904Y-43983390D02*
X127809523Y-43935771D01*
X127809523Y-43935771D02*
X127857142Y-43840533D01*
X127857142Y-43840533D02*
X127857142Y-43745295D01*
X127857142Y-43745295D02*
X127809523Y-43650057D01*
X127809523Y-43650057D02*
X127761904Y-43602438D01*
X127761904Y-43602438D02*
X127666666Y-43554819D01*
X127666666Y-43554819D02*
X127428571Y-43554819D01*
X127428571Y-43554819D02*
X127285714Y-43602438D01*
X126333333Y-44554819D02*
X126904761Y-44554819D01*
X126619047Y-44554819D02*
X126619047Y-43554819D01*
X126619047Y-43554819D02*
X126714285Y-43697676D01*
X126714285Y-43697676D02*
X126809523Y-43792914D01*
X126809523Y-43792914D02*
X126904761Y-43840533D01*
X122289761Y-41932533D02*
X121680238Y-41932533D01*
X121984999Y-42237295D02*
X121984999Y-41627771D01*
X122289761Y-35582533D02*
X121680238Y-35582533D01*
D13*
X121361461Y-61343809D02*
X121361461Y-61948571D01*
X121724318Y-61222857D02*
X120454318Y-61646190D01*
X120454318Y-61646190D02*
X121724318Y-62069524D01*
X121724318Y-62492856D02*
X120454318Y-62492856D01*
X120454318Y-62492856D02*
X121724318Y-63218571D01*
X121724318Y-63218571D02*
X120454318Y-63218571D01*
X120454318Y-63641904D02*
X120454318Y-64367618D01*
X121724318Y-64004761D02*
X120454318Y-64004761D01*
X121724318Y-65456190D02*
X121724318Y-64730475D01*
X121724318Y-65093332D02*
X120454318Y-65093332D01*
X120454318Y-65093332D02*
X120635746Y-64972380D01*
X120635746Y-64972380D02*
X120756699Y-64851428D01*
X120756699Y-64851428D02*
X120817175Y-64730475D01*
D11*
X136405357Y-53804819D02*
X136738690Y-53328628D01*
X136976785Y-53804819D02*
X136976785Y-52804819D01*
X136976785Y-52804819D02*
X136595833Y-52804819D01*
X136595833Y-52804819D02*
X136500595Y-52852438D01*
X136500595Y-52852438D02*
X136452976Y-52900057D01*
X136452976Y-52900057D02*
X136405357Y-52995295D01*
X136405357Y-52995295D02*
X136405357Y-53138152D01*
X136405357Y-53138152D02*
X136452976Y-53233390D01*
X136452976Y-53233390D02*
X136500595Y-53281009D01*
X136500595Y-53281009D02*
X136595833Y-53328628D01*
X136595833Y-53328628D02*
X136976785Y-53328628D01*
X136072023Y-52804819D02*
X135452976Y-52804819D01*
X135452976Y-52804819D02*
X135786309Y-53185771D01*
X135786309Y-53185771D02*
X135643452Y-53185771D01*
X135643452Y-53185771D02*
X135548214Y-53233390D01*
X135548214Y-53233390D02*
X135500595Y-53281009D01*
X135500595Y-53281009D02*
X135452976Y-53376247D01*
X135452976Y-53376247D02*
X135452976Y-53614342D01*
X135452976Y-53614342D02*
X135500595Y-53709580D01*
X135500595Y-53709580D02*
X135548214Y-53757200D01*
X135548214Y-53757200D02*
X135643452Y-53804819D01*
X135643452Y-53804819D02*
X135929166Y-53804819D01*
X135929166Y-53804819D02*
X136024404Y-53757200D01*
X136024404Y-53757200D02*
X136072023Y-53709580D01*
X134976785Y-53804819D02*
X134786309Y-53804819D01*
X134786309Y-53804819D02*
X134691071Y-53757200D01*
X134691071Y-53757200D02*
X134643452Y-53709580D01*
X134643452Y-53709580D02*
X134548214Y-53566723D01*
X134548214Y-53566723D02*
X134500595Y-53376247D01*
X134500595Y-53376247D02*
X134500595Y-52995295D01*
X134500595Y-52995295D02*
X134548214Y-52900057D01*
X134548214Y-52900057D02*
X134595833Y-52852438D01*
X134595833Y-52852438D02*
X134691071Y-52804819D01*
X134691071Y-52804819D02*
X134881547Y-52804819D01*
X134881547Y-52804819D02*
X134976785Y-52852438D01*
X134976785Y-52852438D02*
X135024404Y-52900057D01*
X135024404Y-52900057D02*
X135072023Y-52995295D01*
X135072023Y-52995295D02*
X135072023Y-53233390D01*
X135072023Y-53233390D02*
X135024404Y-53328628D01*
X135024404Y-53328628D02*
X134976785Y-53376247D01*
X134976785Y-53376247D02*
X134881547Y-53423866D01*
X134881547Y-53423866D02*
X134691071Y-53423866D01*
X134691071Y-53423866D02*
X134595833Y-53376247D01*
X134595833Y-53376247D02*
X134548214Y-53328628D01*
X134548214Y-53328628D02*
X134500595Y-53233390D01*
X136405357Y-55409580D02*
X136452976Y-55457200D01*
X136452976Y-55457200D02*
X136595833Y-55504819D01*
X136595833Y-55504819D02*
X136691071Y-55504819D01*
X136691071Y-55504819D02*
X136833928Y-55457200D01*
X136833928Y-55457200D02*
X136929166Y-55361961D01*
X136929166Y-55361961D02*
X136976785Y-55266723D01*
X136976785Y-55266723D02*
X137024404Y-55076247D01*
X137024404Y-55076247D02*
X137024404Y-54933390D01*
X137024404Y-54933390D02*
X136976785Y-54742914D01*
X136976785Y-54742914D02*
X136929166Y-54647676D01*
X136929166Y-54647676D02*
X136833928Y-54552438D01*
X136833928Y-54552438D02*
X136691071Y-54504819D01*
X136691071Y-54504819D02*
X136595833Y-54504819D01*
X136595833Y-54504819D02*
X136452976Y-54552438D01*
X136452976Y-54552438D02*
X136405357Y-54600057D01*
X136072023Y-54504819D02*
X135452976Y-54504819D01*
X135452976Y-54504819D02*
X135786309Y-54885771D01*
X135786309Y-54885771D02*
X135643452Y-54885771D01*
X135643452Y-54885771D02*
X135548214Y-54933390D01*
X135548214Y-54933390D02*
X135500595Y-54981009D01*
X135500595Y-54981009D02*
X135452976Y-55076247D01*
X135452976Y-55076247D02*
X135452976Y-55314342D01*
X135452976Y-55314342D02*
X135500595Y-55409580D01*
X135500595Y-55409580D02*
X135548214Y-55457200D01*
X135548214Y-55457200D02*
X135643452Y-55504819D01*
X135643452Y-55504819D02*
X135929166Y-55504819D01*
X135929166Y-55504819D02*
X136024404Y-55457200D01*
X136024404Y-55457200D02*
X136072023Y-55409580D01*
X135119642Y-54504819D02*
X134452976Y-54504819D01*
X134452976Y-54504819D02*
X134881547Y-55504819D01*
D14*
%TO.C,TP4*%
X75600000Y-70800000D02*
X78000000Y-70800000D01*
X75600000Y-68400000D02*
X75600000Y-70800000D01*
X78000000Y-70800000D02*
X78000000Y-68400000D01*
X78000000Y-68400000D02*
X75600000Y-68400000D01*
%TO.C,TP3*%
X78300000Y-70800000D02*
X80700000Y-70800000D01*
X78300000Y-68400000D02*
X78300000Y-70800000D01*
X80700000Y-70800000D02*
X80700000Y-68400000D01*
X80700000Y-68400000D02*
X78300000Y-68400000D01*
%TO.C,TP2*%
X75300000Y-68400000D02*
X72900000Y-68400000D01*
X75300000Y-70800000D02*
X75300000Y-68400000D01*
X72900000Y-68400000D02*
X72900000Y-70800000D01*
X72900000Y-70800000D02*
X75300000Y-70800000D01*
%TO.C,R10*%
X116977500Y-42254724D02*
X116977500Y-41745276D01*
X118022500Y-42254724D02*
X118022500Y-41745276D01*
%TO.C,J11*%
X81640000Y-34290000D02*
X91760000Y-34290000D01*
X81640000Y-40260000D02*
X81640000Y-34290000D01*
X81650000Y-34300000D02*
X83450000Y-34300000D01*
X81650000Y-35050000D02*
X81650000Y-34300000D01*
X81650000Y-36550000D02*
X82400000Y-36550000D01*
X82400000Y-36550000D02*
X82400000Y-39500000D01*
X82400000Y-39500000D02*
X86700000Y-39500000D01*
X83450000Y-34300000D02*
X83450000Y-35050000D01*
X83450000Y-35050000D02*
X81650000Y-35050000D01*
X84950000Y-34300000D02*
X88450000Y-34300000D01*
X84950000Y-35050000D02*
X84950000Y-34300000D01*
X86700000Y-39500000D02*
X89940000Y-39500000D01*
X88450000Y-34300000D02*
X88450000Y-35050000D01*
X88450000Y-35050000D02*
X84950000Y-35050000D01*
X89950000Y-34300000D02*
X91750000Y-34300000D01*
X89950000Y-35050000D02*
X89950000Y-34300000D01*
X90800000Y-34000000D02*
X92050000Y-34000000D01*
X91000000Y-36550000D02*
X91000000Y-37890000D01*
X91750000Y-34300000D02*
X91750000Y-35050000D01*
X91750000Y-35050000D02*
X89950000Y-35050000D01*
X91750000Y-36550000D02*
X91000000Y-36550000D01*
X91760000Y-34290000D02*
X91760000Y-40260000D01*
X91760000Y-40260000D02*
X81640000Y-40260000D01*
X92050000Y-34000000D02*
X92050000Y-35250000D01*
%TO.C,Q2*%
X118002500Y-35170000D02*
X118002500Y-36100000D01*
X118002500Y-38330000D02*
X118002500Y-37400000D01*
X118002500Y-38330000D02*
X119462500Y-38330000D01*
X118802500Y-35170000D02*
X118002500Y-35170000D01*
X118802500Y-35170000D02*
X119602500Y-35170000D01*
X120102500Y-35140000D02*
X119862500Y-34810000D01*
X120342500Y-34810000D01*
X120102500Y-35140000D01*
G36*
X120102500Y-35140000D02*
G01*
X119862500Y-34810000D01*
X120342500Y-34810000D01*
X120102500Y-35140000D01*
G37*
%TO.C,J5*%
X92830000Y-39670000D02*
X92830000Y-34370000D01*
X105640000Y-37020000D02*
X108290000Y-37020000D01*
X105640000Y-39670000D02*
X92830000Y-39670000D01*
X105640000Y-39670000D02*
X105640000Y-37020000D01*
X106910000Y-39670000D02*
X108290000Y-39670000D01*
X108290000Y-34370000D02*
X92830000Y-34370000D01*
X108290000Y-37020000D02*
X108290000Y-34370000D01*
X108290000Y-39670000D02*
X108290000Y-38290000D01*
%TO.C,RN1*%
X81000000Y-74570000D02*
X82000000Y-74570000D01*
X81000000Y-77930000D02*
X82000000Y-77930000D01*
%TO.C,R11*%
X118977500Y-41745276D02*
X118977500Y-42254724D01*
X120022500Y-41745276D02*
X120022500Y-42254724D01*
D15*
%TO.C,U10*%
X84767300Y-60526000D02*
X92211659Y-60526000D01*
X84767300Y-62461661D02*
X84767300Y-60526000D01*
X84767300Y-76274000D02*
X84767300Y-74838339D01*
X88211659Y-76274000D02*
X84767300Y-76274000D01*
X96588341Y-60526000D02*
X100032700Y-60526000D01*
X100032700Y-60526000D02*
X100032700Y-62461661D01*
X100032700Y-65838339D02*
X100032700Y-69461660D01*
X100032700Y-74838339D02*
X100032700Y-76274000D01*
X100032700Y-76274000D02*
X96588341Y-76274000D01*
D16*
%TO.C,G\u002A\u002A\u002A*%
G36*
X98299985Y-52979272D02*
G01*
X98604406Y-52980263D01*
X98840153Y-52982591D01*
X99016152Y-52986765D01*
X99141329Y-52993291D01*
X99224611Y-53002676D01*
X99274925Y-53015428D01*
X99301197Y-53032054D01*
X99312354Y-53053061D01*
X99320290Y-53108156D01*
X99325668Y-53231056D01*
X99324106Y-53380598D01*
X99315047Y-53634176D01*
X98545171Y-53655307D01*
X97775295Y-53676439D01*
X97629326Y-53908884D01*
X97592169Y-53968144D01*
X97474914Y-54158356D01*
X97397019Y-54295054D01*
X97353243Y-54392106D01*
X97338349Y-54463379D01*
X97347096Y-54522741D01*
X97374245Y-54584058D01*
X97431081Y-54672130D01*
X97557089Y-54766825D01*
X97731235Y-54796405D01*
X97860802Y-54796405D01*
X97860802Y-55134508D01*
X97860802Y-55472612D01*
X97702317Y-55470757D01*
X97481716Y-55441919D01*
X97232846Y-55340163D01*
X97019916Y-55175773D01*
X96853536Y-54959920D01*
X96744317Y-54703778D01*
X96702871Y-54418516D01*
X96704157Y-54313253D01*
X96721989Y-54193080D01*
X96769222Y-54079746D01*
X96857552Y-53936824D01*
X96937098Y-53814038D01*
X96993883Y-53720687D01*
X97015545Y-53677089D01*
X97014721Y-53674755D01*
X96968166Y-53660946D01*
X96872146Y-53655307D01*
X96850680Y-53654560D01*
X96744223Y-53615240D01*
X96684951Y-53513785D01*
X96671838Y-53346871D01*
X96703856Y-53111172D01*
X96730270Y-52979101D01*
X98010907Y-52979101D01*
X98299985Y-52979272D01*
G37*
G36*
X97315489Y-56635626D02*
G01*
X97315115Y-56649485D01*
X97310378Y-56832509D01*
X97316173Y-56960870D01*
X97344821Y-57044230D01*
X97408644Y-57092248D01*
X97519965Y-57114587D01*
X97691103Y-57120905D01*
X97934381Y-57120865D01*
X97965440Y-57120935D01*
X98191818Y-57125490D01*
X98399126Y-57136114D01*
X98565551Y-57151355D01*
X98669281Y-57169763D01*
X98812698Y-57230653D01*
X99015368Y-57391029D01*
X99189446Y-57629235D01*
X99203022Y-57653087D01*
X99246590Y-57739338D01*
X99273586Y-57823940D01*
X99287237Y-57928418D01*
X99290766Y-58074295D01*
X99287398Y-58283094D01*
X99276609Y-58747986D01*
X98991335Y-58760483D01*
X98706060Y-58772979D01*
X98706060Y-58434934D01*
X98703346Y-58284515D01*
X98682101Y-58084567D01*
X98630664Y-57941474D01*
X98538318Y-57846094D01*
X98394341Y-57789285D01*
X98188015Y-57761903D01*
X97908621Y-57754808D01*
X97753612Y-57756220D01*
X97578177Y-57761572D01*
X97446210Y-57769983D01*
X97378236Y-57780461D01*
X97355671Y-57795729D01*
X97333486Y-57841735D01*
X97319959Y-57929577D01*
X97313216Y-58073467D01*
X97311385Y-58287616D01*
X97311385Y-58769117D01*
X97022002Y-58769117D01*
X96732619Y-58769117D01*
X96705577Y-58296492D01*
X96700269Y-58212233D01*
X96679909Y-57993455D01*
X96654652Y-57850782D01*
X96625160Y-57788385D01*
X96576933Y-57774172D01*
X96463039Y-57763834D01*
X96318207Y-57764421D01*
X96064629Y-57775939D01*
X96052286Y-57448402D01*
X96039942Y-57120865D01*
X96369258Y-57120923D01*
X96698573Y-57120981D01*
X96698573Y-56708860D01*
X96698573Y-56296738D01*
X97011510Y-56296738D01*
X97324447Y-56296738D01*
X97315489Y-56635626D01*
G37*
G36*
X99222993Y-40429389D02*
G01*
X99235726Y-40486926D01*
X99246041Y-40609773D01*
X99252954Y-40782421D01*
X99255478Y-40989359D01*
X99255514Y-41097498D01*
X99253105Y-41298522D01*
X99240726Y-41451882D01*
X99210376Y-41575775D01*
X99154054Y-41688395D01*
X99063760Y-41807938D01*
X98931492Y-41952599D01*
X98749249Y-42140574D01*
X98452483Y-42445538D01*
X98453871Y-43031704D01*
X98455259Y-43617870D01*
X98823672Y-43225845D01*
X98842388Y-43205973D01*
X98981821Y-43060819D01*
X99099830Y-42942807D01*
X99184466Y-42863614D01*
X99223781Y-42834913D01*
X99228027Y-42840418D01*
X99238832Y-42907294D01*
X99247544Y-43038139D01*
X99253361Y-43217843D01*
X99255478Y-43431292D01*
X99255478Y-44026578D01*
X98854731Y-44435036D01*
X98453985Y-44843493D01*
X98453234Y-45149899D01*
X98452483Y-45456305D01*
X98721975Y-45456305D01*
X98991468Y-45456305D01*
X99395135Y-45033677D01*
X99798802Y-44611048D01*
X100377047Y-44611048D01*
X100955291Y-44611048D01*
X100565628Y-45033677D01*
X100175964Y-45456305D01*
X100726266Y-45456305D01*
X101276567Y-45456305D01*
X101666547Y-45033677D01*
X102056526Y-44611048D01*
X102647196Y-44611048D01*
X103237866Y-44611048D01*
X102673045Y-45206676D01*
X102504599Y-45384752D01*
X102308335Y-45593232D01*
X102125828Y-45788085D01*
X101971926Y-45953453D01*
X101861477Y-46073477D01*
X101614730Y-46344649D01*
X99621543Y-46333672D01*
X97628357Y-46322695D01*
X97619321Y-44209550D01*
X97610286Y-42096405D01*
X97991925Y-41694908D01*
X98152990Y-41525012D01*
X98366680Y-41298738D01*
X98584734Y-41067097D01*
X98778752Y-40860216D01*
X98829625Y-40806125D01*
X98972996Y-40657041D01*
X99093390Y-40536707D01*
X99179422Y-40456306D01*
X99219709Y-40427021D01*
X99222993Y-40429389D01*
G37*
G36*
X97961468Y-47155708D02*
G01*
X98548156Y-47167953D01*
X98162217Y-47575647D01*
X98128569Y-47611248D01*
X97990552Y-47758555D01*
X97878668Y-47880004D01*
X97803657Y-47963832D01*
X97776263Y-47998276D01*
X97777195Y-47999144D01*
X97828060Y-48003941D01*
X97945228Y-48006811D01*
X98112860Y-48007530D01*
X98315115Y-48005874D01*
X98853980Y-47998537D01*
X99262853Y-47572679D01*
X99671725Y-47146821D01*
X100224334Y-47146821D01*
X100267668Y-47146901D01*
X100467006Y-47149491D01*
X100628762Y-47155187D01*
X100737289Y-47163249D01*
X100776942Y-47172939D01*
X100776879Y-47174202D01*
X100761143Y-47206112D01*
X100714426Y-47267252D01*
X100632024Y-47362806D01*
X100509234Y-47497957D01*
X100341353Y-47677889D01*
X100123677Y-47907785D01*
X99851503Y-48192828D01*
X99193905Y-48879600D01*
X98049339Y-48879600D01*
X96904772Y-48879600D01*
X96701660Y-49101480D01*
X96697306Y-49106233D01*
X96591489Y-49220928D01*
X96442575Y-49381309D01*
X96264610Y-49572344D01*
X96071642Y-49779005D01*
X95877718Y-49986263D01*
X95696886Y-50179087D01*
X95543193Y-50342448D01*
X95430686Y-50461318D01*
X95247678Y-50653656D01*
X94977739Y-50937779D01*
X94699496Y-51231075D01*
X94420342Y-51525716D01*
X94147671Y-51813878D01*
X93888877Y-52087734D01*
X93651354Y-52339460D01*
X93442496Y-52561228D01*
X93269696Y-52745214D01*
X93140349Y-52883591D01*
X93061847Y-52968535D01*
X92898390Y-53148152D01*
X92336668Y-53148152D01*
X92285580Y-53148044D01*
X92085456Y-53145377D01*
X91923296Y-53139672D01*
X91814620Y-53131651D01*
X91774946Y-53122035D01*
X91780462Y-53105750D01*
X91810181Y-53061845D01*
X91869921Y-52989087D01*
X91964493Y-52882176D01*
X92098707Y-52735816D01*
X92277373Y-52544707D01*
X92505302Y-52303552D01*
X92787303Y-52007054D01*
X92911421Y-51876718D01*
X93142320Y-51633749D01*
X93368842Y-51394803D01*
X93577484Y-51174152D01*
X93754738Y-50986069D01*
X93887102Y-50844825D01*
X93996233Y-50728052D01*
X94198022Y-50513109D01*
X94404095Y-50294570D01*
X94583575Y-50105224D01*
X94781177Y-49897532D01*
X95234376Y-49420863D01*
X95648579Y-48984727D01*
X96021358Y-48591694D01*
X96350284Y-48244332D01*
X96632928Y-47945210D01*
X96866864Y-47696896D01*
X97049660Y-47501960D01*
X97178890Y-47362971D01*
X97252125Y-47282496D01*
X97374779Y-47143463D01*
X97961468Y-47155708D01*
G37*
G36*
X96824657Y-42968376D02*
G01*
X96833254Y-43035405D01*
X96840184Y-43166373D01*
X96844809Y-43346228D01*
X96846493Y-43559917D01*
X96846493Y-44157040D01*
X96476693Y-44542141D01*
X96461593Y-44557850D01*
X96320433Y-44703186D01*
X96200835Y-44823716D01*
X96115017Y-44907279D01*
X96075195Y-44941718D01*
X96070946Y-44949104D01*
X96060341Y-45021000D01*
X96052013Y-45156280D01*
X96046722Y-45339426D01*
X96045225Y-45554919D01*
X96046951Y-46153643D01*
X96417337Y-45762711D01*
X96437052Y-45741936D01*
X96576120Y-45597423D01*
X96692575Y-45479813D01*
X96774718Y-45400725D01*
X96810854Y-45371780D01*
X96814112Y-45377453D01*
X96822878Y-45444704D01*
X96830985Y-45575864D01*
X96837647Y-45755893D01*
X96842079Y-45969747D01*
X96850172Y-46567714D01*
X96435992Y-46994622D01*
X96336338Y-47097522D01*
X96104302Y-47338530D01*
X95855340Y-47599142D01*
X95579353Y-47889988D01*
X95266241Y-48221694D01*
X94905905Y-48604891D01*
X94802070Y-48715396D01*
X94596671Y-48933546D01*
X94369425Y-49174322D01*
X94111217Y-49447367D01*
X93812935Y-49762324D01*
X93465461Y-50128835D01*
X93427916Y-50168432D01*
X93289055Y-50314965D01*
X93106658Y-50507525D01*
X92891405Y-50734835D01*
X92653976Y-50985613D01*
X92405051Y-51248582D01*
X92155312Y-51512462D01*
X91204396Y-52517321D01*
X91183265Y-51934650D01*
X91162134Y-51351979D01*
X91284417Y-51204059D01*
X91315509Y-51168073D01*
X91408960Y-51064645D01*
X91545062Y-50917104D01*
X91713888Y-50736124D01*
X91905508Y-50532378D01*
X92109995Y-50316538D01*
X92192490Y-50229737D01*
X92418477Y-49991528D01*
X92643319Y-49753975D01*
X92852722Y-49532211D01*
X93032392Y-49341366D01*
X93168035Y-49196572D01*
X93309115Y-49045736D01*
X93442258Y-48904210D01*
X93547629Y-48793070D01*
X93610344Y-48728080D01*
X93670737Y-48665813D01*
X93779045Y-48552579D01*
X93923524Y-48400753D01*
X94093184Y-48221953D01*
X94277036Y-48027795D01*
X94464090Y-47829895D01*
X94643356Y-47639871D01*
X94803844Y-47469339D01*
X94934565Y-47329915D01*
X95024529Y-47233217D01*
X95198240Y-47044904D01*
X95199279Y-45838541D01*
X95200318Y-44632179D01*
X95547948Y-44271753D01*
X95571202Y-44247627D01*
X95741431Y-44070411D01*
X95942743Y-43860051D01*
X96151921Y-43640837D01*
X96345748Y-43437060D01*
X96434695Y-43343872D01*
X96581097Y-43192940D01*
X96701351Y-43072099D01*
X96784905Y-42991875D01*
X96821205Y-42962795D01*
X96824657Y-42968376D01*
G37*
G36*
X98719664Y-49701293D02*
G01*
X98913558Y-49787835D01*
X99086211Y-49949091D01*
X99243965Y-50189750D01*
X99261158Y-50233966D01*
X99278626Y-50331140D01*
X99288634Y-50478990D01*
X99291826Y-50688741D01*
X99288848Y-50971613D01*
X99286150Y-51112784D01*
X99280392Y-51330714D01*
X99272137Y-51487235D01*
X99259225Y-51597601D01*
X99239497Y-51677071D01*
X99210793Y-51740899D01*
X99170952Y-51804342D01*
X99045270Y-51946742D01*
X98844478Y-52073170D01*
X98615598Y-52133505D01*
X98377065Y-52123522D01*
X98147313Y-52038995D01*
X98052292Y-51973515D01*
X97934468Y-51840589D01*
X97841062Y-51655990D01*
X97767086Y-51408943D01*
X97707556Y-51088675D01*
X97668848Y-50846710D01*
X97628936Y-50644273D01*
X97590189Y-50506929D01*
X97549668Y-50424519D01*
X97504432Y-50386880D01*
X97432655Y-50380142D01*
X97377969Y-50432646D01*
X97342063Y-50554012D01*
X97321194Y-50751693D01*
X97318921Y-50984933D01*
X97345623Y-51185763D01*
X97400764Y-51322151D01*
X97482243Y-51385829D01*
X97489985Y-51388015D01*
X97529508Y-51411357D01*
X97552191Y-51463498D01*
X97562516Y-51562991D01*
X97564962Y-51728389D01*
X97564555Y-51840429D01*
X97559736Y-51958345D01*
X97544827Y-52020675D01*
X97514157Y-52045104D01*
X97462056Y-52049317D01*
X97326020Y-52031663D01*
X97124306Y-51940922D01*
X96941663Y-51781597D01*
X96791349Y-51563294D01*
X96786779Y-51554592D01*
X96749649Y-51471650D01*
X96725109Y-51380343D01*
X96710744Y-51261643D01*
X96704141Y-51096523D01*
X96702885Y-50865956D01*
X96703398Y-50750884D01*
X96707135Y-50556926D01*
X96716949Y-50417740D01*
X96735858Y-50313056D01*
X96766881Y-50222603D01*
X96813034Y-50126112D01*
X96928033Y-49952507D01*
X97090740Y-49819706D01*
X97100545Y-49814307D01*
X97304729Y-49742622D01*
X97521963Y-49730210D01*
X97730685Y-49772822D01*
X97909333Y-49866205D01*
X98036346Y-50006110D01*
X98095006Y-50130852D01*
X98166117Y-50347588D01*
X98224974Y-50601532D01*
X98264486Y-50865956D01*
X98281946Y-50999690D01*
X98329698Y-51217600D01*
X98392339Y-51373556D01*
X98466083Y-51461917D01*
X98547142Y-51477038D01*
X98631730Y-51413278D01*
X98660757Y-51367719D01*
X98688001Y-51279798D01*
X98702064Y-51146563D01*
X98706060Y-50948551D01*
X98703760Y-50790778D01*
X98688583Y-50591911D01*
X98656469Y-50459539D01*
X98604241Y-50382960D01*
X98528720Y-50351473D01*
X98502361Y-50346669D01*
X98462905Y-50325619D01*
X98439760Y-50274645D01*
X98427077Y-50175548D01*
X98419008Y-50010132D01*
X98406665Y-49682595D01*
X98558046Y-49682595D01*
X98719664Y-49701293D01*
G37*
D14*
%TO.C,C13*%
X105528733Y-57615000D02*
X105821267Y-57615000D01*
X105528733Y-58635000D02*
X105821267Y-58635000D01*
D17*
%TO.C,U9*%
X137000000Y-66750000D02*
X143600000Y-66750000D01*
X143500000Y-56650000D02*
X137100000Y-56650000D01*
D18*
X146650000Y-57250000D02*
G75*
G02*
X146450000Y-57250000I-100000J0D01*
G01*
X146450000Y-57250000D02*
G75*
G02*
X146650000Y-57250000I100000J0D01*
G01*
D15*
%TO.C,J15*%
X148027700Y-53682600D02*
X161972300Y-53682600D01*
X148027700Y-76796600D02*
X148027700Y-53682600D01*
X153126851Y-76796600D02*
X148027700Y-76796600D01*
X158206851Y-76796600D02*
X154303751Y-76796600D01*
X161972300Y-53682600D02*
X161972300Y-76796600D01*
X161972300Y-76796600D02*
X159383751Y-76796600D01*
D19*
X159176301Y-77685600D02*
G75*
G02*
X158414301Y-77685600I-381000J0D01*
G01*
X158414301Y-77685600D02*
G75*
G02*
X159176301Y-77685600I381000J0D01*
G01*
D14*
%TO.C,D9*%
X74015000Y-54265000D02*
X76300000Y-54265000D01*
X74015000Y-55735000D02*
X74015000Y-54265000D01*
X76300000Y-55735000D02*
X74015000Y-55735000D01*
%TO.C,D8*%
X138150000Y-50765000D02*
X140610000Y-50765000D01*
X140610000Y-50765000D02*
X140610000Y-52235000D01*
X140610000Y-52235000D02*
X138150000Y-52235000D01*
%TO.C,D10*%
X74015000Y-56015000D02*
X76300000Y-56015000D01*
X74015000Y-57485000D02*
X74015000Y-56015000D01*
X76300000Y-57485000D02*
X74015000Y-57485000D01*
%TO.C,D11*%
X74015000Y-57765000D02*
X76300000Y-57765000D01*
X74015000Y-59235000D02*
X74015000Y-57765000D01*
X76300000Y-59235000D02*
X74015000Y-59235000D01*
%TO.C,BT1*%
X148280000Y-49100000D02*
G75*
G02*
X141220000Y-49100000I-3530000J0D01*
G01*
X141220000Y-49100000D02*
G75*
G02*
X148280000Y-49100000I3530000J0D01*
G01*
%TO.C,C6*%
X105528733Y-55740000D02*
X105821267Y-55740000D01*
X105528733Y-56760000D02*
X105821267Y-56760000D01*
%TO.C,C7*%
X105528733Y-59490000D02*
X105821267Y-59490000D01*
X105528733Y-60510000D02*
X105821267Y-60510000D01*
D15*
%TO.C,J8*%
X155557453Y-36302300D02*
X155557453Y-42499900D01*
X155557453Y-42499900D02*
X164269653Y-42499900D01*
X164269653Y-36302300D02*
X155557453Y-36302300D01*
X164269653Y-42499900D02*
X164269653Y-36302300D01*
D19*
X151645452Y-43134900D02*
G75*
G02*
X150883452Y-43134900I-381000J0D01*
G01*
X150883452Y-43134900D02*
G75*
G02*
X151645452Y-43134900I381000J0D01*
G01*
D14*
%TO.C,C8*%
X105528733Y-61365000D02*
X105821267Y-61365000D01*
X105528733Y-62385000D02*
X105821267Y-62385000D01*
D17*
%TO.C,LS1*%
X123450000Y-40600000D02*
X123450000Y-36800000D01*
X125800000Y-34450000D02*
X129600000Y-34450000D01*
X129600000Y-42950000D02*
X125800000Y-42950000D01*
X131950000Y-36800000D02*
X131950000Y-40600000D01*
D18*
%TO.C,ANT1*%
X108650000Y-55500000D02*
X108650000Y-74500000D01*
X108650000Y-74500000D02*
X108650000Y-74500000D01*
X111650000Y-52500000D02*
X111650000Y-52500000D01*
X111650000Y-77500000D02*
X130650000Y-77500000D01*
D10*
X123750000Y-78000000D02*
X123750000Y-78000000D01*
X123750000Y-78100000D02*
X123750000Y-78100000D01*
D18*
X130650000Y-52500000D02*
X111650000Y-52500000D01*
X130650000Y-77500000D02*
X130650000Y-77500000D01*
X133650000Y-55500000D02*
X133650000Y-55500000D01*
X133650000Y-65500000D02*
X133650000Y-55500000D01*
X133650000Y-74500000D02*
X133650000Y-65500000D01*
X108650000Y-55500000D02*
G75*
G02*
X111650000Y-52500000I3000000J0D01*
G01*
X111650000Y-77500000D02*
G75*
G02*
X108650000Y-74500000I1J3000001D01*
G01*
D10*
X123750000Y-78000000D02*
G75*
G02*
X123750000Y-78100000I0J-50000D01*
G01*
X123750000Y-78100000D02*
G75*
G02*
X123750000Y-78000000I0J50000D01*
G01*
D18*
X130650000Y-52500000D02*
G75*
G02*
X133650000Y-55500000I0J-3000000D01*
G01*
X133650000Y-74500000D02*
G75*
G02*
X130650000Y-77500000I-3000001J1D01*
G01*
D14*
%TO.C,R39*%
X139204724Y-52777500D02*
X138695276Y-52777500D01*
X139204724Y-53822500D02*
X138695276Y-53822500D01*
%TO.C,C37*%
X138803733Y-54590000D02*
X139096267Y-54590000D01*
X138803733Y-55610000D02*
X139096267Y-55610000D01*
%TD*%
M02*
