%TF.GenerationSoftware,KiCad,Pcbnew,9.0.7*%
%TF.CreationDate,2026-01-13T15:48:48+01:00*%
%TF.ProjectId,TABv1,54414276-312e-46b6-9963-61645f706362,rev?*%
%TF.SameCoordinates,Original*%
%TF.FileFunction,Soldermask,Bot*%
%TF.FilePolarity,Negative*%
%FSLAX46Y46*%
G04 Gerber Fmt 4.6, Leading zero omitted, Abs format (unit mm)*
G04 Created by KiCad (PCBNEW 9.0.7) date 2026-01-13 15:48:48*
%MOMM*%
%LPD*%
G01*
G04 APERTURE LIST*
G04 Aperture macros list*
%AMRoundRect*
0 Rectangle with rounded corners*
0 $1 Rounding radius*
0 $2 $3 $4 $5 $6 $7 $8 $9 X,Y pos of 4 corners*
0 Add a 4 corners polygon primitive as box body*
4,1,4,$2,$3,$4,$5,$6,$7,$8,$9,$2,$3,0*
0 Add four circle primitives for the rounded corners*
1,1,$1+$1,$2,$3*
1,1,$1+$1,$4,$5*
1,1,$1+$1,$6,$7*
1,1,$1+$1,$8,$9*
0 Add four rect primitives between the rounded corners*
20,1,$1+$1,$2,$3,$4,$5,0*
20,1,$1+$1,$4,$5,$6,$7,0*
20,1,$1+$1,$6,$7,$8,$9,0*
20,1,$1+$1,$8,$9,$2,$3,0*%
G04 Aperture macros list end*
%ADD10C,0.000000*%
%ADD11R,2.000000X2.000000*%
%ADD12C,3.200000*%
%ADD13C,1.700000*%
%ADD14R,1.700000X1.700000*%
%ADD15O,1.700000X1.700000*%
%ADD16C,0.650000*%
%ADD17O,2.100000X1.000000*%
%ADD18O,1.800000X1.000000*%
%ADD19RoundRect,0.237500X0.237500X-0.250000X0.237500X0.250000X-0.237500X0.250000X-0.237500X-0.250000X0*%
%ADD20C,1.200000*%
%ADD21RoundRect,0.250000X0.600000X0.725000X-0.600000X0.725000X-0.600000X-0.725000X0.600000X-0.725000X0*%
%ADD22O,1.700000X1.950000*%
%ADD23RoundRect,0.200000X0.750000X0.200000X-0.750000X0.200000X-0.750000X-0.200000X0.750000X-0.200000X0*%
%ADD24R,0.800000X0.500000*%
%ADD25R,0.800000X0.400000*%
%ADD26RoundRect,0.050800X-1.016000X0.508000X-1.016000X-0.508000X1.016000X-0.508000X1.016000X0.508000X0*%
%ADD27RoundRect,0.050800X-2.032000X0.762000X-2.032000X-0.762000X2.032000X-0.762000X2.032000X0.762000X0*%
%ADD28RoundRect,0.050800X-1.143000X1.143000X-1.143000X-1.143000X1.143000X-1.143000X1.143000X1.143000X0*%
%ADD29RoundRect,0.237500X-0.237500X0.250000X-0.237500X-0.250000X0.237500X-0.250000X0.237500X0.250000X0*%
%ADD30R,1.803400X0.711200*%
%ADD31R,0.711200X1.803400*%
%ADD32RoundRect,0.237500X-0.300000X-0.237500X0.300000X-0.237500X0.300000X0.237500X-0.300000X0.237500X0*%
%ADD33R,1.600000X0.900000*%
%ADD34C,1.701800*%
%ADD35RoundRect,0.218750X-0.218750X-0.256250X0.218750X-0.256250X0.218750X0.256250X-0.218750X0.256250X0*%
%ADD36RoundRect,0.237500X0.287500X0.237500X-0.287500X0.237500X-0.287500X-0.237500X0.287500X-0.237500X0*%
%ADD37R,0.800000X2.000000*%
%ADD38C,1.752600*%
%ADD39RoundRect,0.102000X-1.250000X-1.250000X1.250000X-1.250000X1.250000X1.250000X-1.250000X1.250000X0*%
%ADD40C,2.500000*%
%ADD41RoundRect,0.237500X0.250000X0.237500X-0.250000X0.237500X-0.250000X-0.237500X0.250000X-0.237500X0*%
G04 APERTURE END LIST*
D10*
%TO.C,J4*%
G36*
X76050800Y-66252600D02*
G01*
X73714000Y-66252600D01*
X73714000Y-65338200D01*
X76050800Y-65338200D01*
X76050800Y-66252600D01*
G37*
G36*
X76050800Y-63461800D02*
G01*
X73714000Y-63461800D01*
X73714000Y-62547400D01*
X76050800Y-62547400D01*
X76050800Y-63461800D01*
G37*
%TD*%
D11*
%TO.C,TP4*%
X76800000Y-69600000D03*
%TD*%
%TO.C,TP3*%
X79500000Y-69600000D03*
%TD*%
%TO.C,TP2*%
X74100000Y-69600000D03*
%TD*%
D12*
%TO.C,H1*%
X138750000Y-37750000D03*
%TD*%
%TO.C,H4*%
X138500000Y-74000000D03*
%TD*%
D13*
%TO.C,J9*%
X152920000Y-45960000D03*
X155460000Y-45960000D03*
X152920000Y-48500000D03*
X155460000Y-48500000D03*
D14*
X152920000Y-51040000D03*
X155460000Y-51040000D03*
%TD*%
%TO.C,J6*%
X105900000Y-76380000D03*
D15*
X105900000Y-73840000D03*
X105900000Y-71300000D03*
%TD*%
D13*
%TO.C,J10*%
X158000000Y-45960000D03*
X160540000Y-45960000D03*
X158000000Y-48500000D03*
X160540000Y-48500000D03*
D14*
X158000000Y-51040000D03*
X160540000Y-51040000D03*
%TD*%
D12*
%TO.C,H3*%
X77000000Y-74000000D03*
%TD*%
D16*
%TO.C,J1*%
X78115000Y-45810000D03*
X78115000Y-51590000D03*
D17*
X78615000Y-44380000D03*
D18*
X74435000Y-44380000D03*
D17*
X78615000Y-53020000D03*
D18*
X74435000Y-53020000D03*
%TD*%
D12*
%TO.C,H2*%
X77000000Y-38000000D03*
%TD*%
D19*
%TO.C,R10*%
X117500000Y-42912500D03*
X117500000Y-41087500D03*
%TD*%
D20*
%TO.C,J11*%
X90800000Y-38750000D03*
D21*
X89200000Y-36750000D03*
D22*
X86700000Y-36750000D03*
X84200000Y-36750000D03*
%TD*%
D23*
%TO.C,Q2*%
X120262500Y-35800000D03*
X120262500Y-37700000D03*
X117262500Y-36750000D03*
%TD*%
D14*
%TO.C,J5*%
X106910000Y-38290000D03*
D13*
X106910000Y-35750000D03*
X104370000Y-38290000D03*
X104370000Y-35750000D03*
X101830000Y-38290000D03*
X101830000Y-35750000D03*
X99290000Y-38290000D03*
X99290000Y-35750000D03*
X96750000Y-38290000D03*
X96750000Y-35750000D03*
X94210000Y-38290000D03*
X94210000Y-35750000D03*
%TD*%
D24*
%TO.C,RN1*%
X82400000Y-75050000D03*
D25*
X82400000Y-75850000D03*
X82400000Y-76650000D03*
D24*
X82400000Y-77450000D03*
X80600000Y-77450000D03*
D25*
X80600000Y-76650000D03*
X80600000Y-75850000D03*
D24*
X80600000Y-75050000D03*
%TD*%
D26*
%TO.C,J4*%
X75873000Y-64400000D03*
D27*
X74857000Y-61860000D03*
X74857000Y-66940000D03*
D28*
X74882400Y-62291800D03*
X74882400Y-66508200D03*
%TD*%
D29*
%TO.C,R11*%
X119500000Y-41087500D03*
X119500000Y-42912500D03*
%TD*%
D30*
%TO.C,U10*%
X85000000Y-74149999D03*
X85000000Y-73150001D03*
X85000000Y-72150001D03*
X85000000Y-71150000D03*
X85000000Y-70150000D03*
X85000000Y-69149999D03*
X85000000Y-68150001D03*
X85000000Y-67150000D03*
X85000000Y-66150000D03*
X85000000Y-65149999D03*
X85000000Y-64149999D03*
X85000000Y-63150001D03*
D31*
X92899999Y-60750000D03*
X93900000Y-60750000D03*
X94900000Y-60750000D03*
X95900001Y-60750000D03*
D30*
X99800000Y-63150001D03*
X99800000Y-64149999D03*
X99800000Y-65149999D03*
X99800000Y-70150000D03*
X99800000Y-71150000D03*
X99800000Y-72150001D03*
X99800000Y-73149999D03*
X99800000Y-74149999D03*
D31*
X95900001Y-76050000D03*
X94900000Y-76050000D03*
X93900000Y-76050000D03*
X92899999Y-76050000D03*
X91900001Y-76050000D03*
X90900000Y-76050000D03*
X89900000Y-76050000D03*
X88899999Y-76050000D03*
%TD*%
D32*
%TO.C,C13*%
X104812500Y-58125000D03*
X106537500Y-58125000D03*
%TD*%
D33*
%TO.C,U9*%
X144900000Y-57300000D03*
X144900000Y-58400000D03*
X144900000Y-59500000D03*
X144900000Y-60600000D03*
X144900000Y-61700000D03*
X144900000Y-62800000D03*
X144900000Y-63900000D03*
X144900000Y-65000000D03*
X144900000Y-66100000D03*
X135700000Y-66100000D03*
X135700000Y-65000000D03*
X135700000Y-63900000D03*
X135700000Y-62800000D03*
X135700000Y-61700000D03*
X135700000Y-60600000D03*
X135700000Y-59500000D03*
X135700000Y-58400000D03*
X135700000Y-57300000D03*
%TD*%
D34*
%TO.C,J15*%
X158795301Y-75769599D03*
X158795301Y-73229599D03*
X158795301Y-70689599D03*
X158795301Y-68149599D03*
X158795301Y-65609599D03*
X158795301Y-63069599D03*
X158795301Y-60529599D03*
X158795301Y-57989599D03*
X153715301Y-75769599D03*
X153715301Y-73229599D03*
X153715301Y-70689599D03*
X153715301Y-68149599D03*
X153715301Y-65609599D03*
X153715301Y-63069599D03*
X153715301Y-60529599D03*
X153715301Y-57989599D03*
%TD*%
D35*
%TO.C,D9*%
X74712500Y-55000000D03*
X76287500Y-55000000D03*
%TD*%
D36*
%TO.C,D8*%
X139825000Y-51500000D03*
X138075000Y-51500000D03*
%TD*%
D35*
%TO.C,D10*%
X74712500Y-56750000D03*
X76287500Y-56750000D03*
%TD*%
%TO.C,D11*%
X74712500Y-58500000D03*
X76287500Y-58500000D03*
%TD*%
D37*
%TO.C,BT1*%
X144000000Y-54100000D03*
X145500000Y-54100000D03*
%TD*%
D32*
%TO.C,C6*%
X104812500Y-56250000D03*
X106537500Y-56250000D03*
%TD*%
%TO.C,C7*%
X104812500Y-60000000D03*
X106537500Y-60000000D03*
%TD*%
D38*
%TO.C,J8*%
X151264452Y-40651100D03*
X151264452Y-38151100D03*
X153764452Y-40651100D03*
X153764452Y-38151100D03*
%TD*%
D32*
%TO.C,C8*%
X104812500Y-61875000D03*
X106537500Y-61875000D03*
%TD*%
D39*
%TO.C,LS1*%
X131200000Y-42200000D03*
X131200000Y-35200000D03*
X124200000Y-35200000D03*
X124200000Y-42200000D03*
%TD*%
D40*
%TO.C,ANT1*%
X123750000Y-65000000D03*
%TD*%
D41*
%TO.C,R39*%
X139862500Y-53300000D03*
X138037500Y-53300000D03*
%TD*%
D32*
%TO.C,C37*%
X138087500Y-55100000D03*
X139812500Y-55100000D03*
%TD*%
M02*
