M48
; DRILL file {KiCad 9.0.7} date 2026-01-13T15:48:41+0100
; FORMAT={-:-/ absolute / metric / decimal}
; #@! TF.CreationDate,2026-01-13T15:48:41+01:00
; #@! TF.GenerationSoftware,Kicad,Pcbnew,9.0.7
; #@! TF.FileFunction,Plated,1,4,PTH
FMAT,2
METRIC
; #@! TA.AperFunction,Plated,PTH,ViaDrill
T1C0.250
; #@! TA.AperFunction,Plated,PTH,ViaDrill
T2C0.300
; #@! TA.AperFunction,Plated,PTH,ViaDrill
T3C0.350
; #@! TA.AperFunction,Plated,PTH,ViaDrill
T4C0.400
; #@! TA.AperFunction,Plated,PTH,ViaDrill
T5C0.500
; #@! TA.AperFunction,Plated,PTH,ComponentDrill
T6C0.600
; #@! TA.AperFunction,Plated,PTH,ComponentDrill
T7C0.950
; #@! TA.AperFunction,Plated,PTH,ComponentDrill
T8C1.000
; #@! TA.AperFunction,Plated,PTH,ComponentDrill
T9C1.194
; #@! TA.AperFunction,Plated,PTH,ComponentDrill
T10C1.200
; #@! TA.AperFunction,Plated,PTH,ComponentDrill
T11C1.245
%
G90
G05
T1
X74.1Y-69.6
X74.857Y-61.86
X74.857Y-66.94
X76.25Y-55.0
X76.25Y-56.75
X76.25Y-58.5
X76.3Y-63.2
X76.3Y-65.6
X77.2Y-63.6
X77.2Y-65.2
X77.5Y-68.0
X78.5Y-63.6
X78.5Y-65.2
X79.5Y-68.0
X79.8Y-63.6
X79.8Y-65.2
X80.0Y-75.0
X80.0Y-75.75
X80.0Y-76.5
X80.6Y-51.9
X80.7Y-43.7
X80.8Y-62.6
X81.0Y-63.6
X81.0Y-65.2
X81.049Y-68.3
X81.499Y-72.2
X81.7Y-70.1
X82.05Y-62.05
X82.15Y-55.7
X82.15Y-57.75
X82.18Y-67.91
X82.206Y-70.75
X82.7Y-68.3
X83.35Y-57.4
X83.35Y-58.924
X83.4Y-61.0
X83.4Y-68.35
X83.5Y-45.0
X83.737Y-56.1
X83.775Y-54.5
X83.95Y-52.912
X84.11Y-77.186
X84.8Y-45.0
X85.0Y-64.15
X85.15Y-61.875
X85.212Y-50.812
X85.48Y-56.1
X85.5Y-54.5
X85.5Y-59.299
X86.1Y-44.8
X86.576Y-55.724
X86.6Y-65.4
X86.6Y-71.3
X86.625Y-70.587
X86.7Y-45.8
X86.8Y-58.1
X86.875Y-61.875
X87.112Y-68.4
X87.152Y-56.901
X87.455Y-63.802
X87.5Y-52.9
X87.5Y-75.5
X87.7Y-63.2
X87.75Y-76.75
X87.851Y-58.8
X88.1Y-51.4
X88.125Y-67.7
X88.125Y-70.787
X88.199Y-71.9
X88.612Y-68.4
X88.625Y-40.425
X88.7Y-54.5
X88.75Y-74.25
X88.762Y-64.762
X89.0Y-49.9
X89.3Y-53.5
X89.6Y-66.73
X90.2Y-69.587
X90.2Y-71.0
X90.5Y-47.1
X90.75Y-48.7
X90.9Y-45.35
X91.0Y-65.7
X91.3Y-51.9
X91.325Y-68.2
X91.5Y-71.0
X91.509Y-49.7
X91.74Y-65.66
X92.05Y-69.1
X92.1Y-53.574
X92.2Y-48.4
X92.375Y-65.832
X92.801Y-49.5
X92.9Y-76.05
X92.9Y-71.0
X93.212Y-66.537
X93.612Y-67.6
X93.8Y-50.4
X93.85Y-71.0
X94.1Y-68.426
X94.6Y-49.1
X94.7Y-59.0
X95.081Y-67.83
X95.288Y-50.125
X95.477Y-71.123
X95.95Y-74.1
X96.1Y-51.1
X96.1Y-59.0
X96.15Y-73.15
X96.248Y-68.552
X96.75Y-71.65
X96.975Y-43.2
X97.356Y-76.062
X97.6Y-44.4
X97.84Y-50.98
X97.938Y-68.6
X98.25Y-43.25
X98.307Y-70.793
X98.526Y-66.585
X98.563Y-51.088
X98.6Y-40.3
X99.2Y-44.4
X99.4Y-77.1
X99.975Y-74.125
X100.3Y-51.1
X100.7Y-68.6
X101.3Y-48.688
X101.3Y-73.15
X101.4Y-64.4
X101.488Y-47.486
X101.5Y-50.2
X101.95Y-68.837
X102.0Y-56.0
X102.2Y-55.2
X102.25Y-66.8
X102.4Y-47.486
X102.44Y-64.69
X102.5Y-56.6
X102.85Y-68.85
X102.85Y-70.213
X103.4Y-43.1
X103.437Y-41.088
X103.57Y-64.32
X103.6Y-50.8
X103.886Y-48.087
X104.5Y-50.5
X104.6Y-41.7
X104.737Y-64.177
X104.812Y-56.25
X104.9Y-45.5
X105.399Y-50.565
X105.5Y-42.6
X105.85Y-44.699
X105.999Y-49.25
X106.318Y-59.025
X106.537Y-60.0
X106.6Y-48.95
X107.2Y-48.7
X107.8Y-48.3
X108.0Y-69.0
X108.0Y-73.0
X108.0Y-77.25
X108.17Y-64.501
X108.525Y-60.375
X108.676Y-47.576
X109.0Y-56.0
X109.0Y-58.5
X109.3Y-46.5
X109.312Y-52.5
X109.5Y-40.55
X109.5Y-67.5
X109.637Y-71.15
X109.8Y-42.0
X110.021Y-52.481
X110.412Y-35.65
X110.475Y-38.475
X110.5Y-55.0
X110.5Y-74.35
X110.731Y-52.458
X110.75Y-72.25
X111.0Y-57.0
X111.0Y-60.0
X111.0Y-64.5
X111.162Y-77.55
X111.496Y-52.487
X111.5Y-44.9
X112.3Y-45.9
X112.4Y-47.026
X112.5Y-58.5
X112.95Y-70.662
X113.25Y-75.0
X113.5Y-54.5
X113.7Y-45.4
X114.0Y-57.0
X114.0Y-60.0
X114.0Y-64.5
X114.0Y-72.25
X114.0Y-76.5
X114.1Y-49.7
X114.25Y-73.75
X114.6Y-39.8
X114.6Y-41.1
X115.05Y-35.65
X115.3Y-46.9
X115.5Y-55.0
X115.5Y-58.5
X115.5Y-67.5
X115.75Y-77.0
X117.0Y-57.0
X117.0Y-60.0
X117.0Y-64.5
X117.5Y-43.999
X117.5Y-77.0
X118.25Y-72.25
X118.5Y-58.5
X118.5Y-66.0
X118.5Y-69.0
X119.25Y-77.0
X119.476Y-39.9
X120.0Y-57.0
X120.0Y-60.0
X120.0Y-64.5
X120.0Y-67.5
X120.0Y-70.5
X120.0Y-73.5
X121.25Y-76.5
X121.5Y-58.5
X121.5Y-66.0
X121.5Y-69.0
X121.5Y-72.0
X121.5Y-75.0
X121.9Y-42.2
X123.0Y-60.0
X123.0Y-67.5
X123.0Y-70.5
X123.0Y-73.5
X123.0Y-75.75
X123.682Y-37.082
X124.5Y-58.5
X124.5Y-69.0
X124.5Y-72.0
X124.5Y-75.0
X124.5Y-77.25
X126.0Y-60.0
X126.0Y-67.5
X126.0Y-70.5
X126.0Y-73.5
X126.0Y-76.5
X126.1Y-64.1
X126.1Y-65.9
X126.2Y-34.6
X127.5Y-54.0
X127.5Y-58.5
X127.5Y-69.0
X127.5Y-72.0
X127.5Y-75.0
X127.6Y-64.1
X127.6Y-65.9
X128.4Y-46.9
X129.0Y-41.3
X129.0Y-60.0
X129.0Y-67.5
X129.0Y-70.5
X129.0Y-73.5
X129.0Y-76.5
X129.1Y-64.1
X129.1Y-65.9
X130.5Y-40.1
X130.5Y-58.5
X130.5Y-69.0
X130.5Y-72.0
X130.5Y-75.0
X130.6Y-64.1
X130.6Y-65.9
X130.7Y-37.1
X131.0Y-46.2
X131.7Y-48.4
X132.0Y-54.25
X132.0Y-67.5
X132.0Y-70.5
X132.0Y-73.5
X132.0Y-76.5
X132.029Y-60.829
X132.1Y-64.1
X132.1Y-65.9
X132.3Y-45.8
X132.675Y-58.235
X133.0Y-63.2
X133.046Y-61.296
X133.5Y-69.0
X133.5Y-72.0
X133.5Y-75.0
X133.6Y-64.1
X133.6Y-65.9
X133.714Y-45.4
X133.875Y-34.6
X134.2Y-60.112
X135.2Y-38.3
X135.75Y-39.9
X137.299Y-61.951
X139.1Y-41.9
X139.9Y-57.25
X140.5Y-41.9
X140.5Y-46.438
X140.5Y-48.162
X140.9Y-50.6
X141.75Y-61.75
X142.2Y-51.9
X143.3Y-62.1
X143.55Y-56.3
X143.637Y-42.05
X144.525Y-49.037
X146.5Y-60.7
X146.767Y-45.333
X148.2Y-36.8
X149.3Y-44.8
T2
X74.712Y-55.0
X74.712Y-56.75
X74.712Y-58.5
T3
X137.25Y-67.406
X140.15Y-61.7
X141.425Y-70.825
X142.85Y-57.35
X142.9Y-64.244
X143.25Y-68.75
X146.3Y-74.1
X146.48Y-66.65
X146.512Y-58.031
X150.117Y-56.219
X150.122Y-77.34
X151.728Y-64.293
X151.8Y-71.6
T4
X80.5Y-46.3
X148.2Y-41.0
T5
X136.7Y-53.7
T7
X84.2Y-36.75
X86.7Y-36.75
X89.2Y-36.75
T8
X94.21Y-35.75
X94.21Y-38.29
X96.75Y-35.75
X96.75Y-38.29
X99.29Y-35.75
X99.29Y-38.29
X101.83Y-35.75
X101.83Y-38.29
X104.37Y-35.75
X104.37Y-38.29
X105.9Y-71.3
X105.9Y-73.84
X105.9Y-76.38
X106.91Y-35.75
X106.91Y-38.29
X152.92Y-45.96
X152.92Y-48.5
X152.92Y-51.04
X155.46Y-45.96
X155.46Y-48.5
X155.46Y-51.04
X158.0Y-45.96
X158.0Y-48.5
X158.0Y-51.04
X160.54Y-45.96
X160.54Y-48.5
X160.54Y-51.04
T9
X153.715Y-57.99
X153.715Y-60.53
X153.715Y-63.07
X153.715Y-65.61
X153.715Y-68.15
X153.715Y-70.69
X153.715Y-73.23
X153.715Y-75.77
X158.795Y-57.99
X158.795Y-60.53
X158.795Y-63.07
X158.795Y-65.61
X158.795Y-68.15
X158.795Y-70.69
X158.795Y-73.23
X158.795Y-75.77
T10
X123.75Y-65.0
T11
X151.264Y-38.151
X151.264Y-40.651
X153.764Y-38.151
X153.764Y-40.651
T6
G00X74.835Y-44.38
M15
G01X74.035Y-44.38
M16
G05
G00X74.835Y-53.02
M15
G01X74.035Y-53.02
M16
G05
G00X79.165Y-44.38
M15
G01X78.065Y-44.38
M16
G05
G00X79.165Y-53.02
M15
G01X78.065Y-53.02
M16
G05
M30
