%TF.GenerationSoftware,KiCad,Pcbnew,9.0.7*%
%TF.CreationDate,2026-01-13T15:48:45+01:00*%
%TF.ProjectId,TABv1,54414276-312e-46b6-9963-61645f706362,rev?*%
%TF.SameCoordinates,Original*%
%TF.FileFunction,Copper,L1,Top*%
%TF.FilePolarity,Positive*%
%FSLAX46Y46*%
G04 Gerber Fmt 4.6, Leading zero omitted, Abs format (unit mm)*
G04 Created by KiCad (PCBNEW 9.0.7) date 2026-01-13 15:48:45*
%MOMM*%
%LPD*%
G01*
G04 APERTURE LIST*
G04 Aperture macros list*
%AMRoundRect*
0 Rectangle with rounded corners*
0 $1 Rounding radius*
0 $2 $3 $4 $5 $6 $7 $8 $9 X,Y pos of 4 corners*
0 Add a 4 corners polygon primitive as box body*
4,1,4,$2,$3,$4,$5,$6,$7,$8,$9,$2,$3,0*
0 Add four circle primitives for the rounded corners*
1,1,$1+$1,$2,$3*
1,1,$1+$1,$4,$5*
1,1,$1+$1,$6,$7*
1,1,$1+$1,$8,$9*
0 Add four rect primitives between the rounded corners*
20,1,$1+$1,$2,$3,$4,$5,0*
20,1,$1+$1,$4,$5,$6,$7,0*
20,1,$1+$1,$6,$7,$8,$9,0*
20,1,$1+$1,$8,$9,$2,$3,0*%
%AMRotRect*
0 Rectangle, with rotation*
0 The origin of the aperture is its center*
0 $1 length*
0 $2 width*
0 $3 Rotation angle, in degrees counterclockwise*
0 Add horizontal line*
21,1,$1,$2,0,0,$3*%
G04 Aperture macros list end*
%TA.AperFunction,Conductor*%
%ADD10C,0.200000*%
%TD*%
%TA.AperFunction,SMDPad,CuDef*%
%ADD11R,2.000000X2.000000*%
%TD*%
%TA.AperFunction,SMDPad,CuDef*%
%ADD12R,0.250000X0.600000*%
%TD*%
%TA.AperFunction,SMDPad,CuDef*%
%ADD13R,0.600000X0.250000*%
%TD*%
%TA.AperFunction,SMDPad,CuDef*%
%ADD14R,0.250000X0.250000*%
%TD*%
%TA.AperFunction,SMDPad,CuDef*%
%ADD15R,0.250000X1.350000*%
%TD*%
%TA.AperFunction,SMDPad,CuDef*%
%ADD16R,0.250000X1.700000*%
%TD*%
%TA.AperFunction,SMDPad,CuDef*%
%ADD17RoundRect,0.237500X-0.237500X0.250000X-0.237500X-0.250000X0.237500X-0.250000X0.237500X0.250000X0*%
%TD*%
%TA.AperFunction,SMDPad,CuDef*%
%ADD18R,0.800000X0.500000*%
%TD*%
%TA.AperFunction,SMDPad,CuDef*%
%ADD19R,0.800000X0.400000*%
%TD*%
%TA.AperFunction,SMDPad,CuDef*%
%ADD20RoundRect,0.162500X-0.650000X-0.162500X0.650000X-0.162500X0.650000X0.162500X-0.650000X0.162500X0*%
%TD*%
%TA.AperFunction,SMDPad,CuDef*%
%ADD21RotRect,0.254000X0.787400X135.000000*%
%TD*%
%TA.AperFunction,SMDPad,CuDef*%
%ADD22RotRect,0.254000X0.787400X45.000000*%
%TD*%
%TA.AperFunction,SMDPad,CuDef*%
%ADD23RoundRect,0.237500X0.237500X-0.250000X0.237500X0.250000X-0.237500X0.250000X-0.237500X-0.250000X0*%
%TD*%
%TA.AperFunction,SMDPad,CuDef*%
%ADD24R,1.300000X1.050000*%
%TD*%
%TA.AperFunction,ComponentPad*%
%ADD25C,1.700000*%
%TD*%
%TA.AperFunction,ComponentPad*%
%ADD26R,1.700000X1.700000*%
%TD*%
%TA.AperFunction,SMDPad,CuDef*%
%ADD27RoundRect,0.237500X0.300000X0.237500X-0.300000X0.237500X-0.300000X-0.237500X0.300000X-0.237500X0*%
%TD*%
%TA.AperFunction,SMDPad,CuDef*%
%ADD28RoundRect,0.218750X0.256250X-0.218750X0.256250X0.218750X-0.256250X0.218750X-0.256250X-0.218750X0*%
%TD*%
%TA.AperFunction,ComponentPad*%
%ADD29O,1.700000X1.700000*%
%TD*%
%TA.AperFunction,SMDPad,CuDef*%
%ADD30R,0.350000X0.500000*%
%TD*%
%TA.AperFunction,SMDPad,CuDef*%
%ADD31R,0.950000X1.000000*%
%TD*%
%TA.AperFunction,SMDPad,CuDef*%
%ADD32R,0.300000X0.850000*%
%TD*%
%TA.AperFunction,SMDPad,CuDef*%
%ADD33RoundRect,0.237500X-0.250000X-0.237500X0.250000X-0.237500X0.250000X0.237500X-0.250000X0.237500X0*%
%TD*%
%TA.AperFunction,SMDPad,CuDef*%
%ADD34RoundRect,0.237500X-0.237500X0.300000X-0.237500X-0.300000X0.237500X-0.300000X0.237500X0.300000X0*%
%TD*%
%TA.AperFunction,SMDPad,CuDef*%
%ADD35R,0.700000X1.100000*%
%TD*%
%TA.AperFunction,SMDPad,CuDef*%
%ADD36R,0.900000X0.930000*%
%TD*%
%TA.AperFunction,SMDPad,CuDef*%
%ADD37R,1.050000X0.780000*%
%TD*%
%TA.AperFunction,SMDPad,CuDef*%
%ADD38R,0.700000X3.330000*%
%TD*%
%TA.AperFunction,SMDPad,CuDef*%
%ADD39R,0.860000X2.800000*%
%TD*%
%TA.AperFunction,SMDPad,CuDef*%
%ADD40R,1.140000X1.830000*%
%TD*%
%TA.AperFunction,SMDPad,CuDef*%
%ADD41R,0.500000X0.800000*%
%TD*%
%TA.AperFunction,SMDPad,CuDef*%
%ADD42R,0.400000X0.800000*%
%TD*%
%TA.AperFunction,SMDPad,CuDef*%
%ADD43RoundRect,0.237500X-0.300000X-0.237500X0.300000X-0.237500X0.300000X0.237500X-0.300000X0.237500X0*%
%TD*%
%TA.AperFunction,SMDPad,CuDef*%
%ADD44RoundRect,0.150000X-0.825000X-0.150000X0.825000X-0.150000X0.825000X0.150000X-0.825000X0.150000X0*%
%TD*%
%TA.AperFunction,SMDPad,CuDef*%
%ADD45R,1.070000X0.600000*%
%TD*%
%TA.AperFunction,SMDPad,CuDef*%
%ADD46RoundRect,0.200000X0.750000X0.200000X-0.750000X0.200000X-0.750000X-0.200000X0.750000X-0.200000X0*%
%TD*%
%TA.AperFunction,SMDPad,CuDef*%
%ADD47RoundRect,0.180000X-0.770000X-0.420000X0.770000X-0.420000X0.770000X0.420000X-0.770000X0.420000X0*%
%TD*%
%TA.AperFunction,SMDPad,CuDef*%
%ADD48RoundRect,0.050000X-0.350000X-0.050000X0.350000X-0.050000X0.350000X0.050000X-0.350000X0.050000X0*%
%TD*%
%TA.AperFunction,SMDPad,CuDef*%
%ADD49RoundRect,0.050000X-0.050000X-0.350000X0.050000X-0.350000X0.050000X0.350000X-0.050000X0.350000X0*%
%TD*%
%TA.AperFunction,HeatsinkPad*%
%ADD50R,3.400000X3.400000*%
%TD*%
%TA.AperFunction,SMDPad,CuDef*%
%ADD51R,1.016000X1.803400*%
%TD*%
%TA.AperFunction,SMDPad,CuDef*%
%ADD52R,0.385000X0.690000*%
%TD*%
%TA.AperFunction,SMDPad,CuDef*%
%ADD53R,1.035000X0.690000*%
%TD*%
%TA.AperFunction,SMDPad,CuDef*%
%ADD54RoundRect,0.237500X0.237500X-0.300000X0.237500X0.300000X-0.237500X0.300000X-0.237500X-0.300000X0*%
%TD*%
%TA.AperFunction,SMDPad,CuDef*%
%ADD55RoundRect,0.087500X0.125000X0.087500X-0.125000X0.087500X-0.125000X-0.087500X0.125000X-0.087500X0*%
%TD*%
%TA.AperFunction,SMDPad,CuDef*%
%ADD56RoundRect,0.087500X0.087500X0.125000X-0.087500X0.125000X-0.087500X-0.125000X0.087500X-0.125000X0*%
%TD*%
%TA.AperFunction,SMDPad,CuDef*%
%ADD57RoundRect,0.237500X0.250000X0.237500X-0.250000X0.237500X-0.250000X-0.237500X0.250000X-0.237500X0*%
%TD*%
%TA.AperFunction,SMDPad,CuDef*%
%ADD58RoundRect,0.237500X0.044194X0.380070X-0.380070X-0.044194X-0.044194X-0.380070X0.380070X0.044194X0*%
%TD*%
%TA.AperFunction,SMDPad,CuDef*%
%ADD59C,1.000000*%
%TD*%
%TA.AperFunction,SMDPad,CuDef*%
%ADD60R,0.787400X0.254000*%
%TD*%
%TA.AperFunction,SMDPad,CuDef*%
%ADD61R,0.254000X0.787400*%
%TD*%
%TA.AperFunction,SMDPad,CuDef*%
%ADD62R,2.800000X1.350000*%
%TD*%
%TA.AperFunction,SMDPad,CuDef*%
%ADD63R,2.800000X1.500000*%
%TD*%
%TA.AperFunction,SMDPad,CuDef*%
%ADD64R,6.500000X6.000000*%
%TD*%
%TA.AperFunction,SMDPad,CuDef*%
%ADD65R,0.375000X0.350000*%
%TD*%
%TA.AperFunction,SMDPad,CuDef*%
%ADD66R,0.350000X0.375000*%
%TD*%
%TA.AperFunction,SMDPad,CuDef*%
%ADD67RoundRect,0.250001X-0.462499X-0.624999X0.462499X-0.624999X0.462499X0.624999X-0.462499X0.624999X0*%
%TD*%
%TA.AperFunction,SMDPad,CuDef*%
%ADD68RoundRect,0.200000X-0.200000X0.750000X-0.200000X-0.750000X0.200000X-0.750000X0.200000X0.750000X0*%
%TD*%
%TA.AperFunction,SMDPad,CuDef*%
%ADD69RoundRect,0.150000X-0.425000X0.150000X-0.425000X-0.150000X0.425000X-0.150000X0.425000X0.150000X0*%
%TD*%
%TA.AperFunction,SMDPad,CuDef*%
%ADD70RoundRect,0.075000X-0.500000X0.075000X-0.500000X-0.075000X0.500000X-0.075000X0.500000X0.075000X0*%
%TD*%
%TA.AperFunction,HeatsinkPad*%
%ADD71O,2.100000X1.000000*%
%TD*%
%TA.AperFunction,HeatsinkPad*%
%ADD72O,1.800000X1.000000*%
%TD*%
%TA.AperFunction,SMDPad,CuDef*%
%ADD73RoundRect,0.237500X-0.044194X-0.380070X0.380070X0.044194X0.044194X0.380070X-0.380070X-0.044194X0*%
%TD*%
%TA.AperFunction,SMDPad,CuDef*%
%ADD74RoundRect,0.180000X0.770000X0.420000X-0.770000X0.420000X-0.770000X-0.420000X0.770000X-0.420000X0*%
%TD*%
%TA.AperFunction,ComponentPad*%
%ADD75RoundRect,0.250000X0.600000X0.725000X-0.600000X0.725000X-0.600000X-0.725000X0.600000X-0.725000X0*%
%TD*%
%TA.AperFunction,ComponentPad*%
%ADD76O,1.700000X1.950000*%
%TD*%
%TA.AperFunction,SMDPad,CuDef*%
%ADD77R,4.064000X1.524000*%
%TD*%
%TA.AperFunction,ComponentPad*%
%ADD78C,1.701800*%
%TD*%
%TA.AperFunction,ComponentPad*%
%ADD79C,1.752600*%
%TD*%
%TA.AperFunction,ComponentPad*%
%ADD80C,2.500000*%
%TD*%
%TA.AperFunction,ViaPad*%
%ADD81C,0.450000*%
%TD*%
%TA.AperFunction,ViaPad*%
%ADD82C,0.900000*%
%TD*%
%TA.AperFunction,ViaPad*%
%ADD83C,0.650000*%
%TD*%
%TA.AperFunction,ViaPad*%
%ADD84C,1.000000*%
%TD*%
%TA.AperFunction,ViaPad*%
%ADD85C,0.600000*%
%TD*%
%TA.AperFunction,Conductor*%
%ADD86C,0.125000*%
%TD*%
%TA.AperFunction,Conductor*%
%ADD87C,0.400000*%
%TD*%
%TA.AperFunction,Conductor*%
%ADD88C,1.000000*%
%TD*%
%TA.AperFunction,Conductor*%
%ADD89C,0.600000*%
%TD*%
%TA.AperFunction,Conductor*%
%ADD90C,0.350000*%
%TD*%
%TA.AperFunction,Conductor*%
%ADD91C,0.500000*%
%TD*%
G04 APERTURE END LIST*
D10*
%TO.N,/SPI1.TX*%
X82950000Y-60200000D02*
X82750000Y-60400000D01*
X82750000Y-60050000D01*
X82950000Y-60200000D01*
%TA.AperFunction,Conductor*%
G36*
X82950000Y-60200000D02*
G01*
X82750000Y-60400000D01*
X82750000Y-60050000D01*
X82950000Y-60200000D01*
G37*
%TD.AperFunction*%
%TO.N,+3V3*%
X110600000Y-40800000D02*
X110350000Y-40500000D01*
X110800000Y-40500000D01*
X110600000Y-40800000D01*
%TA.AperFunction,Conductor*%
G36*
X110600000Y-40800000D02*
G01*
X110350000Y-40500000D01*
X110800000Y-40500000D01*
X110600000Y-40800000D01*
G37*
%TD.AperFunction*%
%TD*%
D11*
%TO.P,TP7,1,1*%
%TO.N,Net-(U10-PB7{slash}UART1_RX)*%
X79500000Y-69600000D03*
%TD*%
%TO.P,TP6,1,1*%
%TO.N,Net-(U10-PB6{slash}UART1_TX)*%
X76800000Y-69600000D03*
%TD*%
%TO.P,TP5,1,1*%
%TO.N,GND*%
X74100000Y-69600000D03*
%TD*%
D12*
%TO.P,IC1,1,PS/SYNC*%
%TO.N,SYNC*%
X145250000Y-45349000D03*
%TO.P,IC1,2,PG*%
%TO.N,PG*%
X144750000Y-45349000D03*
%TO.P,IC1,3,VAUX*%
%TO.N,Net-(IC1-VAUX)*%
X144250000Y-45349000D03*
%TO.P,IC1,4,GND*%
%TO.N,GND*%
X143750000Y-45349000D03*
D13*
%TO.P,IC1,5,FB*%
%TO.N,Net-(IC1-FB)*%
X143100000Y-45775000D03*
%TO.P,IC1,6,FB2*%
%TO.N,GND*%
X143100000Y-46275000D03*
%TO.P,IC1,7,VOUT_1*%
%TO.N,+3V3*%
X143100000Y-46775000D03*
D14*
X143275000Y-47025000D03*
D13*
%TO.P,IC1,8,VOUT_2*%
X143100000Y-47275000D03*
D15*
%TO.P,IC1,9,L2*%
%TO.N,Net-(IC1-L2)*%
X144000000Y-47275000D03*
D16*
%TO.P,IC1,10,PGND*%
%TO.N,GND*%
X144500000Y-47100000D03*
D15*
%TO.P,IC1,11,L1*%
%TO.N,Net-(IC1-L1)*%
X145000000Y-47275000D03*
D13*
%TO.P,IC1,12,VIN_1*%
%TO.N,Net-(D1-K)*%
X145900000Y-47275000D03*
%TO.P,IC1,13,VIN_2*%
X145900000Y-46775000D03*
D14*
X145725000Y-47025000D03*
D13*
%TO.P,IC1,14,EN*%
%TO.N,SYNC*%
X145900000Y-46275000D03*
%TO.P,IC1,15,VSEL*%
%TO.N,GND*%
X145900000Y-45775000D03*
%TD*%
D17*
%TO.P,R8,1*%
%TO.N,Net-(R8-Pad1)*%
X131500000Y-50587500D03*
%TO.P,R8,2*%
%TO.N,Net-(Q4-Pad1)*%
X131500000Y-52412500D03*
%TD*%
D18*
%TO.P,RN8,1,R1.1*%
%TO.N,/microSD/_DAT1*%
X132200000Y-38300000D03*
D19*
%TO.P,RN8,2,R2.1*%
%TO.N,unconnected-(RN8-R2.1-Pad2)*%
X132200000Y-39100000D03*
%TO.P,RN8,3,R3.1*%
%TO.N,Net-(J7-DAT0)*%
X132200000Y-39900000D03*
D18*
%TO.P,RN8,4,R4.1*%
%TO.N,Net-(J7-CLK)*%
X132200000Y-40700000D03*
%TO.P,RN8,5,R4.2*%
%TO.N,+3V3*%
X134000000Y-40700000D03*
D19*
%TO.P,RN8,6,R3.2*%
X134000000Y-39900000D03*
%TO.P,RN8,7,R2.2*%
%TO.N,unconnected-(RN8-R2.2-Pad7)*%
X134000000Y-39100000D03*
D18*
%TO.P,RN8,8,R1.2*%
%TO.N,+3V3*%
X134000000Y-38300000D03*
%TD*%
D20*
%TO.P,U2,1,~{CS}*%
%TO.N,/SS*%
X100662500Y-40595000D03*
%TO.P,U2,2,DO/IO_{1}*%
%TO.N,/SD1*%
X100662500Y-41865000D03*
%TO.P,U2,3,~{WP}/IO_{2}*%
%TO.N,/SD2*%
X100662500Y-43135000D03*
%TO.P,U2,4,GND*%
%TO.N,GND*%
X100662500Y-44405000D03*
%TO.P,U2,5,DI/IO_{0}*%
%TO.N,/SD0*%
X107837500Y-44405000D03*
%TO.P,U2,6,CLK*%
%TO.N,/SCLK*%
X107837500Y-43135000D03*
%TO.P,U2,7,~{HOLD}/~{RESET}/IO_{3}*%
%TO.N,/SD3*%
X107837500Y-41865000D03*
%TO.P,U2,8,VCC*%
%TO.N,+3V3*%
X107837500Y-40595000D03*
%TD*%
D21*
%TO.P,U4,1,1*%
%TO.N,/SPI1.RX*%
X82272861Y-73566478D03*
%TO.P,U4,2,SDX*%
%TO.N,unconnected-(U4-SDX-Pad2)*%
X82626415Y-73920032D03*
%TO.P,U4,3,3*%
%TO.N,unconnected-(U4-Pad3)*%
X82979968Y-74273585D03*
%TO.P,U4,4,4*%
%TO.N,/IMU45_INT1*%
X83333522Y-74627139D03*
D22*
%TO.P,U4,5,5*%
%TO.N,+3V3*%
X84263651Y-74270756D03*
%TO.P,U4,6,6*%
%TO.N,GND*%
X84617203Y-73917203D03*
%TO.P,U4,7,7*%
X84970756Y-73563651D03*
D21*
%TO.P,U4,8,8*%
%TO.N,+3V3*%
X85327139Y-72633522D03*
%TO.P,U4,9,9*%
%TO.N,/IMU45_INT2*%
X84973585Y-72279968D03*
%TO.P,U4,10,10*%
%TO.N,unconnected-(U4-Pad10)*%
X84620032Y-71926415D03*
%TO.P,U4,11,11*%
%TO.N,unconnected-(U4-Pad11)*%
X84266478Y-71572861D03*
D22*
%TO.P,U4,12,12*%
%TO.N,/IMU45_CS*%
X83336349Y-71929244D03*
%TO.P,U4,13,13*%
%TO.N,/SPI1.CK*%
X82982797Y-72282797D03*
%TO.P,U4,14,14*%
%TO.N,/SPI1.TX*%
X82629244Y-72636349D03*
%TD*%
D23*
%TO.P,R34,1*%
%TO.N,Net-(Q12-G)*%
X150480000Y-65462500D03*
%TO.P,R34,2*%
%TO.N,/Pyro/PYRO_HIGH*%
X150480000Y-63637500D03*
%TD*%
D24*
%TO.P,Y1,1,1*%
%TO.N,Net-(C17-Pad2)*%
X111650000Y-73475000D03*
%TO.P,Y1,2,2*%
%TO.N,GND*%
X109350000Y-73475000D03*
%TO.P,Y1,3,3*%
%TO.N,/XIN*%
X109350000Y-75225000D03*
%TO.P,Y1,4,4*%
%TO.N,GND*%
X111650000Y-75225000D03*
%TD*%
D25*
%TO.P,J9,1,Pin_1*%
%TO.N,/PWM4*%
X152920000Y-45960000D03*
%TO.P,J9,2,Pin_2*%
%TO.N,/PWM3*%
X155460000Y-45960000D03*
%TO.P,J9,3,Pin_3*%
%TO.N,+BATT*%
X152920000Y-48500000D03*
%TO.P,J9,4,Pin_4*%
X155460000Y-48500000D03*
D26*
%TO.P,J9,5,Pin_5*%
%TO.N,GND*%
X152920000Y-51040000D03*
%TO.P,J9,6,Pin_6*%
X155460000Y-51040000D03*
%TD*%
D27*
%TO.P,C27,1*%
%TO.N,GND*%
X91862500Y-76043700D03*
%TO.P,C27,2*%
%TO.N,+3V3*%
X90137500Y-76043700D03*
%TD*%
D28*
%TO.P,D7,1,K*%
%TO.N,GND*%
X115750000Y-77000000D03*
%TO.P,D7,2,A*%
%TO.N,Net-(D7-A)*%
X115750000Y-75425000D03*
%TD*%
D26*
%TO.P,J6,1,Pin_1*%
%TO.N,GND*%
X105900000Y-76380000D03*
D29*
%TO.P,J6,2,Pin_2*%
%TO.N,Net-(J6-Pin_2)*%
X105900000Y-73840000D03*
%TO.P,J6,3,Pin_3*%
%TO.N,Net-(J6-Pin_3)*%
X105900000Y-71300000D03*
%TD*%
D30*
%TO.P,Q13,1,D*%
%TO.N,/Pyro/PYRO4*%
X151429844Y-59824500D03*
%TO.P,Q13,2,D*%
%TO.N,unconnected-(Q13-D-Pad2)*%
X150779844Y-59824500D03*
%TO.P,Q13,3,G*%
%TO.N,Net-(Q13-G)*%
X150129844Y-59824500D03*
%TO.P,Q13,4,S*%
%TO.N,/Pyro/PYRO_HIGH*%
X150129844Y-61824500D03*
%TO.P,Q13,5,D*%
%TO.N,unconnected-(Q13-D-Pad5)*%
X150779844Y-61824500D03*
%TO.P,Q13,6,D*%
%TO.N,unconnected-(Q13-D-Pad6)*%
X151429844Y-61824500D03*
D31*
%TO.P,Q13,7,D*%
%TO.N,unconnected-(Q13-D-Pad7)*%
X151069844Y-60804500D03*
D32*
%TO.P,Q13,8,S*%
%TO.N,unconnected-(Q13-S-Pad8)*%
X150089844Y-60824500D03*
%TD*%
D33*
%TO.P,R35,1*%
%TO.N,/PYRO_FIRE_4*%
X144687500Y-56281406D03*
%TO.P,R35,2*%
%TO.N,Net-(Q9-G)*%
X146512500Y-56281406D03*
%TD*%
D27*
%TO.P,C39,1*%
%TO.N,+3V3*%
X102400000Y-77100000D03*
%TO.P,C39,2*%
%TO.N,GND*%
X100675000Y-77100000D03*
%TD*%
%TO.P,C38,1*%
%TO.N,+3V3*%
X99062500Y-75000000D03*
%TO.P,C38,2*%
%TO.N,GND*%
X97337500Y-75000000D03*
%TD*%
D34*
%TO.P,C35,1*%
%TO.N,+3V3*%
X89000000Y-47137500D03*
%TO.P,C35,2*%
%TO.N,GND*%
X89000000Y-48862500D03*
%TD*%
D33*
%TO.P,R32,1*%
%TO.N,/PYRO_FIRE_3*%
X144887500Y-63700000D03*
%TO.P,R32,2*%
%TO.N,Net-(Q8-G)*%
X146712500Y-63700000D03*
%TD*%
D27*
%TO.P,C16,1*%
%TO.N,GND*%
X111162500Y-77550000D03*
%TO.P,C16,2*%
%TO.N,/XIN*%
X109437500Y-77550000D03*
%TD*%
D35*
%TO.P,J7,1,DAT2*%
%TO.N,/microSD/_DAT2*%
X120382500Y-35635000D03*
%TO.P,J7,2,CD/DAT3*%
%TO.N,/microSD/_DAT3*%
X121482500Y-35635000D03*
%TO.P,J7,3,CMD*%
%TO.N,Net-(J7-CMD)*%
X122582500Y-35635000D03*
%TO.P,J7,4,VDD*%
%TO.N,+3V3*%
X123682500Y-35635000D03*
%TO.P,J7,5,CLK*%
%TO.N,Net-(J7-CLK)*%
X124782500Y-35635000D03*
%TO.P,J7,6,VSS*%
%TO.N,GND*%
X125882500Y-35635000D03*
%TO.P,J7,7,DAT0*%
%TO.N,Net-(J7-DAT0)*%
X126982500Y-35635000D03*
%TO.P,J7,8,DAT1*%
%TO.N,/microSD/_DAT1*%
X128082500Y-35635000D03*
D36*
%TO.P,J7,9,DETECT_LEVER*%
%TO.N,/SD_detect*%
X118592500Y-48100000D03*
D37*
%TO.P,J7,10,DETECT_SWITCH*%
X122857500Y-48175000D03*
D38*
%TO.P,J7,11,11*%
%TO.N,GND*%
X129242500Y-46900000D03*
D39*
%TO.P,J7,12,12*%
X129162500Y-36135000D03*
D40*
%TO.P,J7,13,13*%
X116502500Y-35650000D03*
D38*
%TO.P,J7,14,14*%
X116282500Y-46900000D03*
%TD*%
D41*
%TO.P,RN10,1,R1.1*%
%TO.N,/L_BLUE*%
X117050000Y-69100000D03*
D42*
%TO.P,RN10,2,R2.1*%
%TO.N,/L_GREEN*%
X116250000Y-69100000D03*
%TO.P,RN10,3,R3.1*%
%TO.N,/L_RED*%
X115450000Y-69100000D03*
D41*
%TO.P,RN10,4,R4.1*%
X114650000Y-69100000D03*
%TO.P,RN10,5,R4.2*%
%TO.N,Net-(D7-A)*%
X114650000Y-70900000D03*
D42*
%TO.P,RN10,6,R3.2*%
X115450000Y-70900000D03*
%TO.P,RN10,7,R2.2*%
%TO.N,Net-(D6-A)*%
X116250000Y-70900000D03*
D41*
%TO.P,RN10,8,R1.2*%
%TO.N,Net-(D5-A)*%
X117050000Y-70900000D03*
%TD*%
D43*
%TO.P,C9,1*%
%TO.N,GND*%
X89600000Y-66730000D03*
%TO.P,C9,2*%
%TO.N,+3V3*%
X91325000Y-66730000D03*
%TD*%
%TO.P,C2,1*%
%TO.N,+3V3*%
X98700000Y-50200000D03*
%TO.P,C2,2*%
%TO.N,GND*%
X100425000Y-50200000D03*
%TD*%
D23*
%TO.P,R19,1*%
%TO.N,GND*%
X135900000Y-60112500D03*
%TO.P,R19,2*%
%TO.N,Net-(Q5-G)*%
X135900000Y-58287500D03*
%TD*%
D18*
%TO.P,RN6,1,R1.1*%
%TO.N,Net-(J7-CMD)*%
X113300000Y-40500000D03*
D19*
%TO.P,RN6,2,R2.1*%
%TO.N,unconnected-(RN6-R2.1-Pad2)*%
X113300000Y-39700000D03*
%TO.P,RN6,3,R3.1*%
%TO.N,/microSD/_DAT3*%
X113300000Y-38900000D03*
D18*
%TO.P,RN6,4,R4.1*%
%TO.N,/microSD/_DAT2*%
X113300000Y-38100000D03*
%TO.P,RN6,5,R4.2*%
%TO.N,+3V3*%
X111500000Y-38100000D03*
D19*
%TO.P,RN6,6,R3.2*%
X111500000Y-38900000D03*
%TO.P,RN6,7,R2.2*%
%TO.N,unconnected-(RN6-R2.2-Pad7)*%
X111500000Y-39700000D03*
D18*
%TO.P,RN6,8,R1.2*%
%TO.N,+3V3*%
X111500000Y-40500000D03*
%TD*%
D27*
%TO.P,C3,1*%
%TO.N,GND*%
X104225000Y-53750000D03*
%TO.P,C3,2*%
%TO.N,/AVDD*%
X102500000Y-53750000D03*
%TD*%
D23*
%TO.P,R15,1*%
%TO.N,Net-(Q7-D)*%
X140250000Y-66068750D03*
%TO.P,R15,2*%
%TO.N,Net-(Q11-G)*%
X140250000Y-64243750D03*
%TD*%
D43*
%TO.P,C1,1*%
%TO.N,+1V1*%
X98675000Y-48687500D03*
%TO.P,C1,2*%
%TO.N,GND*%
X100400000Y-48687500D03*
%TD*%
D30*
%TO.P,Q11,1,D*%
%TO.N,/Pyro/PYRO2*%
X142300000Y-67656250D03*
%TO.P,Q11,2,D*%
%TO.N,unconnected-(Q11-D-Pad2)*%
X141650000Y-67656250D03*
%TO.P,Q11,3,G*%
%TO.N,Net-(Q11-G)*%
X141000000Y-67656250D03*
%TO.P,Q11,4,S*%
%TO.N,/Pyro/PYRO_HIGH*%
X141000000Y-69656250D03*
%TO.P,Q11,5,D*%
%TO.N,unconnected-(Q11-D-Pad5)*%
X141650000Y-69656250D03*
%TO.P,Q11,6,D*%
%TO.N,unconnected-(Q11-D-Pad6)*%
X142300000Y-69656250D03*
D31*
%TO.P,Q11,7,D*%
%TO.N,unconnected-(Q11-D-Pad7)*%
X141940000Y-68636250D03*
D32*
%TO.P,Q11,8,S*%
%TO.N,unconnected-(Q11-S-Pad8)*%
X140960000Y-68656250D03*
%TD*%
D44*
%TO.P,U7,1*%
%TO.N,Net-(R8-Pad1)*%
X134025000Y-51095000D03*
%TO.P,U7,2*%
%TO.N,Net-(Q4-Pad1)*%
X134025000Y-52365000D03*
%TO.P,U7,3*%
X134025000Y-53635000D03*
%TO.P,U7,4*%
%TO.N,+BATT*%
X134025000Y-54905000D03*
%TO.P,U7,5*%
%TO.N,N/C*%
X138975000Y-54905000D03*
%TO.P,U7,6*%
%TO.N,Net-(Q4-Pad1)*%
X138975000Y-53635000D03*
%TO.P,U7,7*%
X138975000Y-52365000D03*
%TO.P,U7,8*%
%TO.N,N/C*%
X138975000Y-51095000D03*
%TD*%
D45*
%TO.P,Q4,1,1*%
%TO.N,Net-(Q4-Pad1)*%
X129010000Y-54050000D03*
%TO.P,Q4,2,2*%
%TO.N,Net-(Q1-B)*%
X129010000Y-55950000D03*
%TO.P,Q4,3,3*%
%TO.N,+BATT*%
X131490000Y-55000000D03*
%TD*%
D46*
%TO.P,Q8,1,D*%
%TO.N,Net-(Q8-D)*%
X148111844Y-69104346D03*
%TO.P,Q8,2,G*%
%TO.N,Net-(Q8-G)*%
X148111844Y-67204346D03*
%TO.P,Q8,3,S*%
%TO.N,Net-(Q8-S)*%
X145111844Y-68154346D03*
%TD*%
D28*
%TO.P,D6,1,K*%
%TO.N,GND*%
X117500000Y-77000000D03*
%TO.P,D6,2,A*%
%TO.N,Net-(D6-A)*%
X117500000Y-75425000D03*
%TD*%
D33*
%TO.P,R40,1*%
%TO.N,+3V3*%
X111287500Y-49700000D03*
%TO.P,R40,2*%
%TO.N,/SD_detect*%
X113112500Y-49700000D03*
%TD*%
D25*
%TO.P,J10,1,Pin_1*%
%TO.N,/PWM2*%
X158000000Y-45960000D03*
%TO.P,J10,2,Pin_2*%
%TO.N,/PWM1*%
X160540000Y-45960000D03*
%TO.P,J10,3,Pin_3*%
%TO.N,+BATT*%
X158000000Y-48500000D03*
%TO.P,J10,4,Pin_4*%
X160540000Y-48500000D03*
D26*
%TO.P,J10,5,Pin_5*%
%TO.N,GND*%
X158000000Y-51040000D03*
%TO.P,J10,6,Pin_6*%
X160540000Y-51040000D03*
%TD*%
D23*
%TO.P,R23,1*%
%TO.N,+3V3*%
X148300000Y-44762500D03*
%TO.P,R23,2*%
%TO.N,PG*%
X148300000Y-42937500D03*
%TD*%
%TO.P,R17,1*%
%TO.N,Net-(Q8-D)*%
X148780000Y-65475000D03*
%TO.P,R17,2*%
%TO.N,Net-(Q12-G)*%
X148780000Y-63650000D03*
%TD*%
D33*
%TO.P,R30,1*%
%TO.N,/PYRO_FIRE_2*%
X135837500Y-64156250D03*
%TO.P,R30,2*%
%TO.N,Net-(Q7-G)*%
X137662500Y-64156250D03*
%TD*%
D47*
%TO.P,SW1,1,1*%
%TO.N,GND*%
X88625000Y-41500000D03*
%TO.P,SW1,2,2*%
%TO.N,/QSPI Flash/~{USB_BOOT}*%
X96375000Y-41500000D03*
%TD*%
D23*
%TO.P,R6,1*%
%TO.N,Net-(U1-USB_DM)*%
X95100000Y-47125000D03*
%TO.P,R6,2*%
%TO.N,D-*%
X95100000Y-45300000D03*
%TD*%
D48*
%TO.P,U1,1,GPIO4*%
%TO.N,/SD_DAT0*%
X90550000Y-55800000D03*
%TO.P,U1,2,GPIO5*%
%TO.N,/SD_DAT1*%
X90550000Y-56200000D03*
%TO.P,U1,3,GPIO6*%
%TO.N,/SD_DAT2*%
X90550000Y-56600000D03*
%TO.P,U1,4,GPIO7*%
%TO.N,/SD_DAT3*%
X90550000Y-57000000D03*
%TO.P,U1,5,IOVDD*%
%TO.N,+3V3*%
X90550000Y-57400000D03*
%TO.P,U1,6,GPIO8*%
%TO.N,Net-(J11-Pin_3)*%
X90550000Y-57800000D03*
%TO.P,U1,7,GPIO9*%
%TO.N,Net-(J11-Pin_2)*%
X90550000Y-58200000D03*
%TO.P,U1,8,GPIO10*%
%TO.N,/SD_detect*%
X90550000Y-58600000D03*
%TO.P,U1,9,GPIO11*%
%TO.N,/IMU45_CS*%
X90550000Y-59000000D03*
%TO.P,U1,10,DVDD*%
%TO.N,+1V1*%
X90550000Y-59400000D03*
%TO.P,U1,11,GPIO12*%
%TO.N,/SPI1.RX*%
X90550000Y-59800000D03*
%TO.P,U1,12,GPIO13*%
%TO.N,/MAG_CS*%
X90550000Y-60200000D03*
%TO.P,U1,13,GPIO14*%
%TO.N,/SPI1.CK*%
X90550000Y-60600000D03*
%TO.P,U1,14,GPIO15*%
%TO.N,/SPI1.TX*%
X90550000Y-61000000D03*
%TO.P,U1,15,IOVDD*%
%TO.N,+3V3*%
X90550000Y-61400000D03*
%TO.P,U1,16,GPIO16*%
%TO.N,/RX_GPS*%
X90550000Y-61800000D03*
%TO.P,U1,17,GPIO17*%
%TO.N,/TX_GPS*%
X90550000Y-62200000D03*
%TO.P,U1,18,GPIO18*%
%TO.N,/IMU45_INT1*%
X90550000Y-62600000D03*
%TO.P,U1,19,GPIO19*%
%TO.N,/IMU45_INT2*%
X90550000Y-63000000D03*
%TO.P,U1,20,GPIO20*%
%TO.N,/GPIO20*%
X90550000Y-63400000D03*
D49*
%TO.P,U1,21,GPIO21*%
%TO.N,/IMU_CS*%
X91700000Y-64550000D03*
%TO.P,U1,22,GPIO22*%
%TO.N,/IMU_INT1*%
X92100000Y-64550000D03*
%TO.P,U1,23,GPIO23*%
%TO.N,/IMU_INT2*%
X92500000Y-64550000D03*
%TO.P,U1,24,IOVDD*%
%TO.N,+3V3*%
X92900000Y-64550000D03*
%TO.P,U1,25,GPIO24*%
%TO.N,/PWM1*%
X93300000Y-64550000D03*
%TO.P,U1,26,GPIO25*%
%TO.N,/PWM2*%
X93700000Y-64550000D03*
%TO.P,U1,27,GPIO26*%
%TO.N,/PWM3*%
X94100000Y-64550000D03*
%TO.P,U1,28,GPIO27*%
%TO.N,/PWM4*%
X94500000Y-64550000D03*
%TO.P,U1,29,IOVDD*%
%TO.N,+3V3*%
X94900000Y-64550000D03*
%TO.P,U1,30,XIN*%
%TO.N,/XIN*%
X95300000Y-64550000D03*
%TO.P,U1,31,XOUT*%
%TO.N,/XOUT*%
X95700000Y-64550000D03*
%TO.P,U1,32,DVDD*%
%TO.N,+1V1*%
X96100000Y-64550000D03*
%TO.P,U1,33,SWCLK*%
%TO.N,Net-(J6-Pin_2)*%
X96500000Y-64550000D03*
%TO.P,U1,34,SWDIO*%
%TO.N,Net-(J6-Pin_3)*%
X96900000Y-64550000D03*
%TO.P,U1,35,RUN*%
%TO.N,/RESET*%
X97300000Y-64550000D03*
%TO.P,U1,36,GPIO28*%
%TO.N,/BARO_INT*%
X97700000Y-64550000D03*
%TO.P,U1,37,GPIO29*%
%TO.N,/BARO_CS*%
X98100000Y-64550000D03*
%TO.P,U1,38,GPIO30*%
%TO.N,/L_RED*%
X98500000Y-64550000D03*
%TO.P,U1,39,GPIO31*%
%TO.N,/L_GREEN*%
X98900000Y-64550000D03*
%TO.P,U1,40,GPIO32*%
%TO.N,/L_BLUE*%
X99300000Y-64550000D03*
D48*
%TO.P,U1,41,IOVDD*%
%TO.N,+3V3*%
X100450000Y-63400000D03*
%TO.P,U1,42,GPIO33*%
%TO.N,/BUZZ*%
X100450000Y-63000000D03*
%TO.P,U1,43,GPIO34*%
%TO.N,PPS*%
X100450000Y-62600000D03*
%TO.P,U1,44,GPIO35*%
%TO.N,/PYRO_ENABLE*%
X100450000Y-62200000D03*
%TO.P,U1,45,GPIO36*%
%TO.N,/PYRO_FIRE_1*%
X100450000Y-61800000D03*
%TO.P,U1,46,GPIO37*%
%TO.N,/PYRO_FIRE_2*%
X100450000Y-61400000D03*
%TO.P,U1,47,GPIO38*%
%TO.N,/PYRO_FIRE_3*%
X100450000Y-61000000D03*
%TO.P,U1,48,GPIO39*%
%TO.N,/PYRO_FIRE_4*%
X100450000Y-60600000D03*
%TO.P,U1,49,GPIO40_ADC0*%
%TO.N,/PYRO_SENSE*%
X100450000Y-60200000D03*
%TO.P,U1,50,IOVDD*%
%TO.N,+3V3*%
X100450000Y-59800000D03*
%TO.P,U1,51,DVDD*%
%TO.N,+1V1*%
X100450000Y-59400000D03*
%TO.P,U1,52,GPIO41_ADC1*%
%TO.N,/GPIO41*%
X100450000Y-59000000D03*
%TO.P,U1,53,GPIO42_ADC2*%
%TO.N,/GPIO42*%
X100450000Y-58600000D03*
%TO.P,U1,54,GPIO43_ADC3*%
%TO.N,/GPIO43*%
X100450000Y-58200000D03*
%TO.P,U1,55,GPIO44_ADC4*%
%TO.N,/GPIO44*%
X100450000Y-57800000D03*
%TO.P,U1,56,GPIO45_ADC5*%
%TO.N,unconnected-(U1-GPIO45_ADC5-Pad56)*%
X100450000Y-57400000D03*
%TO.P,U1,57,GPIO46_ADC6*%
%TO.N,unconnected-(U1-GPIO46_ADC6-Pad57)*%
X100450000Y-57000000D03*
%TO.P,U1,58,GPIO47_ADC7*%
%TO.N,/BATT_SENSE*%
X100450000Y-56600000D03*
%TO.P,U1,59,ADC_AVDD*%
%TO.N,+3V3*%
X100450000Y-56200000D03*
%TO.P,U1,60,IOVDD*%
X100450000Y-55800000D03*
D49*
%TO.P,U1,61,VREG_AVDD*%
%TO.N,/AVDD*%
X99300000Y-54650000D03*
%TO.P,U1,62,VREG_PGND*%
%TO.N,GND*%
X98900000Y-54650000D03*
%TO.P,U1,63,VREG_LX*%
%TO.N,/LX*%
X98500000Y-54650000D03*
%TO.P,U1,64,VREG_VIN*%
%TO.N,+3V3*%
X98100000Y-54650000D03*
%TO.P,U1,65,VREG_FB*%
%TO.N,+1V1*%
X97700000Y-54650000D03*
%TO.P,U1,66,USB_DM*%
%TO.N,Net-(U1-USB_DM)*%
X97300000Y-54650000D03*
%TO.P,U1,67,USB_DP*%
%TO.N,Net-(U1-USB_DP)*%
X96900000Y-54650000D03*
%TO.P,U1,68,USB_OTP_VDD*%
%TO.N,+3V3*%
X96500000Y-54650000D03*
%TO.P,U1,69,QSPI_IOVDD*%
X96100000Y-54650000D03*
%TO.P,U1,70,QSPI_SD3*%
%TO.N,/SD3*%
X95700000Y-54650000D03*
%TO.P,U1,71,QSPI_SCLK*%
%TO.N,/SCLK*%
X95300000Y-54650000D03*
%TO.P,U1,72,QSPI_SD0*%
%TO.N,/SD0*%
X94900000Y-54650000D03*
%TO.P,U1,73,QSPI_SD2*%
%TO.N,/SD2*%
X94500000Y-54650000D03*
%TO.P,U1,74,QSPI_SD1*%
%TO.N,/SD1*%
X94100000Y-54650000D03*
%TO.P,U1,75,QSPI_SS*%
%TO.N,/SS*%
X93700000Y-54650000D03*
%TO.P,U1,76,IOVDD*%
%TO.N,+3V3*%
X93300000Y-54650000D03*
%TO.P,U1,77,GPIO0*%
%TO.N,/SDA_RADIO*%
X92900000Y-54650000D03*
%TO.P,U1,78,GPIO1*%
%TO.N,/SCL_RADIO*%
X92500000Y-54650000D03*
%TO.P,U1,79,GPIO2*%
%TO.N,/SD_CLK*%
X92100000Y-54650000D03*
%TO.P,U1,80,GPIO3*%
%TO.N,/SD_CMD*%
X91700000Y-54650000D03*
D50*
%TO.P,U1,81,GND*%
%TO.N,GND*%
X95500000Y-59600000D03*
%TD*%
D23*
%TO.P,R12,1*%
%TO.N,Net-(Q6-D)*%
X148900000Y-72812500D03*
%TO.P,R12,2*%
%TO.N,Net-(Q10-G)*%
X148900000Y-70987500D03*
%TD*%
D43*
%TO.P,C10,1*%
%TO.N,GND*%
X85150000Y-61875000D03*
%TO.P,C10,2*%
%TO.N,+3V3*%
X86875000Y-61875000D03*
%TD*%
D23*
%TO.P,R38,1*%
%TO.N,Net-(Q13-G)*%
X150116750Y-58043906D03*
%TO.P,R38,2*%
%TO.N,/Pyro/PYRO_HIGH*%
X150116750Y-56218906D03*
%TD*%
D27*
%TO.P,C32,1*%
%TO.N,GND*%
X113387500Y-35650000D03*
%TO.P,C32,2*%
%TO.N,+3V3*%
X111662500Y-35650000D03*
%TD*%
D30*
%TO.P,Q10,1,D*%
%TO.N,/Pyro/PYRO1*%
X151421844Y-74444000D03*
%TO.P,Q10,2,D*%
%TO.N,unconnected-(Q10-D-Pad2)*%
X150771844Y-74444000D03*
%TO.P,Q10,3,G*%
%TO.N,Net-(Q10-G)*%
X150121844Y-74444000D03*
%TO.P,Q10,4,S*%
%TO.N,/Pyro/PYRO_HIGH*%
X150121844Y-76444000D03*
%TO.P,Q10,5,D*%
%TO.N,unconnected-(Q10-D-Pad5)*%
X150771844Y-76444000D03*
%TO.P,Q10,6,D*%
%TO.N,unconnected-(Q10-D-Pad6)*%
X151421844Y-76444000D03*
D31*
%TO.P,Q10,7,D*%
%TO.N,unconnected-(Q10-D-Pad7)*%
X151061844Y-75424000D03*
D32*
%TO.P,Q10,8,S*%
%TO.N,unconnected-(Q10-S-Pad8)*%
X150081844Y-75444000D03*
%TD*%
D23*
%TO.P,R7,1*%
%TO.N,GND*%
X112950000Y-70662500D03*
%TO.P,R7,2*%
%TO.N,Net-(R7-Pad2)*%
X112950000Y-68837500D03*
%TD*%
%TO.P,R14,1*%
%TO.N,Net-(Q10-G)*%
X150600000Y-72812500D03*
%TO.P,R14,2*%
%TO.N,/Pyro/PYRO_HIGH*%
X150600000Y-70987500D03*
%TD*%
D41*
%TO.P,RN9,1,R1.1*%
%TO.N,/microSD/_DAT1*%
X134000000Y-42200000D03*
D42*
%TO.P,RN9,2,R2.1*%
%TO.N,Net-(J7-CLK)*%
X133200000Y-42200000D03*
%TO.P,RN9,3,R3.1*%
%TO.N,unconnected-(RN9-R3.1-Pad3)*%
X132400000Y-42200000D03*
D41*
%TO.P,RN9,4,R4.1*%
%TO.N,Net-(J7-DAT0)*%
X131600000Y-42200000D03*
%TO.P,RN9,5,R4.2*%
%TO.N,/SD_DAT0*%
X131600000Y-44000000D03*
D42*
%TO.P,RN9,6,R3.2*%
%TO.N,unconnected-(RN9-R3.2-Pad6)*%
X132400000Y-44000000D03*
%TO.P,RN9,7,R2.2*%
%TO.N,/SD_CLK*%
X133200000Y-44000000D03*
D41*
%TO.P,RN9,8,R1.2*%
%TO.N,/SD_DAT1*%
X134000000Y-44000000D03*
%TD*%
D27*
%TO.P,C14,1*%
%TO.N,GND*%
X99662500Y-68600000D03*
%TO.P,C14,2*%
%TO.N,+1V1*%
X97937500Y-68600000D03*
%TD*%
D51*
%TO.P,L1,1,1*%
%TO.N,+1V1*%
X98674900Y-46687500D03*
%TO.P,L1,2,2*%
%TO.N,/LX*%
X100275100Y-46687500D03*
%TD*%
D43*
%TO.P,C11,1*%
%TO.N,GND*%
X89600000Y-68200000D03*
%TO.P,C11,2*%
%TO.N,+3V3*%
X91325000Y-68200000D03*
%TD*%
D17*
%TO.P,R22,1*%
%TO.N,GND*%
X138750000Y-42937500D03*
%TO.P,R22,2*%
%TO.N,Net-(IC1-FB)*%
X138750000Y-44762500D03*
%TD*%
D52*
%TO.P,D2,1,K*%
%TO.N,Net-(D1-K)*%
X149531500Y-48300000D03*
D53*
%TO.P,D2,2,A*%
%TO.N,+BATT*%
X150443500Y-48300000D03*
%TD*%
D54*
%TO.P,C18,1*%
%TO.N,+3V3*%
X137400000Y-48162500D03*
%TO.P,C18,2*%
%TO.N,GND*%
X137400000Y-46437500D03*
%TD*%
D23*
%TO.P,R37,1*%
%TO.N,Net-(Q9-D)*%
X148396750Y-58043906D03*
%TO.P,R37,2*%
%TO.N,Net-(Q13-G)*%
X148396750Y-56218906D03*
%TD*%
D55*
%TO.P,U11,1,Vdd_IO*%
%TO.N,+3V3*%
X98962500Y-73150000D03*
%TO.P,U11,2,SCL*%
%TO.N,/SPI1.CK*%
X98962500Y-72650000D03*
D56*
%TO.P,U11,3,GND*%
%TO.N,GND*%
X98700000Y-72137500D03*
%TO.P,U11,4,SDA*%
%TO.N,/SPI1.TX*%
X98200000Y-72137500D03*
%TO.P,U11,5,SA0*%
%TO.N,/SPI1.RX*%
X97700000Y-72137500D03*
D55*
%TO.P,U11,6,~{CS}*%
%TO.N,/BARO_CS*%
X97437500Y-72650000D03*
%TO.P,U11,7,INT_DRDY*%
%TO.N,/BARO_INT*%
X97437500Y-73150000D03*
D56*
%TO.P,U11,8,GND_IO*%
%TO.N,GND*%
X97700000Y-73662500D03*
%TO.P,U11,9,GND*%
X98200000Y-73662500D03*
%TO.P,U11,10,VDD*%
%TO.N,+3V3*%
X98700000Y-73662500D03*
%TD*%
D27*
%TO.P,C34,1*%
%TO.N,+3V3*%
X85225000Y-46000000D03*
%TO.P,C34,2*%
%TO.N,GND*%
X83500000Y-46000000D03*
%TD*%
D57*
%TO.P,R3,1*%
%TO.N,+3V3*%
X108075000Y-46500000D03*
%TO.P,R3,2*%
%TO.N,/SS*%
X106250000Y-46500000D03*
%TD*%
D54*
%TO.P,C36,1*%
%TO.N,GND*%
X87000000Y-48862500D03*
%TO.P,C36,2*%
%TO.N,+3V3*%
X87000000Y-47137500D03*
%TD*%
D33*
%TO.P,R27,1*%
%TO.N,/PYRO_FIRE_1*%
X144987500Y-71100000D03*
%TO.P,R27,2*%
%TO.N,Net-(Q6-G)*%
X146812500Y-71100000D03*
%TD*%
%TO.P,R4,1*%
%TO.N,/XOUT*%
X109600000Y-69650000D03*
%TO.P,R4,2*%
%TO.N,Net-(C17-Pad2)*%
X111425000Y-69650000D03*
%TD*%
D58*
%TO.P,C30,1*%
%TO.N,GND*%
X85329879Y-75966420D03*
%TO.P,C30,2*%
%TO.N,+3V3*%
X84110119Y-77186180D03*
%TD*%
D28*
%TO.P,D5,1,K*%
%TO.N,GND*%
X119250000Y-77000000D03*
%TO.P,D5,2,A*%
%TO.N,Net-(D5-A)*%
X119250000Y-75425000D03*
%TD*%
D43*
%TO.P,C17,1*%
%TO.N,GND*%
X109637500Y-71150000D03*
%TO.P,C17,2*%
%TO.N,Net-(C17-Pad2)*%
X111362500Y-71150000D03*
%TD*%
D41*
%TO.P,RN7,1,R1.1*%
%TO.N,/microSD/_DAT3*%
X113900000Y-42250000D03*
D42*
%TO.P,RN7,2,R2.1*%
%TO.N,unconnected-(RN7-R2.1-Pad2)*%
X113100000Y-42250000D03*
%TO.P,RN7,3,R3.1*%
%TO.N,Net-(J7-CMD)*%
X112300000Y-42250000D03*
D41*
%TO.P,RN7,4,R4.1*%
%TO.N,/microSD/_DAT2*%
X111500000Y-42250000D03*
%TO.P,RN7,5,R4.2*%
%TO.N,/SD_DAT2*%
X111500000Y-44050000D03*
D42*
%TO.P,RN7,6,R3.2*%
%TO.N,/SD_CMD*%
X112300000Y-44050000D03*
%TO.P,RN7,7,R2.2*%
%TO.N,unconnected-(RN7-R2.2-Pad7)*%
X113100000Y-44050000D03*
D41*
%TO.P,RN7,8,R1.2*%
%TO.N,/SD_DAT3*%
X113900000Y-44050000D03*
%TD*%
D52*
%TO.P,D1,1,K*%
%TO.N,Net-(D1-K)*%
X149550000Y-47200000D03*
D53*
%TO.P,D1,2,A*%
%TO.N,VUSB*%
X150462000Y-47200000D03*
%TD*%
D33*
%TO.P,R1,1*%
%TO.N,/AVDD*%
X102425000Y-52000000D03*
%TO.P,R1,2*%
%TO.N,+3V3*%
X104250000Y-52000000D03*
%TD*%
D59*
%TO.P,TP1,1,1*%
%TO.N,Net-(U9-PRG)*%
X132000000Y-59200000D03*
%TD*%
D60*
%TO.P,U5,1,1*%
%TO.N,/SPI1.RX*%
X90090300Y-72499999D03*
%TO.P,U5,2,SDX*%
%TO.N,unconnected-(U5-SDX-Pad2)*%
X90090300Y-73000000D03*
%TO.P,U5,3,3*%
%TO.N,unconnected-(U5-Pad3)*%
X90090300Y-73500000D03*
%TO.P,U5,4,4*%
%TO.N,/IMU_INT1*%
X90090300Y-74000001D03*
D61*
%TO.P,U5,5,5*%
%TO.N,+3V3*%
X91000001Y-74405700D03*
%TO.P,U5,6,6*%
%TO.N,GND*%
X91500000Y-74405700D03*
%TO.P,U5,7,7*%
X91999999Y-74405700D03*
D60*
%TO.P,U5,8,8*%
%TO.N,+3V3*%
X92909700Y-74000001D03*
%TO.P,U5,9,9*%
%TO.N,/IMU_INT2*%
X92909700Y-73500000D03*
%TO.P,U5,10,10*%
%TO.N,unconnected-(U5-Pad10)*%
X92909700Y-73000000D03*
%TO.P,U5,11,11*%
%TO.N,unconnected-(U5-Pad11)*%
X92909700Y-72499999D03*
D61*
%TO.P,U5,12,12*%
%TO.N,/IMU_CS*%
X91999999Y-72094300D03*
%TO.P,U5,13,13*%
%TO.N,/SPI1.CK*%
X91500000Y-72094300D03*
%TO.P,U5,14,14*%
%TO.N,/SPI1.TX*%
X91000001Y-72094300D03*
%TD*%
D57*
%TO.P,R31,1*%
%TO.N,GND*%
X137662500Y-65906250D03*
%TO.P,R31,2*%
%TO.N,Net-(Q7-S)*%
X135837500Y-65906250D03*
%TD*%
D34*
%TO.P,C21,1*%
%TO.N,GND*%
X140500000Y-46437500D03*
%TO.P,C21,2*%
%TO.N,+3V3*%
X140500000Y-48162500D03*
%TD*%
D23*
%TO.P,R18,1*%
%TO.N,/PYRO_ENABLE*%
X134200000Y-60112500D03*
%TO.P,R18,2*%
%TO.N,Net-(Q5-G)*%
X134200000Y-58287500D03*
%TD*%
%TO.P,R13,1*%
%TO.N,/PYRO_SENSE*%
X141250000Y-60112500D03*
%TO.P,R13,2*%
%TO.N,/Pyro/PYRO_LOW*%
X141250000Y-58287500D03*
%TD*%
D62*
%TO.P,Q1,1,B*%
%TO.N,Net-(Q1-B)*%
X126480000Y-55690000D03*
D63*
%TO.P,Q1,3,E*%
%TO.N,/Pyro/PYRO_HIGH*%
X126480000Y-51110000D03*
D64*
%TO.P,Q1,4,C*%
%TO.N,+BATT*%
X119520000Y-53380000D03*
%TD*%
D30*
%TO.P,Q12,1,D*%
%TO.N,/Pyro/PYRO3*%
X151420000Y-67250000D03*
%TO.P,Q12,2,D*%
%TO.N,unconnected-(Q12-D-Pad2)*%
X150770000Y-67250000D03*
%TO.P,Q12,3,G*%
%TO.N,Net-(Q12-G)*%
X150120000Y-67250000D03*
%TO.P,Q12,4,S*%
%TO.N,/Pyro/PYRO_HIGH*%
X150120000Y-69250000D03*
%TO.P,Q12,5,D*%
%TO.N,unconnected-(Q12-D-Pad5)*%
X150770000Y-69250000D03*
%TO.P,Q12,6,D*%
%TO.N,unconnected-(Q12-D-Pad6)*%
X151420000Y-69250000D03*
D31*
%TO.P,Q12,7,D*%
%TO.N,unconnected-(Q12-D-Pad7)*%
X151060000Y-68230000D03*
D32*
%TO.P,Q12,8,S*%
%TO.N,unconnected-(Q12-S-Pad8)*%
X150080000Y-68250000D03*
%TD*%
D46*
%TO.P,Q9,1,D*%
%TO.N,Net-(Q9-D)*%
X147912000Y-61662000D03*
%TO.P,Q9,2,G*%
%TO.N,Net-(Q9-G)*%
X147912000Y-59762000D03*
%TO.P,Q9,3,S*%
%TO.N,Net-(Q9-S)*%
X144912000Y-60712000D03*
%TD*%
D33*
%TO.P,R2,1*%
%TO.N,/QSPI Flash/~{USB_BOOT}*%
X102425000Y-46500000D03*
%TO.P,R2,2*%
%TO.N,/SS*%
X104250000Y-46500000D03*
%TD*%
D65*
%TO.P,U8,1,SCL/SPC*%
%TO.N,/SPI1.CK*%
X83737500Y-47750000D03*
%TO.P,U8,2,NC*%
%TO.N,unconnected-(U8-NC-Pad2)*%
X83737500Y-48250000D03*
%TO.P,U8,3,~{CS}*%
%TO.N,/MAG_CS*%
X83737500Y-48750000D03*
%TO.P,U8,4,SDA/SDI/SDO*%
%TO.N,/SPI1.TX*%
X83737500Y-49250000D03*
D66*
%TO.P,U8,5,C1*%
%TO.N,Net-(U8-C1)*%
X84250000Y-49262500D03*
%TO.P,U8,6,GND*%
%TO.N,GND*%
X84750000Y-49262500D03*
D65*
%TO.P,U8,7,DRDY*%
%TO.N,/SPI1.RX*%
X85262500Y-49250000D03*
%TO.P,U8,8,GND*%
%TO.N,GND*%
X85262500Y-48750000D03*
%TO.P,U8,9,Vdd*%
%TO.N,+3V3*%
X85262500Y-48250000D03*
%TO.P,U8,10,Vdd_IO*%
X85262500Y-47750000D03*
D66*
%TO.P,U8,11,NC*%
%TO.N,unconnected-(U8-NC-Pad11)*%
X84750000Y-47737500D03*
%TO.P,U8,12,NC*%
%TO.N,unconnected-(U8-NC-Pad12)*%
X84250000Y-47737500D03*
%TD*%
D54*
%TO.P,C4,1*%
%TO.N,+3V3*%
X109800000Y-44862500D03*
%TO.P,C4,2*%
%TO.N,GND*%
X109800000Y-43137500D03*
%TD*%
D17*
%TO.P,R20,1*%
%TO.N,SYNC*%
X148300000Y-46287500D03*
%TO.P,R20,2*%
%TO.N,Net-(D1-K)*%
X148300000Y-48112500D03*
%TD*%
D67*
%TO.P,L2,1,1*%
%TO.N,Net-(IC1-L2)*%
X143062500Y-50300000D03*
%TO.P,L2,2,2*%
%TO.N,Net-(IC1-L1)*%
X146037500Y-50300000D03*
%TD*%
D68*
%TO.P,Q5,1,D*%
%TO.N,/Pyro/PYRO_LOW*%
X139550000Y-58700000D03*
%TO.P,Q5,2,G*%
%TO.N,Net-(Q5-G)*%
X137650000Y-58700000D03*
%TO.P,Q5,3,S*%
%TO.N,GND*%
X138600000Y-61700000D03*
%TD*%
D46*
%TO.P,Q6,1,D*%
%TO.N,Net-(Q6-D)*%
X148001844Y-76394000D03*
%TO.P,Q6,2,G*%
%TO.N,Net-(Q6-G)*%
X148001844Y-74494000D03*
%TO.P,Q6,3,S*%
%TO.N,Net-(Q6-S)*%
X145001844Y-75444000D03*
%TD*%
D57*
%TO.P,R36,1*%
%TO.N,GND*%
X146512500Y-58031406D03*
%TO.P,R36,2*%
%TO.N,Net-(Q9-S)*%
X144687500Y-58031406D03*
%TD*%
D33*
%TO.P,R42,1*%
%TO.N,/BATT_SENSE*%
X145137500Y-35250000D03*
%TO.P,R42,2*%
%TO.N,+BATT*%
X146962500Y-35250000D03*
%TD*%
D69*
%TO.P,J1,A1,GND*%
%TO.N,GND*%
X79190000Y-45500000D03*
%TO.P,J1,A4,VBUS*%
%TO.N,VUSB*%
X79190000Y-46300000D03*
D70*
%TO.P,J1,A5,CC1*%
%TO.N,unconnected-(J1-CC1-PadA5)*%
X79190000Y-47450000D03*
%TO.P,J1,A6,D+*%
%TO.N,D+*%
X79190000Y-48450000D03*
%TO.P,J1,A7,D-*%
%TO.N,D-*%
X79190000Y-48950000D03*
%TO.P,J1,A8,SBU1*%
%TO.N,unconnected-(J1-SBU1-PadA8)*%
X79190000Y-49950000D03*
D69*
%TO.P,J1,A9,VBUS*%
%TO.N,VUSB*%
X79190000Y-51100000D03*
%TO.P,J1,A12,GND*%
%TO.N,GND*%
X79190000Y-51900000D03*
%TO.P,J1,B1,GND*%
X79190000Y-51900000D03*
%TO.P,J1,B4,VBUS*%
%TO.N,VUSB*%
X79190000Y-51100000D03*
D70*
%TO.P,J1,B5,CC2*%
%TO.N,unconnected-(J1-CC2-PadB5)*%
X79190000Y-50450000D03*
%TO.P,J1,B6,D+*%
%TO.N,D+*%
X79190000Y-49450000D03*
%TO.P,J1,B7,D-*%
%TO.N,D-*%
X79190000Y-47950000D03*
%TO.P,J1,B8,SBU2*%
%TO.N,unconnected-(J1-SBU2-PadB8)*%
X79190000Y-46950000D03*
D69*
%TO.P,J1,B9,VBUS*%
%TO.N,VUSB*%
X79190000Y-46300000D03*
%TO.P,J1,B12,GND*%
%TO.N,GND*%
X79190000Y-45500000D03*
D71*
%TO.P,J1,S1,SHIELD*%
X78615000Y-44380000D03*
D72*
X74435000Y-44380000D03*
D71*
X78615000Y-53020000D03*
D72*
X74435000Y-53020000D03*
%TD*%
D54*
%TO.P,C22,1*%
%TO.N,+3V3*%
X138950000Y-48162500D03*
%TO.P,C22,2*%
%TO.N,GND*%
X138950000Y-46437500D03*
%TD*%
D57*
%TO.P,R33,1*%
%TO.N,GND*%
X146712500Y-65400000D03*
%TO.P,R33,2*%
%TO.N,Net-(Q8-S)*%
X144887500Y-65400000D03*
%TD*%
D73*
%TO.P,C29,1*%
%TO.N,GND*%
X86640119Y-74626180D03*
%TO.P,C29,2*%
%TO.N,+3V3*%
X87859879Y-73406420D03*
%TD*%
D57*
%TO.P,R28,1*%
%TO.N,GND*%
X146812500Y-72800000D03*
%TO.P,R28,2*%
%TO.N,Net-(Q6-S)*%
X144987500Y-72800000D03*
%TD*%
%TO.P,R41,1*%
%TO.N,GND*%
X146962500Y-36800000D03*
%TO.P,R41,2*%
%TO.N,/BATT_SENSE*%
X145137500Y-36800000D03*
%TD*%
D43*
%TO.P,C20,1*%
%TO.N,GND*%
X143637500Y-42050000D03*
%TO.P,C20,2*%
%TO.N,Net-(IC1-VAUX)*%
X145362500Y-42050000D03*
%TD*%
D46*
%TO.P,Q7,1,D*%
%TO.N,Net-(Q7-D)*%
X139000000Y-69606250D03*
%TO.P,Q7,2,G*%
%TO.N,Net-(Q7-G)*%
X139000000Y-67706250D03*
%TO.P,Q7,3,S*%
%TO.N,Net-(Q7-S)*%
X136000000Y-68656250D03*
%TD*%
D34*
%TO.P,C28,1*%
%TO.N,GND*%
X94700000Y-72381200D03*
%TO.P,C28,2*%
%TO.N,+3V3*%
X94700000Y-74106200D03*
%TD*%
D23*
%TO.P,R5,1*%
%TO.N,Net-(U1-USB_DP)*%
X93600000Y-47125000D03*
%TO.P,R5,2*%
%TO.N,D+*%
X93600000Y-45300000D03*
%TD*%
D74*
%TO.P,SW2,1,1*%
%TO.N,Net-(R7-Pad2)*%
X112575000Y-67400000D03*
%TO.P,SW2,2,2*%
%TO.N,/RESET*%
X104825000Y-67400000D03*
%TD*%
D34*
%TO.P,C5,1*%
%TO.N,GND*%
X92100000Y-45350000D03*
%TO.P,C5,2*%
%TO.N,+3V3*%
X92100000Y-47075000D03*
%TD*%
D23*
%TO.P,R21,1*%
%TO.N,Net-(IC1-FB)*%
X140500000Y-44762500D03*
%TO.P,R21,2*%
%TO.N,+3V3*%
X140500000Y-42937500D03*
%TD*%
D27*
%TO.P,C31,1*%
%TO.N,+3V3*%
X133875000Y-36150000D03*
%TO.P,C31,2*%
%TO.N,GND*%
X132150000Y-36150000D03*
%TD*%
D23*
%TO.P,R16,1*%
%TO.N,Net-(Q11-G)*%
X141850000Y-66068750D03*
%TO.P,R16,2*%
%TO.N,/Pyro/PYRO_HIGH*%
X141850000Y-64243750D03*
%TD*%
D34*
%TO.P,C33,1*%
%TO.N,Net-(U8-C1)*%
X83950000Y-51187500D03*
%TO.P,C33,2*%
%TO.N,GND*%
X83950000Y-52912500D03*
%TD*%
D43*
%TO.P,C15,1*%
%TO.N,GND*%
X83737500Y-56100000D03*
%TO.P,C15,2*%
%TO.N,+1V1*%
X85462500Y-56100000D03*
%TD*%
D54*
%TO.P,C19,1*%
%TO.N,+3V3*%
X135850000Y-48162500D03*
%TO.P,C19,2*%
%TO.N,GND*%
X135850000Y-46437500D03*
%TD*%
D43*
%TO.P,C12,1*%
%TO.N,GND*%
X83775000Y-54500000D03*
%TO.P,C12,2*%
%TO.N,+3V3*%
X85500000Y-54500000D03*
%TD*%
D27*
%TO.P,C40,1*%
%TO.N,+3V3*%
X102400000Y-75500000D03*
%TO.P,C40,2*%
%TO.N,GND*%
X100675000Y-75500000D03*
%TD*%
D17*
%TO.P,R29,1*%
%TO.N,GND*%
X142850000Y-58287500D03*
%TO.P,R29,2*%
%TO.N,/PYRO_SENSE*%
X142850000Y-60112500D03*
%TD*%
D75*
%TO.P,J11,1,Pin_1*%
%TO.N,GND*%
X89200000Y-36750000D03*
D76*
%TO.P,J11,2,Pin_2*%
%TO.N,Net-(J11-Pin_2)*%
X86700000Y-36750000D03*
%TO.P,J11,3,Pin_3*%
%TO.N,Net-(J11-Pin_3)*%
X84200000Y-36750000D03*
%TD*%
D26*
%TO.P,J5,1,Pin_1*%
%TO.N,GND*%
X106910000Y-38290000D03*
D25*
%TO.P,J5,2,Pin_2*%
%TO.N,+3V3*%
X106910000Y-35750000D03*
%TO.P,J5,3,Pin_3*%
%TO.N,/GPIO20*%
X104370000Y-38290000D03*
%TO.P,J5,4,Pin_4*%
%TO.N,/GPIO41*%
X104370000Y-35750000D03*
%TO.P,J5,5,Pin_5*%
%TO.N,/PWM4*%
X101830000Y-38290000D03*
%TO.P,J5,6,Pin_6*%
%TO.N,/GPIO42*%
X101830000Y-35750000D03*
%TO.P,J5,7,Pin_7*%
%TO.N,/PWM3*%
X99290000Y-38290000D03*
%TO.P,J5,8,Pin_8*%
%TO.N,/GPIO43*%
X99290000Y-35750000D03*
%TO.P,J5,9,Pin_9*%
%TO.N,/PWM2*%
X96750000Y-38290000D03*
%TO.P,J5,10,Pin_10*%
%TO.N,/GPIO44*%
X96750000Y-35750000D03*
%TO.P,J5,11,Pin_11*%
%TO.N,/PWM1*%
X94210000Y-38290000D03*
%TO.P,J5,12,Pin_12*%
%TO.N,GND*%
X94210000Y-35750000D03*
%TD*%
D77*
%TO.P,J4,2,Ext*%
%TO.N,GND*%
X74857000Y-61860000D03*
X74857000Y-66940000D03*
%TD*%
D78*
%TO.P,J15,1,1*%
%TO.N,/Pyro/PYRO1*%
X158795301Y-75769599D03*
%TO.P,J15,2,2*%
%TO.N,/Pyro/PYRO_LOW*%
X158795301Y-73229599D03*
%TO.P,J15,3,3*%
%TO.N,/Pyro/PYRO2*%
X158795301Y-70689599D03*
%TO.P,J15,4,4*%
%TO.N,/Pyro/PYRO_LOW*%
X158795301Y-68149599D03*
%TO.P,J15,5,5*%
%TO.N,/Pyro/PYRO3*%
X158795301Y-65609599D03*
%TO.P,J15,6,6*%
%TO.N,/Pyro/PYRO_LOW*%
X158795301Y-63069599D03*
%TO.P,J15,7,7*%
%TO.N,/Pyro/PYRO4*%
X158795301Y-60529599D03*
%TO.P,J15,8,8*%
%TO.N,/Pyro/PYRO_LOW*%
X158795301Y-57989599D03*
%TO.P,J15,9,9*%
%TO.N,/Pyro/PYRO1*%
X153715301Y-75769599D03*
%TO.P,J15,10,10*%
%TO.N,/Pyro/PYRO_LOW*%
X153715301Y-73229599D03*
%TO.P,J15,11,11*%
%TO.N,/Pyro/PYRO2*%
X153715301Y-70689599D03*
%TO.P,J15,12,12*%
%TO.N,/Pyro/PYRO_LOW*%
X153715301Y-68149599D03*
%TO.P,J15,13,13*%
%TO.N,/Pyro/PYRO3*%
X153715301Y-65609599D03*
%TO.P,J15,14,14*%
%TO.N,/Pyro/PYRO_LOW*%
X153715301Y-63069599D03*
%TO.P,J15,15,15*%
%TO.N,/Pyro/PYRO4*%
X153715301Y-60529599D03*
%TO.P,J15,16,16*%
%TO.N,/Pyro/PYRO_LOW*%
X153715301Y-57989599D03*
%TD*%
D79*
%TO.P,J8,1,1*%
%TO.N,unconnected-(J8-Pad1)*%
X151264452Y-40651100D03*
%TO.P,J8,2,2*%
%TO.N,unconnected-(J8-Pad2)*%
X151264452Y-38151100D03*
%TO.P,J8,3,3*%
%TO.N,+BATT*%
X153764452Y-40651100D03*
%TO.P,J8,4,4*%
%TO.N,GND*%
X153764452Y-38151100D03*
%TD*%
D80*
%TO.P,ANT1,1,1*%
%TO.N,Net-(U9-RF_IN)*%
X123750000Y-65000000D03*
%TD*%
D81*
%TO.N,Net-(U10-PB6{slash}UART1_TX)*%
X86600000Y-71300000D03*
X77500000Y-68000000D03*
%TO.N,Net-(U10-PB7{slash}UART1_RX)*%
X86625000Y-70587500D03*
X79500000Y-68000000D03*
%TO.N,GND*%
X76300000Y-63200000D03*
X76300000Y-65600000D03*
X77200000Y-63600000D03*
X77200000Y-65200000D03*
X74100000Y-69600000D03*
%TO.N,/SPI1.TX*%
X82700000Y-68300000D03*
%TO.N,+1V1*%
X97840000Y-50980000D03*
X85480000Y-56100000D03*
X97937500Y-68600000D03*
X106318224Y-59025000D03*
D82*
%TO.N,VUSB*%
X148200000Y-41000000D03*
X80500000Y-46300000D03*
D81*
%TO.N,Net-(J6-Pin_3)*%
X102850000Y-70213500D03*
X102850000Y-68850000D03*
%TO.N,Net-(J6-Pin_2)*%
X101950000Y-68837500D03*
%TO.N,Net-(J7-DAT0)*%
X130500000Y-40100000D03*
X129000000Y-41300000D03*
%TO.N,/SD_detect*%
X114100000Y-49700000D03*
X86800000Y-58100000D03*
%TO.N,/GPIO42*%
X107200000Y-48700000D03*
X103437028Y-41088500D03*
%TO.N,/PWM3*%
X94100000Y-68425735D03*
X110731327Y-52458103D03*
%TO.N,/PWM1*%
X104500000Y-50500000D03*
X101487915Y-47486500D03*
X109312332Y-52499832D03*
X93212500Y-66537500D03*
%TO.N,/PWM4*%
X111496112Y-52487500D03*
X95081249Y-67829779D03*
%TO.N,/PWM2*%
X110020831Y-52480763D03*
X93612500Y-67600000D03*
X105399000Y-50564540D03*
X102400000Y-47486500D03*
%TO.N,Net-(J11-Pin_2)*%
X86700000Y-45800000D03*
X87152470Y-56901000D03*
%TO.N,/GPIO44*%
X105999000Y-49250000D03*
%TO.N,/GPIO41*%
X107800000Y-48300000D03*
X104600000Y-41700000D03*
%TO.N,/GPIO43*%
X106600000Y-48950000D03*
X98600000Y-40300000D03*
D83*
%TO.N,/Pyro/PYRO2*%
X143250000Y-68750000D03*
%TO.N,/Pyro/PYRO_HIGH*%
X151800000Y-71600000D03*
X150121844Y-77340000D03*
X150116750Y-56218906D03*
D84*
X136700000Y-53700000D03*
D83*
X151728156Y-64292500D03*
X141425000Y-70825000D03*
X142900000Y-64243750D03*
D81*
%TO.N,/SS*%
X91508949Y-49700000D03*
X96975000Y-43200000D03*
%TO.N,/PYRO_SENSE*%
X132028768Y-60828768D03*
X133046232Y-61296232D03*
X137299265Y-61950735D03*
X141750000Y-61750000D03*
%TO.N,/PYRO_ENABLE*%
X133000000Y-63200000D03*
X134200000Y-60112500D03*
%TO.N,/PYRO_FIRE_4*%
X143550000Y-56300000D03*
X139900000Y-57250000D03*
%TO.N,/SD_DAT2*%
X88100000Y-51400000D03*
X111500000Y-44900000D03*
%TO.N,/SD_DAT3*%
X113700000Y-45400000D03*
X87500000Y-52900000D03*
%TO.N,/SD_CMD*%
X91300000Y-51900000D03*
X112300000Y-45900000D03*
%TO.N,/SD_DAT0*%
X89300000Y-53500000D03*
X131000000Y-46200000D03*
%TO.N,/SD_CLK*%
X92100000Y-53574000D03*
X132300000Y-45800000D03*
%TO.N,/SD_DAT1*%
X88700000Y-54500000D03*
X133714496Y-45400000D03*
%TO.N,/SCLK*%
X104900000Y-45500000D03*
X94600000Y-49100000D03*
%TO.N,/IMU_INT2*%
X92375001Y-65831830D03*
X93850000Y-71000000D03*
%TO.N,/SD2*%
X97600000Y-44400000D03*
X92801468Y-49500000D03*
%TO.N,/IMU45_INT2*%
X88125000Y-70787500D03*
X88125000Y-67700000D03*
%TO.N,/SPI1.RX*%
X85500000Y-59299000D03*
X81499000Y-72200000D03*
X82179998Y-67909998D03*
X82050000Y-62050000D03*
%TO.N,/IMU_CS*%
X92900000Y-71000000D03*
X91000000Y-65700000D03*
%TO.N,/SPI1.CK*%
X91500000Y-71000000D03*
X82205879Y-70750000D03*
X92050000Y-69100000D03*
X83400000Y-61000000D03*
X83350000Y-58923527D03*
X83400000Y-68350000D03*
X82150000Y-57750000D03*
%TO.N,/MAG_CS*%
X83350000Y-57400000D03*
X82150000Y-55700000D03*
%TO.N,/IMU45_INT1*%
X86600000Y-65400000D03*
X81049000Y-68300000D03*
%TO.N,/IMU_INT1*%
X88199172Y-71900000D03*
X91740000Y-65660000D03*
%TO.N,/SD3*%
X103400000Y-43100000D03*
X95288008Y-50125000D03*
X105500000Y-42600000D03*
X103886500Y-48086500D03*
%TO.N,/SD0*%
X93800000Y-50400000D03*
X105850000Y-44698529D03*
%TO.N,/BARO_INT*%
X96150000Y-73150000D03*
X98525940Y-66585500D03*
%TO.N,/SPI1.TX*%
X90200000Y-69587500D03*
X90200000Y-71000000D03*
X81700000Y-70100000D03*
%TO.N,/BARO_CS*%
X96750000Y-71650000D03*
X102250000Y-66800000D03*
%TO.N,/IMU45_CS*%
X80800000Y-62600000D03*
X87851473Y-58800000D03*
%TO.N,/SD1*%
X98250000Y-43250000D03*
X92200000Y-48400000D03*
%TO.N,/BUZZ*%
X108525000Y-60375000D03*
X117500000Y-43999000D03*
X103570000Y-64320000D03*
%TO.N,+3V3*%
X84800000Y-45000000D03*
X140500000Y-41900000D03*
X87750000Y-76750000D03*
X135750000Y-39900000D03*
X121900000Y-42200000D03*
X102440000Y-64690000D03*
X140500000Y-48162500D03*
X135200000Y-38300000D03*
X106537500Y-60000000D03*
X110412500Y-35650000D03*
X103600000Y-50800000D03*
X108675735Y-47575735D03*
X95950000Y-74100000D03*
X143300000Y-62100000D03*
X96248000Y-68552252D03*
X90750000Y-48700000D03*
X99975000Y-74125000D03*
X109300000Y-46500000D03*
X149300000Y-44800000D03*
X84110119Y-77186180D03*
X96100000Y-51100000D03*
X91325000Y-68200000D03*
X102000000Y-56000000D03*
X123682500Y-37082500D03*
X90500000Y-47100000D03*
X109500000Y-40550000D03*
X88750000Y-74250000D03*
X140900000Y-50600000D03*
X112400000Y-47026000D03*
X98563235Y-51088235D03*
X133875000Y-34600000D03*
X86875000Y-61875000D03*
X85500000Y-54500000D03*
X110475000Y-38475000D03*
X146500000Y-60700000D03*
%TO.N,/RX_GPS*%
X87112500Y-68400000D03*
X87455339Y-63802198D03*
X88612500Y-68400000D03*
%TO.N,/TX_GPS*%
X87700000Y-63200000D03*
%TO.N,PPS*%
X104737000Y-64177000D03*
%TO.N,Net-(D9-A)*%
X76250000Y-55000000D03*
X80000000Y-75000000D03*
%TO.N,Net-(D10-A)*%
X80000000Y-75750000D03*
X76250000Y-56750000D03*
%TO.N,Net-(D11-A)*%
X80000000Y-76500000D03*
X76250000Y-58500000D03*
%TO.N,Net-(J11-Pin_3)*%
X86575738Y-55724265D03*
X86100000Y-44800000D03*
%TO.N,/GPIO20*%
X102200000Y-55200000D03*
X88761765Y-64761765D03*
%TO.N,/BATT_SENSE*%
X131700000Y-48400000D03*
X102500000Y-56600000D03*
%TO.N,GND*%
X117000000Y-64500000D03*
X101300000Y-73150000D03*
X133600000Y-64100000D03*
X124500000Y-58500000D03*
X83950000Y-52912500D03*
X133500000Y-75000000D03*
X89000000Y-49900000D03*
X88625000Y-40425000D03*
X115500000Y-67500000D03*
X129000000Y-73500000D03*
X98306648Y-70793352D03*
X123000000Y-70500000D03*
X109637500Y-71150000D03*
X117000000Y-57000000D03*
X85212500Y-50812500D03*
X124500000Y-75000000D03*
X109500000Y-67500000D03*
X79800000Y-65200000D03*
X121250000Y-76500000D03*
X123000000Y-67500000D03*
X130500000Y-58500000D03*
X87500000Y-75500000D03*
X97355603Y-76062500D03*
X129100000Y-64100000D03*
X108170000Y-64501000D03*
X140500000Y-46437500D03*
X126000000Y-73500000D03*
X83737500Y-56100000D03*
X129000000Y-67500000D03*
X124500000Y-69000000D03*
X85150000Y-61875000D03*
X111000000Y-64500000D03*
X114250000Y-73750000D03*
X111000000Y-57000000D03*
X126200000Y-34600000D03*
X92899999Y-76050000D03*
X110500000Y-55000000D03*
X132000000Y-76500000D03*
X126100000Y-64100000D03*
X132000000Y-73500000D03*
X127600000Y-65900000D03*
X83775000Y-54500000D03*
X126100000Y-65900000D03*
X80600000Y-51900000D03*
X114000000Y-57000000D03*
X144525000Y-49037500D03*
X139100000Y-41900000D03*
X120000000Y-64500000D03*
X99400000Y-77100000D03*
X121500000Y-75000000D03*
X120000000Y-67500000D03*
X101300000Y-48687500D03*
X121500000Y-72000000D03*
X100700000Y-68600000D03*
X148200000Y-36800000D03*
X108000000Y-77250000D03*
X132100000Y-64100000D03*
X119475735Y-39900000D03*
X130500000Y-69000000D03*
X115750000Y-77000000D03*
X114000000Y-60000000D03*
X123000000Y-75750000D03*
X127500000Y-58500000D03*
X90900000Y-45350000D03*
X101500000Y-50200000D03*
X79800000Y-63600000D03*
X114000000Y-76500000D03*
X130600000Y-65900000D03*
D83*
X137250000Y-67406250D03*
D81*
X81000000Y-65200000D03*
X126000000Y-76500000D03*
X146766668Y-45333332D03*
D83*
X146480000Y-66650000D03*
D81*
X78500000Y-65200000D03*
X127500000Y-69000000D03*
X142200000Y-51900000D03*
X111000000Y-60000000D03*
X117500000Y-77000000D03*
X74857000Y-61860000D03*
X80700000Y-43700000D03*
X126000000Y-70500000D03*
X132100000Y-65900000D03*
X118500000Y-58500000D03*
X115500000Y-55000000D03*
X133600000Y-65900000D03*
X128400000Y-46900000D03*
D85*
X74712500Y-58500000D03*
D83*
X146512500Y-58031406D03*
D85*
X74712500Y-56750000D03*
D81*
X132000000Y-54250000D03*
X96100000Y-59000000D03*
D85*
X74712500Y-55000000D03*
D81*
X115300000Y-46900000D03*
X120000000Y-57000000D03*
X74857000Y-66940000D03*
X127500000Y-54000000D03*
X113250000Y-75000000D03*
X108000000Y-69000000D03*
X127600000Y-64100000D03*
X118250000Y-72250000D03*
D83*
X142850000Y-57350000D03*
D81*
X100300000Y-51100000D03*
X124500000Y-72000000D03*
X132000000Y-70500000D03*
X89600000Y-66730000D03*
X104812500Y-56250000D03*
D83*
X140150000Y-61700000D03*
D81*
X117000000Y-60000000D03*
X111162500Y-77550000D03*
X118500000Y-66000000D03*
X109000000Y-58500000D03*
D83*
X146300000Y-74100000D03*
D81*
X130700000Y-37100000D03*
X129000000Y-76500000D03*
X110750000Y-72250000D03*
X123000000Y-60000000D03*
X130600000Y-64100000D03*
X123000000Y-73500000D03*
X83500000Y-45000000D03*
X130500000Y-72000000D03*
X109800000Y-42000000D03*
X114000000Y-72250000D03*
X112950000Y-70662500D03*
X95476879Y-71123121D03*
X78500000Y-63600000D03*
X118500000Y-69000000D03*
X101400000Y-64400000D03*
X143637500Y-42050000D03*
X126000000Y-60000000D03*
X133500000Y-69000000D03*
X112500000Y-58500000D03*
X115500000Y-58500000D03*
X126000000Y-67500000D03*
X129000000Y-60000000D03*
X113500000Y-54500000D03*
X114000000Y-64500000D03*
X129000000Y-70500000D03*
X121500000Y-66000000D03*
X94700000Y-59000000D03*
X132000000Y-67500000D03*
X110500000Y-74350000D03*
X133500000Y-72000000D03*
X124500000Y-77250000D03*
X109000000Y-56000000D03*
X115050000Y-35650000D03*
X108000000Y-73000000D03*
X130500000Y-75000000D03*
X120000000Y-60000000D03*
X81000000Y-63600000D03*
X127500000Y-72000000D03*
X120000000Y-70500000D03*
X121500000Y-69000000D03*
X85000000Y-64149999D03*
X127500000Y-75000000D03*
X120000000Y-73500000D03*
X99200000Y-44400000D03*
X119250000Y-77000000D03*
X121500000Y-58500000D03*
X129100000Y-65900000D03*
%TO.N,/microSD/_DAT3*%
X114600000Y-41100000D03*
X114600000Y-39800000D03*
%TO.N,Net-(U9-PRG)*%
X132675000Y-58234787D03*
%TD*%
D86*
%TO.N,/IMU45_INT2*%
X88125000Y-70787500D02*
X87112500Y-71800000D01*
X87112500Y-71800000D02*
X85453553Y-71800000D01*
X85453553Y-71800000D02*
X84832588Y-72420965D01*
%TO.N,Net-(U10-PB6{slash}UART1_TX)*%
X76800000Y-68700000D02*
X77500000Y-68000000D01*
X76800000Y-69600000D02*
X76800000Y-68700000D01*
%TO.N,/SPI1.RX*%
X83100000Y-70100000D02*
X89100000Y-70100000D01*
X89313238Y-72499999D02*
X89100000Y-72286761D01*
X90289701Y-72493699D02*
X90283401Y-72499999D01*
X90283401Y-72499999D02*
X89313238Y-72499999D01*
X89100000Y-72286761D02*
X89100000Y-70100000D01*
X82179998Y-67909998D02*
X82179998Y-69179998D01*
X82179998Y-69179998D02*
X83100000Y-70100000D01*
X89100000Y-70100000D02*
X95400000Y-70100000D01*
X95400000Y-70100000D02*
X96200000Y-70900000D01*
X96200000Y-70900000D02*
X96997666Y-70900000D01*
X96997666Y-70900000D02*
X97700000Y-71602334D01*
X97700000Y-71602334D02*
X97700000Y-72137500D01*
%TO.N,/SPI1.TX*%
X90200000Y-69587500D02*
X95487500Y-69587500D01*
X95487500Y-69587500D02*
X96400000Y-70500000D01*
X96400000Y-70500000D02*
X97164766Y-70500000D01*
X97164766Y-70500000D02*
X98200000Y-71535234D01*
X98200000Y-71535234D02*
X98200000Y-72137500D01*
X90200000Y-69587500D02*
X83487500Y-69587500D01*
X83487500Y-69587500D02*
X82700000Y-68800000D01*
X82700000Y-68800000D02*
X82700000Y-68300000D01*
%TO.N,Net-(U10-PB7{slash}UART1_RX)*%
X79500000Y-69600000D02*
X79500000Y-68000000D01*
D10*
%TO.N,GND*%
X78500000Y-65200000D02*
X76760000Y-66940000D01*
X76760000Y-66940000D02*
X74980000Y-66940000D01*
X74980000Y-66940000D02*
X74857000Y-66817000D01*
X74857000Y-66817000D02*
X74857000Y-66940000D01*
X78500000Y-63600000D02*
X76760000Y-61860000D01*
X76760000Y-61860000D02*
X74980000Y-61860000D01*
X74980000Y-61860000D02*
X74857000Y-61983000D01*
X74857000Y-61983000D02*
X74857000Y-61860000D01*
D86*
%TO.N,/IMU45_INT1*%
X81049000Y-68300000D02*
X81011500Y-68337500D01*
X81011500Y-68337500D02*
X81011500Y-74011500D01*
X81011500Y-74011500D02*
X82200000Y-75200000D01*
X82200000Y-75200000D02*
X82760661Y-75200000D01*
X82760661Y-75200000D02*
X83474519Y-74486142D01*
%TO.N,/SPI1.RX*%
X81499000Y-72200000D02*
X81337500Y-72361500D01*
X81337500Y-72361500D02*
X81337500Y-73787500D01*
X81337500Y-73787500D02*
X81550000Y-74000000D01*
X81550000Y-74000000D02*
X81839339Y-74000000D01*
X81839339Y-74000000D02*
X82272861Y-73566478D01*
X82272861Y-73566478D02*
X82413858Y-73425481D01*
%TO.N,/RX_GPS*%
X87112500Y-68400000D02*
X88612500Y-68400000D01*
%TO.N,/IMU45_INT2*%
X88125000Y-67700000D02*
X87400000Y-66975000D01*
X87400000Y-66975000D02*
X87400000Y-65275000D01*
X87400000Y-65275000D02*
X89675000Y-63000000D01*
X89675000Y-63000000D02*
X90550000Y-63000000D01*
%TO.N,/SPI1.TX*%
X82700000Y-68300000D02*
X82750000Y-68250000D01*
X82750000Y-68250000D02*
X82750000Y-60150000D01*
X81700000Y-70100000D02*
X81700000Y-70934965D01*
X81700000Y-70934965D02*
X81878753Y-71113718D01*
X81878753Y-71113718D02*
X81878753Y-71885858D01*
X81878753Y-71885858D02*
X82770241Y-72777346D01*
%TO.N,/SPI1.CK*%
X82205879Y-70750000D02*
X82205879Y-71505879D01*
X82205879Y-71505879D02*
X83123794Y-72423794D01*
%TO.N,/SPI1.RX*%
X82179998Y-67909998D02*
X82179998Y-62179998D01*
X82179998Y-62179998D02*
X82050000Y-62050000D01*
D10*
%TO.N,+1V1*%
X98674900Y-46687500D02*
X98674900Y-48687400D01*
X97800000Y-68114067D02*
X97800000Y-68462500D01*
X97800000Y-68462500D02*
X97937500Y-68600000D01*
X85480000Y-56100000D02*
X85500000Y-56100000D01*
X97840000Y-50980000D02*
X97840000Y-51160000D01*
X97700000Y-49662500D02*
X97700000Y-51300000D01*
X85400000Y-56100000D02*
X85480000Y-56100000D01*
X87100000Y-59400000D02*
X90550000Y-59400000D01*
X97840000Y-51160000D02*
X97700000Y-51300000D01*
X98674900Y-48687400D02*
X98675000Y-48687500D01*
X97700000Y-51300000D02*
X97700000Y-54650000D01*
X98675000Y-48687500D02*
X97700000Y-49662500D01*
X85357500Y-56142500D02*
X85400000Y-56100000D01*
X96100000Y-64550000D02*
X96100000Y-66414066D01*
X85500000Y-57800000D02*
X87100000Y-59400000D01*
X105943224Y-59400000D02*
X100450000Y-59400000D01*
X106318224Y-59025000D02*
X105943224Y-59400000D01*
X96100000Y-66414066D02*
X97800000Y-68114067D01*
X85500000Y-56100000D02*
X85500000Y-57800000D01*
%TO.N,/LX*%
X99550000Y-48231866D02*
X99550000Y-50950000D01*
X100275100Y-46687500D02*
X100275100Y-47506766D01*
X98500000Y-52000000D02*
X98500000Y-54650000D01*
X100275100Y-47506766D02*
X99550000Y-48231866D01*
X99550000Y-50950000D02*
X98500000Y-52000000D01*
%TO.N,/AVDD*%
X102425000Y-52000000D02*
X102425000Y-53675000D01*
X99300000Y-52950000D02*
X100250000Y-52000000D01*
X100250000Y-52000000D02*
X102425000Y-52000000D01*
X102425000Y-53675000D02*
X102500000Y-53750000D01*
X99300000Y-54650000D02*
X99300000Y-52950000D01*
D86*
%TO.N,/XIN*%
X95300000Y-64550000D02*
X95300000Y-66600000D01*
X96810500Y-69186636D02*
X97349864Y-69726000D01*
X106326000Y-69726000D02*
X107300000Y-70700000D01*
D10*
X109437500Y-77550000D02*
X109437500Y-75312500D01*
D86*
X107300000Y-74300000D02*
X108225000Y-75225000D01*
X108225000Y-75225000D02*
X109350000Y-75225000D01*
X97349864Y-69726000D02*
X106326000Y-69726000D01*
X95300000Y-66600000D02*
X96810500Y-68110500D01*
D10*
X109437500Y-75312500D02*
X109350000Y-75225000D01*
D86*
X96810500Y-68110500D02*
X96810500Y-69186636D01*
X107300000Y-70700000D02*
X107300000Y-74300000D01*
D10*
%TO.N,Net-(C17-Pad2)*%
X111362500Y-69712500D02*
X111425000Y-69650000D01*
X111650000Y-73475000D02*
X111650000Y-71437500D01*
X111650000Y-71437500D02*
X111362500Y-71150000D01*
X111362500Y-71150000D02*
X111362500Y-69712500D01*
%TO.N,Net-(IC1-VAUX)*%
X144275000Y-45324000D02*
X144275000Y-43937500D01*
X144275000Y-43937500D02*
X145362500Y-42850000D01*
X145362500Y-42850000D02*
X145362500Y-42050000D01*
%TO.N,Net-(U8-C1)*%
X84250000Y-49262500D02*
X84250000Y-50525000D01*
X84250000Y-50525000D02*
X83775000Y-51000000D01*
%TO.N,VUSB*%
X79190000Y-46300000D02*
X78615001Y-46300000D01*
X78731176Y-51100000D02*
X79190000Y-51100000D01*
D87*
X148200000Y-41000000D02*
X150300000Y-43100000D01*
D10*
X77913000Y-50281824D02*
X78731176Y-51100000D01*
X77913000Y-47002001D02*
X77913000Y-50281824D01*
X78615001Y-46300000D02*
X77913000Y-47002001D01*
D87*
X150300000Y-43100000D02*
X150300000Y-47038000D01*
X80500000Y-46300000D02*
X79190000Y-46300000D01*
X150300000Y-47038000D02*
X150462000Y-47200000D01*
%TO.N,Net-(D1-K)*%
X149419000Y-48237500D02*
X149481500Y-48300000D01*
D10*
X147287500Y-47250000D02*
X148275000Y-48237500D01*
X146787500Y-46750000D02*
X147287500Y-47250000D01*
D87*
X149212500Y-47200000D02*
X149522000Y-47200000D01*
D10*
X145925000Y-47250000D02*
X147287500Y-47250000D01*
D87*
X148300000Y-48112500D02*
X149212500Y-47200000D01*
X148275000Y-48237500D02*
X149419000Y-48237500D01*
D10*
X145925000Y-46750000D02*
X146787500Y-46750000D01*
D88*
%TO.N,+BATT*%
X153815552Y-40600000D02*
X153764452Y-40651100D01*
D89*
X135520000Y-56400000D02*
X134025000Y-54905000D01*
X134025000Y-54905000D02*
X133930000Y-55000000D01*
D87*
X152720000Y-48300000D02*
X152920000Y-48500000D01*
D89*
X132908550Y-57216450D02*
X133725000Y-56400000D01*
X136250000Y-56400000D02*
X140200000Y-56400000D01*
D10*
X155800000Y-37000000D02*
X155800000Y-38615552D01*
D89*
X148220000Y-53200000D02*
X152920000Y-48500000D01*
X123356450Y-57216450D02*
X132908550Y-57216450D01*
D10*
X155800000Y-38615552D02*
X153764452Y-40651100D01*
D87*
X150393500Y-48300000D02*
X152720000Y-48300000D01*
D10*
X146962500Y-35250000D02*
X154050000Y-35250000D01*
D89*
X136250000Y-56400000D02*
X135520000Y-56400000D01*
D10*
X154050000Y-35250000D02*
X155800000Y-37000000D01*
D89*
X143400000Y-53200000D02*
X148220000Y-53200000D01*
X119520000Y-53380000D02*
X123356450Y-57216450D01*
X133725000Y-56400000D02*
X136250000Y-56400000D01*
X140200000Y-56400000D02*
X143400000Y-53200000D01*
X133930000Y-55000000D02*
X131490000Y-55000000D01*
D10*
%TO.N,PG*%
X146619366Y-42912500D02*
X148275000Y-42912500D01*
X144775000Y-45324000D02*
X144775000Y-44756866D01*
X144775000Y-44756866D02*
X146619366Y-42912500D01*
%TO.N,Net-(IC1-L1)*%
X145025000Y-47250000D02*
X145025000Y-48287500D01*
X145025000Y-48287500D02*
X146012500Y-49275000D01*
X146012500Y-49275000D02*
X146012500Y-50287500D01*
%TO.N,Net-(IC1-L2)*%
X144025000Y-47250000D02*
X144025000Y-48287500D01*
X144025000Y-48287500D02*
X143037500Y-49275000D01*
X143037500Y-49275000D02*
X143037500Y-50287500D01*
%TO.N,SYNC*%
X145925000Y-46250000D02*
X147600000Y-46250000D01*
X148275000Y-45993134D02*
X148275000Y-46412500D01*
X145275000Y-44925000D02*
X145500000Y-44700000D01*
X145275000Y-45324000D02*
X145275000Y-44925000D01*
X148112500Y-46250000D02*
X148275000Y-46412500D01*
X146981866Y-44700000D02*
X148275000Y-45993134D01*
X145500000Y-44700000D02*
X146981866Y-44700000D01*
X147600000Y-46250000D02*
X148112500Y-46250000D01*
%TO.N,Net-(IC1-FB)*%
X142450000Y-45750000D02*
X141475000Y-44775000D01*
X138750000Y-44775000D02*
X140500000Y-44775000D01*
X141475000Y-44775000D02*
X140500000Y-44775000D01*
X143125000Y-45750000D02*
X142450000Y-45750000D01*
%TO.N,D+*%
X93000000Y-44000000D02*
X93600000Y-44600000D01*
X80050000Y-49450000D02*
X81050000Y-48450000D01*
X81050000Y-48450000D02*
X82000000Y-47500000D01*
X82000000Y-47500000D02*
X82000000Y-44800000D01*
X93600000Y-44600000D02*
X93600000Y-45300000D01*
X82800000Y-44000000D02*
X93000000Y-44000000D01*
X82000000Y-44800000D02*
X82800000Y-44000000D01*
X79190000Y-49450000D02*
X80050000Y-49450000D01*
X79190000Y-48450000D02*
X81050000Y-48450000D01*
%TO.N,D-*%
X78314000Y-48682824D02*
X78581176Y-48950000D01*
X81599000Y-44633900D02*
X82633900Y-43599000D01*
X82633900Y-43599000D02*
X94099000Y-43599000D01*
X81599000Y-46901000D02*
X81599000Y-44633900D01*
X79190000Y-47950000D02*
X78581176Y-47950000D01*
X80550000Y-47950000D02*
X81599000Y-46901000D01*
X78314000Y-48217176D02*
X78314000Y-48682824D01*
X94099000Y-43599000D02*
X95100000Y-44600000D01*
X95100000Y-44600000D02*
X95100000Y-45300000D01*
X78581176Y-47950000D02*
X78314000Y-48217176D01*
X78581176Y-48950000D02*
X79190000Y-48950000D01*
X79190000Y-47950000D02*
X80550000Y-47950000D01*
D86*
%TO.N,Net-(J6-Pin_3)*%
X97636440Y-66953944D02*
X97636440Y-66947474D01*
X98895384Y-67474000D02*
X98894384Y-67475000D01*
X98894384Y-67475000D02*
X98157496Y-67475000D01*
X102850000Y-70213500D02*
X102850000Y-70550000D01*
X98157496Y-67475000D02*
X97636440Y-66953944D01*
X102850000Y-68750000D02*
X101574000Y-67474000D01*
X103600000Y-71300000D02*
X105900000Y-71300000D01*
X97636440Y-66947474D02*
X96900000Y-66211034D01*
X101574000Y-67474000D02*
X98895384Y-67474000D01*
X102850000Y-70550000D02*
X103600000Y-71300000D01*
X102850000Y-68850000D02*
X102850000Y-68750000D01*
X96900000Y-66211034D02*
X96900000Y-64550000D01*
%TO.N,Net-(J6-Pin_2)*%
X96500000Y-66300000D02*
X96500000Y-64550000D01*
X101400000Y-67800000D02*
X98000000Y-67800000D01*
X98000000Y-67800000D02*
X96500000Y-66300000D01*
X101950000Y-68350000D02*
X101400000Y-67800000D01*
X101950000Y-68837500D02*
X101950000Y-68350000D01*
D10*
%TO.N,Net-(J7-CLK)*%
X133181900Y-41701000D02*
X132880900Y-41400000D01*
X128550000Y-40700000D02*
X132200000Y-40700000D01*
X133200000Y-41701000D02*
X133181900Y-41701000D01*
X132200000Y-41200000D02*
X132200000Y-40700000D01*
X133200000Y-42200000D02*
X133200000Y-41701000D01*
X132400000Y-41400000D02*
X132200000Y-41200000D01*
X132880900Y-41400000D02*
X132400000Y-41400000D01*
X124782500Y-36932500D02*
X128550000Y-40700000D01*
X124782500Y-35635000D02*
X124782500Y-36932500D01*
%TO.N,/microSD/_DAT1*%
X134000000Y-41600000D02*
X133700000Y-41300000D01*
X134000000Y-42200000D02*
X134000000Y-41600000D01*
X128082500Y-35635000D02*
X128082500Y-37487000D01*
X133700000Y-41300000D02*
X133348000Y-41300000D01*
X133348000Y-41300000D02*
X133100000Y-41052000D01*
X132800000Y-38300000D02*
X132200000Y-38300000D01*
X128082500Y-37487000D02*
X128895500Y-38300000D01*
X133100000Y-38600000D02*
X132800000Y-38300000D01*
X133100000Y-41052000D02*
X133100000Y-38600000D01*
X128895500Y-38300000D02*
X132200000Y-38300000D01*
%TO.N,Net-(J7-DAT0)*%
X126982500Y-35635000D02*
X126982500Y-37732500D01*
X130500000Y-39400000D02*
X131100000Y-39400000D01*
X129000000Y-41750000D02*
X129450000Y-42200000D01*
X129450000Y-42200000D02*
X131600000Y-42200000D01*
X128650000Y-39400000D02*
X130500000Y-39400000D01*
X126982500Y-37732500D02*
X128650000Y-39400000D01*
X129000000Y-41300000D02*
X129000000Y-41750000D01*
X131100000Y-39400000D02*
X131600000Y-39900000D01*
X131600000Y-39900000D02*
X132200000Y-39900000D01*
X130500000Y-40100000D02*
X130500000Y-39400000D01*
D86*
%TO.N,/SD_detect*%
X114100000Y-49700000D02*
X116992500Y-49700000D01*
X86800000Y-58100000D02*
X87002000Y-58100000D01*
X88500000Y-58600000D02*
X90550000Y-58600000D01*
X118667500Y-48175000D02*
X118592500Y-48100000D01*
X87002000Y-58100000D02*
X87102000Y-58200000D01*
X114100000Y-49700000D02*
X113462500Y-49700000D01*
X88100000Y-58200000D02*
X88500000Y-58600000D01*
X87102000Y-58200000D02*
X88100000Y-58200000D01*
X116992500Y-49700000D02*
X118592500Y-48100000D01*
X113462500Y-49700000D02*
X113112500Y-49350000D01*
X122857500Y-48175000D02*
X118667500Y-48175000D01*
D10*
%TO.N,Net-(J7-CMD)*%
X113300000Y-40900000D02*
X113300000Y-40500000D01*
X122582500Y-37717500D02*
X119800000Y-40500000D01*
X122582500Y-35635000D02*
X122582500Y-37717500D01*
X112300000Y-41900000D02*
X113300000Y-40900000D01*
X112300000Y-42250000D02*
X112300000Y-41900000D01*
X119800000Y-40500000D02*
X113300000Y-40500000D01*
D86*
%TO.N,/GPIO42*%
X103100000Y-38900000D02*
X103100000Y-37020000D01*
X107200000Y-56367100D02*
X104967100Y-58600000D01*
X103100000Y-37020000D02*
X101830000Y-35750000D01*
X104967100Y-58600000D02*
X100450000Y-58600000D01*
X107200000Y-48700000D02*
X107200000Y-56367100D01*
X103437028Y-39237028D02*
X103100000Y-38900000D01*
X103437028Y-41088500D02*
X103437028Y-39237028D01*
%TO.N,/PWM3*%
X94100000Y-68425735D02*
X94100000Y-64550000D01*
%TO.N,/PWM1*%
X93212500Y-66537500D02*
X93300000Y-66450000D01*
X104500000Y-50500000D02*
X104500000Y-50498585D01*
X104500000Y-50498585D02*
X101487915Y-47486500D01*
X93300000Y-66450000D02*
X93300000Y-64550000D01*
%TO.N,/PWM4*%
X95081249Y-67829779D02*
X94500000Y-67248530D01*
X94500000Y-67248530D02*
X94500000Y-64550000D01*
%TO.N,/PWM2*%
X93612500Y-67600000D02*
X93612500Y-66987500D01*
X93700000Y-66900000D02*
X93700000Y-64550000D01*
X93612500Y-66987500D02*
X93700000Y-66900000D01*
X102400000Y-47565540D02*
X102400000Y-47486500D01*
X105399000Y-50564540D02*
X102400000Y-47565540D01*
%TO.N,Net-(J11-Pin_2)*%
X88051470Y-57800000D02*
X88300000Y-57800000D01*
X88700000Y-58200000D02*
X90550000Y-58200000D01*
X87152470Y-56901000D02*
X88051470Y-57800000D01*
X88300000Y-57800000D02*
X88700000Y-58200000D01*
%TO.N,/GPIO44*%
X104632900Y-57800000D02*
X100450000Y-57800000D01*
X105999000Y-49250000D02*
X105999000Y-56433900D01*
X105999000Y-56433900D02*
X104632900Y-57800000D01*
%TO.N,/GPIO41*%
X107800000Y-56400000D02*
X105200000Y-59000000D01*
X104600000Y-41700000D02*
X104600000Y-40200000D01*
X105521000Y-36901000D02*
X104370000Y-35750000D01*
X105200000Y-59000000D02*
X100450000Y-59000000D01*
X105521000Y-39279000D02*
X105521000Y-36901000D01*
X107800000Y-48300000D02*
X107800000Y-56400000D01*
X104600000Y-40200000D02*
X105521000Y-39279000D01*
%TO.N,/GPIO43*%
X104800000Y-58200000D02*
X100450000Y-58200000D01*
X98600000Y-40300000D02*
X98600000Y-39600000D01*
X106600000Y-56400000D02*
X104800000Y-58200000D01*
X98139000Y-36561000D02*
X98950000Y-35750000D01*
X98139000Y-39139000D02*
X98139000Y-36561000D01*
X98950000Y-35750000D02*
X99290000Y-35750000D01*
X106600000Y-48950000D02*
X106600000Y-56400000D01*
X98600000Y-39600000D02*
X98139000Y-39139000D01*
D87*
%TO.N,/Pyro/PYRO_LOW*%
X140500000Y-58250000D02*
X140050000Y-58700000D01*
X141250000Y-57100000D02*
X143900000Y-54450000D01*
X141250000Y-58287500D02*
X141250000Y-57100000D01*
X143900000Y-54450000D02*
X150175702Y-54450000D01*
X141250000Y-58287500D02*
X141212500Y-58250000D01*
X141212500Y-58250000D02*
X140500000Y-58250000D01*
X150175702Y-54450000D02*
X153715301Y-57989599D01*
X140050000Y-58700000D02*
X139550000Y-58700000D01*
D90*
%TO.N,/Pyro/PYRO3*%
X152080000Y-67250000D02*
X151420000Y-67250000D01*
X152080000Y-67244900D02*
X153715301Y-65609599D01*
X153715301Y-65609599D02*
X158795301Y-65609599D01*
X152080000Y-67250000D02*
X152080000Y-67244900D01*
%TO.N,/Pyro/PYRO4*%
X152650645Y-60529599D02*
X153715301Y-60529599D01*
X153715301Y-60529599D02*
X158795301Y-60529599D01*
X151945546Y-59824500D02*
X152650645Y-60529599D01*
X151429844Y-59824500D02*
X151945546Y-59824500D01*
%TO.N,/Pyro/PYRO2*%
X143250000Y-68000000D02*
X142906250Y-67656250D01*
X142906250Y-67656250D02*
X142300000Y-67656250D01*
X143250000Y-68750000D02*
X143250000Y-68000000D01*
X153715301Y-70689599D02*
X158795301Y-70689599D01*
%TO.N,/Pyro/PYRO1*%
X152044000Y-74444000D02*
X152300000Y-74700000D01*
X153715301Y-75769599D02*
X158795301Y-75769599D01*
X152300000Y-74700000D02*
X152300000Y-75500000D01*
X152300000Y-75500000D02*
X152569599Y-75769599D01*
X152569599Y-75769599D02*
X153715301Y-75769599D01*
X151421844Y-74444000D02*
X152044000Y-74444000D01*
D10*
%TO.N,Net-(Q1-B)*%
X127940000Y-55690000D02*
X128250000Y-56000000D01*
X126480000Y-55690000D02*
X127940000Y-55690000D01*
X128760000Y-56000000D02*
X128810000Y-55950000D01*
X126920000Y-55250000D02*
X126480000Y-55690000D01*
X128250000Y-56000000D02*
X128760000Y-56000000D01*
X128810000Y-55950000D02*
X129010000Y-55950000D01*
%TO.N,/Pyro/PYRO_HIGH*%
X150276000Y-63433500D02*
X150480000Y-63637500D01*
D90*
X150120000Y-69250000D02*
X150120000Y-69620000D01*
X151473156Y-63637500D02*
X151728156Y-63892500D01*
X150120000Y-69620000D02*
X150600000Y-70100000D01*
D89*
X128190000Y-49400000D02*
X126480000Y-51110000D01*
D90*
X151597901Y-70987500D02*
X150600000Y-70987500D01*
X141000000Y-70400000D02*
X141000000Y-69656250D01*
D89*
X136700000Y-50200000D02*
X135900000Y-49400000D01*
D90*
X150480000Y-63637500D02*
X151473156Y-63637500D01*
D87*
X142900000Y-64243750D02*
X141850000Y-64243750D01*
D90*
X151728156Y-63892500D02*
X151728156Y-64292500D01*
X150480000Y-62840000D02*
X150480000Y-63637500D01*
X150121844Y-77340000D02*
X150121844Y-76444000D01*
X150129844Y-62489844D02*
X150480000Y-62840000D01*
X151800000Y-71600000D02*
X151800000Y-71189599D01*
X141425000Y-70825000D02*
X141000000Y-70400000D01*
X150600000Y-70100000D02*
X150600000Y-70987500D01*
D89*
X136700000Y-53700000D02*
X136700000Y-50200000D01*
D90*
X150129844Y-61824500D02*
X150129844Y-62489844D01*
X151800000Y-71189599D02*
X151597901Y-70987500D01*
D89*
X135900000Y-49400000D02*
X128190000Y-49400000D01*
D10*
%TO.N,Net-(Q5-G)*%
X136537500Y-58287500D02*
X137000000Y-58750000D01*
X135900000Y-58287500D02*
X136537500Y-58287500D01*
X137600000Y-58750000D02*
X137650000Y-58700000D01*
X137000000Y-58750000D02*
X137600000Y-58750000D01*
X134200000Y-58287500D02*
X135900000Y-58287500D01*
D87*
%TO.N,Net-(Q6-S)*%
X144987500Y-72800000D02*
X144987500Y-75429656D01*
X144987500Y-75429656D02*
X145001844Y-75444000D01*
D10*
%TO.N,Net-(Q6-D)*%
X148001844Y-76394000D02*
X148001844Y-75698156D01*
X148200000Y-75500000D02*
X148900000Y-75500000D01*
X149400000Y-74100000D02*
X148900000Y-73600000D01*
X148900000Y-73600000D02*
X148900000Y-72812500D01*
X148001844Y-75698156D02*
X148200000Y-75500000D01*
X148900000Y-75500000D02*
X149400000Y-75000000D01*
X149400000Y-75000000D02*
X149400000Y-74100000D01*
%TO.N,Net-(Q6-G)*%
X146812500Y-71100000D02*
X147500000Y-71100000D01*
X147500000Y-71100000D02*
X147800000Y-71400000D01*
X147800000Y-71400000D02*
X147800000Y-73800000D01*
X147800000Y-73800000D02*
X148001844Y-74001844D01*
X148001844Y-74001844D02*
X148001844Y-74494000D01*
%TO.N,Net-(Q7-D)*%
X139000000Y-69606250D02*
X140400000Y-68206250D01*
X140400000Y-66218750D02*
X140250000Y-66068750D01*
X140400000Y-68206250D02*
X140400000Y-66218750D01*
%TO.N,Net-(Q7-G)*%
X137662500Y-64156250D02*
X139000000Y-65493750D01*
X139000000Y-65493750D02*
X139000000Y-67706250D01*
D87*
%TO.N,Net-(Q7-S)*%
X136000000Y-68656250D02*
X136000000Y-66068750D01*
X136000000Y-66068750D02*
X135837500Y-65906250D01*
D10*
%TO.N,Net-(Q8-D)*%
X148640000Y-65430000D02*
X149550000Y-66340000D01*
X149550000Y-66340000D02*
X149550000Y-67810000D01*
X149550000Y-67810000D02*
X148040000Y-69320000D01*
D87*
%TO.N,Net-(Q8-S)*%
X145040000Y-65457500D02*
X145127500Y-65370000D01*
X145040000Y-68370000D02*
X145040000Y-65457500D01*
D10*
%TO.N,Net-(Q8-G)*%
X146812500Y-63700000D02*
X146712500Y-63700000D01*
X147880000Y-66450000D02*
X147880000Y-63950000D01*
X148111844Y-66681844D02*
X147880000Y-66450000D01*
X147680000Y-63750000D02*
X146862500Y-63750000D01*
X146862500Y-63750000D02*
X146812500Y-63700000D01*
X148111844Y-67204346D02*
X148111844Y-66681844D01*
X147880000Y-63950000D02*
X147680000Y-63750000D01*
D87*
%TO.N,Net-(Q9-S)*%
X144912000Y-60712000D02*
X144912000Y-59312000D01*
X144912000Y-59312000D02*
X144687500Y-59087500D01*
X144687500Y-59087500D02*
X144687500Y-58031406D01*
D10*
%TO.N,Net-(Q9-D)*%
X149163000Y-60411000D02*
X147912000Y-61662000D01*
X149163000Y-58810156D02*
X149163000Y-60411000D01*
X148396750Y-58043906D02*
X149163000Y-58810156D01*
%TO.N,Net-(Q9-G)*%
X147620750Y-57617272D02*
X147620750Y-59470750D01*
X147203478Y-57200000D02*
X147620750Y-57617272D01*
X146779250Y-56548156D02*
X146779250Y-56779250D01*
X146779250Y-56779250D02*
X147200000Y-57200000D01*
X147200000Y-57200000D02*
X147203478Y-57200000D01*
X146512500Y-56281406D02*
X146779250Y-56548156D01*
X147620750Y-59470750D02*
X147912000Y-59762000D01*
%TO.N,Net-(Q10-G)*%
X150121844Y-74444000D02*
X150121844Y-74078156D01*
X150600000Y-73600000D02*
X150600000Y-72812500D01*
X148900000Y-70987500D02*
X148900000Y-71112500D01*
X150121844Y-74078156D02*
X150600000Y-73600000D01*
X148900000Y-71112500D02*
X150600000Y-72812500D01*
%TO.N,Net-(Q11-G)*%
X141850000Y-66068750D02*
X141000000Y-66918750D01*
X140250000Y-64468750D02*
X141850000Y-66068750D01*
X141000000Y-66918750D02*
X141000000Y-67656250D01*
X140250000Y-64243750D02*
X140250000Y-64468750D01*
%TO.N,Net-(Q12-G)*%
X150480000Y-65344344D02*
X150480000Y-65462500D01*
X150120000Y-66910000D02*
X150480000Y-66550000D01*
X150120000Y-67250000D02*
X150120000Y-66910000D01*
X150480000Y-66550000D02*
X150480000Y-65462500D01*
X148780000Y-63650000D02*
X150431844Y-65301844D01*
%TO.N,Net-(Q13-G)*%
X150129844Y-58057000D02*
X150116750Y-58043906D01*
X150116750Y-58043906D02*
X148396750Y-56323906D01*
X148396750Y-56323906D02*
X148396750Y-56218906D01*
D87*
X150129844Y-59824500D02*
X150129844Y-58057000D01*
D86*
%TO.N,/SS*%
X99580000Y-40595000D02*
X100662500Y-40595000D01*
X93700000Y-54650000D02*
X93700000Y-52650000D01*
X104250000Y-46500000D02*
X104250000Y-42750000D01*
X101474999Y-40595000D02*
X100662500Y-40595000D01*
X101479999Y-40600000D02*
X101474999Y-40595000D01*
X102100000Y-40600000D02*
X101479999Y-40600000D01*
X96975000Y-43200000D02*
X99580000Y-40595000D01*
X106250000Y-46500000D02*
X104250000Y-46500000D01*
X104250000Y-42750000D02*
X102100000Y-40600000D01*
X91508949Y-50458949D02*
X91508949Y-49700000D01*
X93700000Y-52650000D02*
X91508949Y-50458949D01*
D10*
%TO.N,/QSPI Flash/~{USB_BOOT}*%
X102425000Y-46500000D02*
X100956000Y-45031000D01*
X97231000Y-45031000D02*
X96375000Y-44175000D01*
X100956000Y-45031000D02*
X97231000Y-45031000D01*
X96375000Y-44175000D02*
X96375000Y-41500000D01*
D86*
%TO.N,/XOUT*%
X97136500Y-69051602D02*
X97484898Y-69400000D01*
X106461034Y-69400000D02*
X106711034Y-69650000D01*
X106711034Y-69650000D02*
X109600000Y-69650000D01*
X97484898Y-69400000D02*
X106461034Y-69400000D01*
X95700000Y-66528132D02*
X96035933Y-66864067D01*
X95700000Y-64550000D02*
X95700000Y-66528132D01*
X96035933Y-66864067D02*
X97136500Y-67964633D01*
X97136500Y-67964633D02*
X97136500Y-69051602D01*
D10*
%TO.N,Net-(U1-USB_DP)*%
X96900000Y-54650000D02*
X96900000Y-50500000D01*
X96900000Y-50500000D02*
X93812500Y-47412500D01*
X93312500Y-47412500D02*
X93600000Y-47125000D01*
X93812500Y-47412500D02*
X93312500Y-47412500D01*
%TO.N,Net-(U1-USB_DM)*%
X97300000Y-49400000D02*
X95375000Y-47475000D01*
X94750000Y-47475000D02*
X95100000Y-47125000D01*
X95375000Y-47475000D02*
X94750000Y-47475000D01*
X97300000Y-54650000D02*
X97300000Y-49400000D01*
%TO.N,Net-(R7-Pad2)*%
X112950000Y-68325000D02*
X111975000Y-67350000D01*
X112950000Y-68837500D02*
X112950000Y-68325000D01*
%TO.N,Net-(R8-Pad1)*%
X132087500Y-50587500D02*
X131500000Y-50587500D01*
X132595000Y-51095000D02*
X132087500Y-50587500D01*
X134025000Y-51095000D02*
X132595000Y-51095000D01*
D86*
%TO.N,/PYRO_SENSE*%
X142850000Y-60650000D02*
X142850000Y-60112500D01*
X133092464Y-61250000D02*
X136598530Y-61250000D01*
X104250000Y-61000000D02*
X103450000Y-60200000D01*
X133046232Y-61296232D02*
X133092464Y-61250000D01*
X141750000Y-61750000D02*
X142850000Y-60650000D01*
X136598530Y-61250000D02*
X137299265Y-61950735D01*
X131857536Y-61000000D02*
X104250000Y-61000000D01*
X132028768Y-60828768D02*
X131857536Y-61000000D01*
X103450000Y-60200000D02*
X100450000Y-60200000D01*
X142850000Y-60112500D02*
X141250000Y-60112500D01*
%TO.N,/PYRO_ENABLE*%
X102475000Y-62200000D02*
X100450000Y-62200000D01*
X132400000Y-63100000D02*
X103375000Y-63100000D01*
X103375000Y-63100000D02*
X102475000Y-62200000D01*
X132500000Y-63200000D02*
X132400000Y-63100000D01*
X133000000Y-63200000D02*
X132500000Y-63200000D01*
%TO.N,/PYRO_FIRE_1*%
X139750000Y-70500000D02*
X141000000Y-71750000D01*
X143400000Y-71100000D02*
X144987500Y-71100000D01*
X102650000Y-61800000D02*
X103525000Y-62675000D01*
X134500000Y-69250000D02*
X135750000Y-70500000D01*
X133325000Y-62675000D02*
X134500000Y-63850000D01*
X103525000Y-62675000D02*
X133325000Y-62675000D01*
X142750000Y-71750000D02*
X143400000Y-71100000D01*
X134500000Y-63850000D02*
X134500000Y-69250000D01*
X141000000Y-71750000D02*
X142750000Y-71750000D01*
X100450000Y-61800000D02*
X102650000Y-61800000D01*
X135750000Y-70500000D02*
X139750000Y-70500000D01*
%TO.N,/PYRO_FIRE_2*%
X135837500Y-62837500D02*
X135837500Y-64156250D01*
X135225000Y-62225000D02*
X135837500Y-62837500D01*
X102825000Y-61400000D02*
X103650000Y-62225000D01*
X100450000Y-61400000D02*
X102825000Y-61400000D01*
X103650000Y-62225000D02*
X135225000Y-62225000D01*
%TO.N,/PYRO_FIRE_3*%
X137500000Y-63000000D02*
X145000000Y-63000000D01*
X145167500Y-63167500D02*
X145167500Y-63520000D01*
X136324000Y-61824000D02*
X137500000Y-63000000D01*
X103000000Y-61000000D02*
X103824000Y-61824000D01*
X103824000Y-61824000D02*
X136324000Y-61824000D01*
X144987500Y-63700000D02*
X144887500Y-63700000D01*
X145000000Y-63000000D02*
X145167500Y-63167500D01*
X100450000Y-61000000D02*
X103000000Y-61000000D01*
X145167500Y-63520000D02*
X144987500Y-63700000D01*
%TO.N,/PYRO_FIRE_4*%
X139900000Y-57250000D02*
X133950000Y-57250000D01*
X144668906Y-56300000D02*
X144687500Y-56281406D01*
X133200000Y-60400000D02*
X132177000Y-61423000D01*
X143550000Y-56300000D02*
X144668906Y-56300000D01*
X104023000Y-61423000D02*
X103200000Y-60600000D01*
X103200000Y-60600000D02*
X100450000Y-60600000D01*
X133950000Y-57250000D02*
X133200000Y-58000000D01*
X133200000Y-58000000D02*
X133200000Y-60400000D01*
X132177000Y-61423000D02*
X104023000Y-61423000D01*
%TO.N,/SD_DAT2*%
X88100000Y-51400000D02*
X88100000Y-55100000D01*
X88100000Y-55100000D02*
X89600000Y-56600000D01*
X111500000Y-44900000D02*
X111500000Y-44050000D01*
X89600000Y-56600000D02*
X90550000Y-56600000D01*
%TO.N,/SD_DAT3*%
X113700000Y-45400000D02*
X113900000Y-45200000D01*
X113900000Y-45200000D02*
X113900000Y-44050000D01*
X87500000Y-52900000D02*
X87500000Y-55200000D01*
X89300000Y-57000000D02*
X90550000Y-57000000D01*
X87500000Y-55200000D02*
X89300000Y-57000000D01*
%TO.N,/SD_CMD*%
X91300000Y-51900000D02*
X91300000Y-53700000D01*
X91700000Y-54100000D02*
X91700000Y-54650000D01*
X112300000Y-45900000D02*
X112300000Y-44050000D01*
X91300000Y-53700000D02*
X91700000Y-54100000D01*
%TO.N,/SD_DAT0*%
X131600000Y-44800000D02*
X131600000Y-44000000D01*
X131000000Y-45400000D02*
X131600000Y-44800000D01*
X90000000Y-55800000D02*
X90550000Y-55800000D01*
X89300000Y-53500000D02*
X89300000Y-55100000D01*
X131000000Y-46200000D02*
X131000000Y-45400000D01*
X89300000Y-55100000D02*
X90000000Y-55800000D01*
%TO.N,/SD_CLK*%
X132300000Y-45400000D02*
X133200000Y-44500000D01*
X132300000Y-45800000D02*
X132300000Y-45400000D01*
X133200000Y-44500000D02*
X133200000Y-44000000D01*
X92100000Y-53574000D02*
X92100000Y-54650000D01*
%TO.N,/SD_DAT1*%
X88700000Y-55100000D02*
X89800000Y-56200000D01*
X133714496Y-45385504D02*
X134000000Y-45100000D01*
X133714496Y-45400000D02*
X133714496Y-45385504D01*
X88700000Y-54500000D02*
X88700000Y-55100000D01*
X89800000Y-56200000D02*
X90550000Y-56200000D01*
X134000000Y-45100000D02*
X134000000Y-44000000D01*
%TO.N,/RESET*%
X97962440Y-66818910D02*
X97962440Y-66812440D01*
X97300000Y-66150000D02*
X97300000Y-64550000D01*
X98760350Y-67148000D02*
X98759350Y-67149000D01*
X104225000Y-67350000D02*
X101911034Y-67350000D01*
X101709034Y-67148000D02*
X98760350Y-67148000D01*
X98292530Y-67149000D02*
X97962440Y-66818910D01*
X101911034Y-67350000D02*
X101709034Y-67148000D01*
X97962440Y-66812440D02*
X97300000Y-66150000D01*
X98759350Y-67149000D02*
X98292530Y-67149000D01*
%TO.N,/SCLK*%
X94600000Y-49100000D02*
X94600000Y-51200000D01*
X106565000Y-43135000D02*
X107837500Y-43135000D01*
X104900000Y-45500000D02*
X104900000Y-44800000D01*
X95300000Y-51900000D02*
X95300000Y-54650000D01*
X104900000Y-44800000D02*
X106565000Y-43135000D01*
X94600000Y-51200000D02*
X95300000Y-51900000D01*
%TO.N,/IMU_INT2*%
X93506300Y-73493700D02*
X92710301Y-73493700D01*
X92500000Y-65706831D02*
X92500000Y-64550000D01*
X92375001Y-65831830D02*
X92500000Y-65706831D01*
X93850000Y-71000000D02*
X93850000Y-73150000D01*
X93850000Y-73150000D02*
X93506300Y-73493700D01*
%TO.N,/SD2*%
X98300000Y-44400000D02*
X99565000Y-43135000D01*
X92801468Y-50535668D02*
X94500000Y-52234200D01*
X99565000Y-43135000D02*
X100662500Y-43135000D01*
X94500000Y-52234200D02*
X94500000Y-54650000D01*
X92801468Y-49500000D02*
X92801468Y-50535668D01*
X97600000Y-44400000D02*
X98300000Y-44400000D01*
%TO.N,/SPI1.RX*%
X85500000Y-59299000D02*
X85500000Y-59325000D01*
X85500000Y-59325000D02*
X85575000Y-59400000D01*
X85575000Y-59400000D02*
X86100000Y-59400000D01*
X86500000Y-59800000D02*
X90550000Y-59800000D01*
X84624000Y-58423000D02*
X84624000Y-53776000D01*
X84624000Y-53776000D02*
X85738500Y-52661500D01*
X85500000Y-59299000D02*
X84624000Y-58423000D01*
X85738500Y-49726000D02*
X85262500Y-49250000D01*
X86100000Y-59400000D02*
X86500000Y-59800000D01*
X85738500Y-52661500D02*
X85738500Y-49726000D01*
D10*
%TO.N,Net-(D5-A)*%
X117050000Y-70900000D02*
X117050000Y-73300000D01*
X117050000Y-73300000D02*
X119250000Y-75500000D01*
D86*
%TO.N,/IMU_CS*%
X92900000Y-71000000D02*
X92300000Y-71000000D01*
X92000000Y-71300000D02*
X92000000Y-72287400D01*
X92300000Y-71000000D02*
X92000000Y-71300000D01*
X91000000Y-65700000D02*
X91700000Y-65000000D01*
X91700000Y-65000000D02*
X91700000Y-64550000D01*
%TO.N,/SPI1.CK*%
X83900000Y-69100000D02*
X95600000Y-69100000D01*
X95600000Y-69100000D02*
X96600000Y-70100000D01*
X83350000Y-58923527D02*
X83350000Y-58950000D01*
X83400000Y-68600000D02*
X83900000Y-69100000D01*
X81400000Y-49200000D02*
X81400000Y-57000000D01*
X83400000Y-68350000D02*
X83400000Y-68600000D01*
X99550000Y-72650000D02*
X98962500Y-72650000D01*
X96600000Y-70100000D02*
X98529864Y-70100000D01*
X98529864Y-70100000D02*
X99800000Y-71370136D01*
X83400000Y-61000000D02*
X83400000Y-68350000D01*
X85700000Y-60300000D02*
X86000000Y-60600000D01*
D10*
X91500001Y-71393643D02*
X91500001Y-72287400D01*
X91500000Y-71393642D02*
X91500001Y-71393643D01*
D86*
X99800000Y-72400000D02*
X99550000Y-72650000D01*
X83737500Y-47750000D02*
X82850000Y-47750000D01*
X82850000Y-47750000D02*
X81400000Y-49200000D01*
X83350000Y-58950000D02*
X84700000Y-60300000D01*
X86000000Y-60600000D02*
X90550000Y-60600000D01*
X81400000Y-57000000D02*
X82150000Y-57750000D01*
D10*
X91500000Y-71000000D02*
X91500000Y-71393642D01*
D86*
X84700000Y-60300000D02*
X85700000Y-60300000D01*
X99800000Y-71370136D02*
X99800000Y-72400000D01*
%TO.N,/MAG_CS*%
X83350000Y-57400000D02*
X83350000Y-58075000D01*
X85899000Y-59899000D02*
X86200000Y-60200000D01*
X83350000Y-58075000D02*
X85174000Y-59899000D01*
X82975000Y-48750000D02*
X83737500Y-48750000D01*
X82150000Y-55700000D02*
X82150000Y-49575000D01*
X85174000Y-59899000D02*
X85899000Y-59899000D01*
X82150000Y-49575000D02*
X82975000Y-48750000D01*
X86200000Y-60200000D02*
X90550000Y-60200000D01*
%TO.N,/IMU45_INT1*%
X89400000Y-62600000D02*
X86600000Y-65400000D01*
X90550000Y-62600000D02*
X89400000Y-62600000D01*
D10*
%TO.N,Net-(D6-A)*%
X116250000Y-74250000D02*
X117500000Y-75500000D01*
X116250000Y-70900000D02*
X116250000Y-74250000D01*
D86*
%TO.N,/IMU_INT1*%
X92100000Y-64550000D02*
X92100000Y-65300000D01*
X89100000Y-73750000D02*
X89343701Y-73993701D01*
X89100000Y-72800828D02*
X89100000Y-73750000D01*
X88199172Y-71900000D02*
X89100000Y-72800828D01*
X89343701Y-73993701D02*
X90289701Y-73993701D01*
X92100000Y-65300000D02*
X91740000Y-65660000D01*
%TO.N,/SD3*%
X95288008Y-51255108D02*
X95700000Y-51667100D01*
X103400000Y-47600000D02*
X103886500Y-48086500D01*
X103400000Y-43100000D02*
X103400000Y-47600000D01*
X95700000Y-51667100D02*
X95700000Y-54650000D01*
X95288008Y-50125000D02*
X95288008Y-51255108D01*
X106735000Y-41865000D02*
X107837500Y-41865000D01*
X105500000Y-42600000D02*
X106000000Y-42600000D01*
X106000000Y-42600000D02*
X106735000Y-41865000D01*
%TO.N,/SD0*%
X106148529Y-44400000D02*
X107832500Y-44400000D01*
X94900000Y-54650000D02*
X94900000Y-52067100D01*
X105850000Y-44698529D02*
X106148529Y-44400000D01*
X107832500Y-44400000D02*
X107837500Y-44405000D01*
X93800000Y-50967100D02*
X93800000Y-50400000D01*
X94900000Y-52067100D02*
X93800000Y-50967100D01*
%TO.N,/BARO_INT*%
X98485500Y-66585500D02*
X97700000Y-65800000D01*
X96150000Y-73150000D02*
X97437500Y-73150000D01*
X98525940Y-66585500D02*
X98485500Y-66585500D01*
X97700000Y-65800000D02*
X97700000Y-64550000D01*
%TO.N,/SPI1.TX*%
X83050000Y-50075000D02*
X82750000Y-50375000D01*
X83737500Y-49812500D02*
X83475000Y-50075000D01*
X83475000Y-50075000D02*
X83050000Y-50075000D01*
X91000002Y-71300002D02*
X91000002Y-72287400D01*
X83900000Y-60200000D02*
X84400000Y-60700000D01*
X82750000Y-60150000D02*
X82800000Y-60200000D01*
X83737500Y-49250000D02*
X83737500Y-49812500D01*
X90700000Y-71000000D02*
X91000002Y-71300002D01*
X90200000Y-71000000D02*
X90700000Y-71000000D01*
X82800000Y-60200000D02*
X83900000Y-60200000D01*
X84400000Y-60700000D02*
X85450000Y-60700000D01*
X82750000Y-50375000D02*
X82750000Y-60150000D01*
X85750000Y-61000000D02*
X90550000Y-61000000D01*
X85450000Y-60700000D02*
X85750000Y-61000000D01*
D10*
%TO.N,Net-(D7-A)*%
X115450000Y-75162500D02*
X115750000Y-75462500D01*
X115450000Y-70900000D02*
X115450000Y-75162500D01*
X115450000Y-70900000D02*
X114650000Y-70900000D01*
D86*
%TO.N,/BARO_CS*%
X101986500Y-66536500D02*
X99272434Y-66536500D01*
X102250000Y-66800000D02*
X101986500Y-66536500D01*
X99272434Y-66536500D02*
X98100000Y-65364066D01*
X96750000Y-72500000D02*
X96900000Y-72650000D01*
X98100000Y-65364066D02*
X98100000Y-64550000D01*
X96750000Y-71650000D02*
X96750000Y-72500000D01*
X96900000Y-72650000D02*
X97437500Y-72650000D01*
%TO.N,/IMU45_CS*%
X80400000Y-63000000D02*
X80400000Y-66650000D01*
X88200000Y-59000000D02*
X90550000Y-59000000D01*
X82730879Y-71323774D02*
X83477346Y-72070241D01*
X81574000Y-69141100D02*
X82730879Y-70297979D01*
X87851473Y-58800000D02*
X87851474Y-58800001D01*
X88000001Y-58800001D02*
X88200000Y-59000000D01*
X81574000Y-67824000D02*
X81574000Y-69141100D01*
X80800000Y-62600000D02*
X80400000Y-63000000D01*
X82730879Y-70297979D02*
X82730879Y-71323774D01*
X80400000Y-66650000D02*
X81574000Y-67824000D01*
X87851474Y-58800001D02*
X88000001Y-58800001D01*
%TO.N,/SD1*%
X94100000Y-54650000D02*
X94100000Y-52450000D01*
X92109949Y-48490051D02*
X92200000Y-48400000D01*
X94100000Y-52450000D02*
X92109949Y-50459949D01*
X92109949Y-50459949D02*
X92109949Y-48490051D01*
X98250000Y-43250000D02*
X99750000Y-41750000D01*
X100547500Y-41750000D02*
X100662500Y-41865000D01*
X99750000Y-41750000D02*
X100547500Y-41750000D01*
%TO.N,/BUZZ*%
X117000000Y-44800000D02*
X117500000Y-44300000D01*
X101900000Y-63000000D02*
X100450000Y-63000000D01*
X109500000Y-60000000D02*
X112200000Y-57300000D01*
X103570000Y-64320000D02*
X103220000Y-64320000D01*
X117500000Y-44300000D02*
X117500000Y-43999000D01*
X112200000Y-48500000D02*
X115900000Y-44800000D01*
X108900000Y-60000000D02*
X109500000Y-60000000D01*
X115900000Y-44800000D02*
X117000000Y-44800000D01*
X108525000Y-60375000D02*
X108900000Y-60000000D01*
X103220000Y-64320000D02*
X101900000Y-63000000D01*
X112200000Y-57300000D02*
X112200000Y-48500000D01*
D10*
%TO.N,/L_RED*%
X114650000Y-67150000D02*
X114650000Y-69100000D01*
X98500000Y-64550000D02*
X98500000Y-65250000D01*
X98500000Y-65250000D02*
X99400000Y-66150000D01*
X113650000Y-66150000D02*
X114650000Y-67150000D01*
X115450000Y-69100000D02*
X114650000Y-69100000D01*
X99400000Y-66150000D02*
X113650000Y-66150000D01*
%TO.N,/L_GREEN*%
X116250000Y-69100000D02*
X116250000Y-66500000D01*
X99599000Y-65749000D02*
X98900000Y-65050000D01*
X115499000Y-65749000D02*
X99599000Y-65749000D01*
X98900000Y-65050000D02*
X98900000Y-64550000D01*
X116250000Y-66500000D02*
X115499000Y-65749000D01*
%TO.N,/L_BLUE*%
X116900000Y-68950000D02*
X117050000Y-69100000D01*
X115848000Y-65348000D02*
X117050000Y-66550000D01*
X99300000Y-64850000D02*
X99798000Y-65348000D01*
X99798000Y-65348000D02*
X115848000Y-65348000D01*
X99300000Y-64550000D02*
X99300000Y-64850000D01*
X117050000Y-66550000D02*
X117050000Y-69100000D01*
%TO.N,+3V3*%
X98700000Y-73662500D02*
X98700000Y-74637500D01*
X96100000Y-52100000D02*
X96100000Y-54650000D01*
X85887500Y-48250000D02*
X87000000Y-47137500D01*
X138950000Y-48162500D02*
X137400000Y-48162500D01*
X102400000Y-75500000D02*
X102400000Y-74700000D01*
X85225000Y-46000000D02*
X85225000Y-47712500D01*
X85250000Y-45350000D02*
X85250000Y-45975000D01*
X90437501Y-75743699D02*
X90137500Y-76043700D01*
X84800000Y-75250000D02*
X84800000Y-74807105D01*
X143600000Y-61800000D02*
X143300000Y-62100000D01*
X142750000Y-46750000D02*
X143125000Y-46750000D01*
X135750000Y-39900000D02*
X135450000Y-39900000D01*
X96500000Y-52500000D02*
X96100000Y-52100000D01*
X96500000Y-54650000D02*
X96500000Y-52500000D01*
X133875000Y-34600000D02*
X133875000Y-36150000D01*
X98700000Y-74637500D02*
X99062500Y-75000000D01*
X109300000Y-46512500D02*
X111287500Y-48500000D01*
X103600000Y-50800000D02*
X103600000Y-50822836D01*
X141750000Y-47750000D02*
X142750000Y-46750000D01*
X85642405Y-72322654D02*
X86776113Y-72322654D01*
X86776113Y-72322654D02*
X87859879Y-73406420D01*
X85186142Y-72778917D02*
X85642405Y-72322654D01*
X110850000Y-38100000D02*
X111612500Y-38100000D01*
X87913645Y-73406420D02*
X87859879Y-73406420D01*
X90500000Y-47100000D02*
X90400000Y-47100000D01*
X149237500Y-44737500D02*
X149300000Y-44800000D01*
X94387502Y-73993701D02*
X94500001Y-74106200D01*
X96248000Y-68148000D02*
X94900000Y-66800000D01*
X102000000Y-56000000D02*
X101500000Y-56000000D01*
X84110119Y-75939881D02*
X84800000Y-75250000D01*
X144400000Y-61800000D02*
X143600000Y-61800000D01*
X106537500Y-60000000D02*
X104000000Y-60000000D01*
X101500000Y-56000000D02*
X101300000Y-56200000D01*
X85186142Y-72774519D02*
X85186142Y-72778917D01*
X85262500Y-48250000D02*
X85887500Y-48250000D01*
X99975000Y-74125000D02*
X99800000Y-74300000D01*
X100000000Y-73462500D02*
X100000000Y-74100000D01*
X93300000Y-52850000D02*
X90750000Y-50300000D01*
X101600000Y-63400000D02*
X100450000Y-63400000D01*
X109405000Y-40595000D02*
X107837500Y-40595000D01*
X88100000Y-73600000D02*
X88100000Y-73592775D01*
X92710301Y-73993701D02*
X94387502Y-73993701D01*
X90500000Y-47100000D02*
X92075000Y-47100000D01*
X104250000Y-51472836D02*
X104250000Y-52000000D01*
X110475000Y-38475000D02*
X110900000Y-38900000D01*
X109300000Y-46500000D02*
X108075000Y-46500000D01*
X92075000Y-47100000D02*
X92100000Y-47075000D01*
X145488064Y-61800000D02*
X144400000Y-61800000D01*
X101500000Y-56000000D02*
X101300000Y-55800000D01*
X91325000Y-66730000D02*
X91325000Y-68200000D01*
X111287500Y-48500000D02*
X111287500Y-49350000D01*
X140500000Y-48162500D02*
X138950000Y-48162500D01*
X91325000Y-66730000D02*
X92276123Y-66730000D01*
X85500000Y-54500000D02*
X86200000Y-54500000D01*
X92276123Y-66730000D02*
X92900002Y-66106121D01*
X135450000Y-39900000D02*
X134650000Y-40700000D01*
X99687500Y-73150000D02*
X100000000Y-73462500D01*
X110600000Y-40500000D02*
X111500000Y-40500000D01*
X93300000Y-54650000D02*
X93300000Y-52850000D01*
X92900002Y-66106121D02*
X92900000Y-64550000D01*
X84800000Y-74807105D02*
X84122654Y-74129759D01*
X85250000Y-45975000D02*
X85225000Y-46000000D01*
X98563235Y-51088235D02*
X98563235Y-51036765D01*
X135750000Y-39900000D02*
X134000000Y-39900000D01*
X96100000Y-51100000D02*
X96100000Y-52100000D01*
X134650000Y-40700000D02*
X134000000Y-40700000D01*
X90437501Y-75406200D02*
X90437501Y-75743699D01*
X85225000Y-47712500D02*
X85262500Y-47750000D01*
X146500000Y-60700000D02*
X146500000Y-60788064D01*
X109300000Y-46500000D02*
X109300000Y-46512500D01*
X102440000Y-64690000D02*
X102440000Y-64240000D01*
X109500000Y-40550000D02*
X109550000Y-40500000D01*
X91000002Y-74200000D02*
X91000002Y-74843699D01*
X142250000Y-47250000D02*
X143125000Y-47250000D01*
X87000000Y-47137500D02*
X89000000Y-47137500D01*
X109300000Y-46500000D02*
X109800000Y-46000000D01*
X88750000Y-74250000D02*
X88100000Y-73600000D01*
X141750000Y-47750000D02*
X142250000Y-47250000D01*
X98962500Y-73150000D02*
X99687500Y-73150000D01*
X86200000Y-54500000D02*
X89100000Y-57400000D01*
X135850000Y-48162500D02*
X137400000Y-48162500D01*
X90750000Y-50300000D02*
X90750000Y-48700000D01*
X95950000Y-74100000D02*
X95943800Y-74106200D01*
X110900000Y-38900000D02*
X111612500Y-38900000D01*
X89100000Y-57400000D02*
X90550000Y-57400000D01*
X109500000Y-40550000D02*
X109450000Y-40550000D01*
X148275000Y-44737500D02*
X149237500Y-44737500D01*
X109800000Y-44862500D02*
X110600000Y-44062500D01*
X90137500Y-76343701D02*
X89731201Y-76750000D01*
X141750000Y-47750000D02*
X141337500Y-48162500D01*
X103800000Y-59800000D02*
X100450000Y-59800000D01*
X102400000Y-75500000D02*
X102400000Y-77100000D01*
X84800000Y-45000000D02*
X84900000Y-45000000D01*
X96248000Y-68552252D02*
X96248000Y-68148000D01*
X90362500Y-47137500D02*
X89000000Y-47137500D01*
X95943800Y-74106200D02*
X94500001Y-74106200D01*
X98100000Y-51500000D02*
X98100000Y-54650000D01*
X90550000Y-61400000D02*
X87350000Y-61400000D01*
X84900000Y-45000000D02*
X85250000Y-45350000D01*
X109450000Y-40550000D02*
X109405000Y-40595000D01*
X94900000Y-66800000D02*
X94900000Y-64550000D01*
X103600000Y-50822836D02*
X104250000Y-51472836D01*
X87350000Y-61400000D02*
X86875000Y-61875000D01*
X101300000Y-55800000D02*
X100450000Y-55800000D01*
X102440000Y-64240000D02*
X101600000Y-63400000D01*
X100000000Y-74100000D02*
X99975000Y-74125000D01*
X109550000Y-40500000D02*
X110600000Y-40500000D01*
X111662500Y-35650000D02*
X110412500Y-35650000D01*
X91000002Y-74843699D02*
X90437501Y-75406200D01*
X89731201Y-76750000D02*
X87750000Y-76750000D01*
X110600000Y-44062500D02*
X110600000Y-40500000D01*
X99800000Y-74300000D02*
X99762500Y-74300000D01*
X101825000Y-74125000D02*
X99975000Y-74125000D01*
X99762500Y-74300000D02*
X99062500Y-75000000D01*
X110475000Y-38475000D02*
X110850000Y-38100000D01*
X84110119Y-77186180D02*
X84110119Y-75939881D01*
X140500000Y-42950000D02*
X140500000Y-41900000D01*
X90400000Y-47100000D02*
X90362500Y-47137500D01*
X104000000Y-60000000D02*
X103800000Y-59800000D01*
X101300000Y-56200000D02*
X100450000Y-56200000D01*
X146500000Y-60788064D02*
X145488064Y-61800000D01*
X134000000Y-38300000D02*
X135200000Y-38300000D01*
X109800000Y-46000000D02*
X109800000Y-44862500D01*
X88100000Y-73592775D02*
X87913645Y-73406420D01*
X98563235Y-51088235D02*
X98511765Y-51088235D01*
X90137500Y-76043700D02*
X90137500Y-76343701D01*
X123682500Y-37082500D02*
X123682500Y-35635000D01*
X98511765Y-51088235D02*
X98100000Y-51500000D01*
X98563235Y-51036765D02*
X98700000Y-50900000D01*
X141337500Y-48162500D02*
X140500000Y-48162500D01*
X102400000Y-74700000D02*
X101825000Y-74125000D01*
X98700000Y-50900000D02*
X98700000Y-50200000D01*
D86*
%TO.N,/RX_GPS*%
X87200000Y-62825737D02*
X88225737Y-61800000D01*
X87200000Y-63546859D02*
X87200000Y-62825737D01*
X87455339Y-63802198D02*
X87200000Y-63546859D01*
X88225737Y-61800000D02*
X90550000Y-61800000D01*
%TO.N,/TX_GPS*%
X87700000Y-63200000D02*
X88700000Y-62200000D01*
X88700000Y-62200000D02*
X90550000Y-62200000D01*
%TO.N,PPS*%
X104737000Y-64177000D02*
X104270000Y-63710000D01*
X104270000Y-63710000D02*
X103417900Y-63710000D01*
X103417900Y-63710000D02*
X102307900Y-62600000D01*
X102307900Y-62600000D02*
X100450000Y-62600000D01*
%TO.N,Net-(J11-Pin_3)*%
X86575738Y-55724265D02*
X86824265Y-55724265D01*
X86824265Y-55724265D02*
X88900000Y-57800000D01*
X88900000Y-57800000D02*
X90550000Y-57800000D01*
%TO.N,/GPIO20*%
X88700000Y-64700000D02*
X88761765Y-64761765D01*
X90550000Y-63400000D02*
X90000000Y-63400000D01*
X90000000Y-63400000D02*
X88700000Y-64700000D01*
%TO.N,/BATT_SENSE*%
X102500000Y-56600000D02*
X100450000Y-56600000D01*
X141137500Y-40800000D02*
X145137500Y-36800000D01*
X139300000Y-40800000D02*
X141137500Y-40800000D01*
X145137500Y-35250000D02*
X145137500Y-36800000D01*
X131700000Y-48400000D02*
X139300000Y-40800000D01*
D10*
%TO.N,GND*%
X83500000Y-45000000D02*
X83500000Y-46000000D01*
X85212500Y-50812500D02*
X84750000Y-50350000D01*
X95476879Y-71123121D02*
X95476879Y-71604321D01*
X144525000Y-47075000D02*
X144525000Y-49037500D01*
X97700000Y-73662500D02*
X97700000Y-74637500D01*
X146350000Y-45750000D02*
X146766668Y-45333332D01*
X86640119Y-74640119D02*
X86640119Y-74626180D01*
X135900000Y-60112500D02*
X136362500Y-60112500D01*
X98200000Y-74137500D02*
X97337500Y-75000000D01*
X98700000Y-71186704D02*
X98306648Y-70793352D01*
D87*
X137662500Y-66993750D02*
X137250000Y-67406250D01*
D10*
X130700000Y-37100000D02*
X131650000Y-36150000D01*
X146962500Y-36800000D02*
X148200000Y-36800000D01*
X102128634Y-50200000D02*
X103461500Y-51532866D01*
X101300000Y-48687500D02*
X100400000Y-48687500D01*
D87*
X137662500Y-65906250D02*
X137662500Y-66993750D01*
D10*
X98200000Y-73662500D02*
X98200000Y-74137500D01*
X129735000Y-36135000D02*
X129162500Y-36135000D01*
X143662500Y-42075000D02*
X143662500Y-42825000D01*
D87*
X142850000Y-57350000D02*
X142850000Y-58287500D01*
D10*
X141750000Y-46250000D02*
X141562500Y-46437500D01*
X98900000Y-52500000D02*
X98900000Y-54650000D01*
X85629879Y-74222654D02*
X85629819Y-74222714D01*
X100675000Y-75500000D02*
X100675000Y-77100000D01*
X80289000Y-44111000D02*
X80289000Y-45211000D01*
X141562500Y-46437500D02*
X140500000Y-46437500D01*
X111650000Y-77062500D02*
X111162500Y-77550000D01*
X139100000Y-41900000D02*
X138750000Y-42250000D01*
X115050000Y-35650000D02*
X113387500Y-35650000D01*
X84922714Y-74222714D02*
X85629819Y-74222714D01*
X80700000Y-43700000D02*
X80289000Y-44111000D01*
X111650000Y-75225000D02*
X111650000Y-77062500D01*
X85329879Y-75966420D02*
X85329879Y-75936420D01*
D87*
X146480000Y-66650000D02*
X146712500Y-66417500D01*
D10*
X89000000Y-48862500D02*
X89000000Y-49900000D01*
X98700000Y-72137500D02*
X98700000Y-71186704D01*
X91500001Y-74200000D02*
X91500001Y-74540601D01*
X109800000Y-43137500D02*
X109800000Y-42000000D01*
X138950000Y-46437500D02*
X137400000Y-46437500D01*
X100425000Y-50200000D02*
X101500000Y-50200000D01*
X140500000Y-46500000D02*
X138750000Y-46500000D01*
X115050000Y-35650000D02*
X116502500Y-35650000D01*
X143775000Y-42937500D02*
X143775000Y-45324000D01*
X101500000Y-50200000D02*
X102128634Y-50200000D01*
X80000000Y-45500000D02*
X79190000Y-45500000D01*
X97336803Y-76043700D02*
X97355603Y-76062500D01*
X99662500Y-68600000D02*
X100700000Y-68600000D01*
X97355603Y-76062500D02*
X97337500Y-76044397D01*
X99205000Y-44405000D02*
X99200000Y-44400000D01*
X103461500Y-52986500D02*
X104225000Y-53750000D01*
X109637500Y-71150000D02*
X109637500Y-73187500D01*
X100662500Y-44405000D02*
X99205000Y-44405000D01*
X137950000Y-61700000D02*
X138600000Y-61700000D01*
X100300000Y-51100000D02*
X98900000Y-52500000D01*
D87*
X146300000Y-74100000D02*
X146812500Y-73587500D01*
D10*
X103461500Y-51532866D02*
X103461500Y-52986500D01*
X86887500Y-48750000D02*
X87000000Y-48862500D01*
X84750000Y-50350000D02*
X84750000Y-49262500D01*
X85629819Y-74222714D02*
X84829759Y-73422654D01*
X137400000Y-46437500D02*
X135850000Y-46437500D01*
X85262500Y-48750000D02*
X86887500Y-48750000D01*
X125882500Y-34917500D02*
X125882500Y-35635000D01*
D87*
X140150000Y-61700000D02*
X138600000Y-61700000D01*
D10*
X89000000Y-48862500D02*
X87000000Y-48862500D01*
X95476879Y-71604321D02*
X94700000Y-72381200D01*
D87*
X146712500Y-66417500D02*
X146712500Y-65610000D01*
D10*
X130700000Y-37100000D02*
X129735000Y-36135000D01*
X91500000Y-74540602D02*
X91500000Y-75250000D01*
X97700000Y-74637500D02*
X97337500Y-75000000D01*
X86229879Y-74222654D02*
X85629879Y-74222654D01*
X80600000Y-51900000D02*
X79190000Y-51900000D01*
X94700000Y-72381200D02*
X94500001Y-72381200D01*
X100675000Y-77100000D02*
X99400000Y-77100000D01*
X87500000Y-75500000D02*
X86640119Y-74640119D01*
X84476206Y-73776206D02*
X84922714Y-74222714D01*
X115300000Y-46900000D02*
X116282500Y-46900000D01*
D87*
X146712500Y-65610000D02*
X146952500Y-65370000D01*
D10*
X90900000Y-45350000D02*
X92100000Y-45350000D01*
X145925000Y-45750000D02*
X146350000Y-45750000D01*
X141750000Y-46250000D02*
X143125000Y-46250000D01*
X126200000Y-34600000D02*
X125882500Y-34917500D01*
X136362500Y-60112500D02*
X137950000Y-61700000D01*
D87*
X146812500Y-73587500D02*
X146812500Y-72800000D01*
D10*
X138750000Y-42250000D02*
X138750000Y-42950000D01*
X91862500Y-76043700D02*
X92000000Y-75906200D01*
X91862500Y-76043700D02*
X97336803Y-76043700D01*
X85329879Y-75936420D02*
X86640119Y-74626180D01*
X86633405Y-74626180D02*
X86229879Y-74222654D01*
X97337500Y-76044397D02*
X97337500Y-75000000D01*
X88625000Y-41500000D02*
X88625000Y-40425000D01*
X143637500Y-42050000D02*
X143662500Y-42075000D01*
X109637500Y-73187500D02*
X109350000Y-73475000D01*
X131650000Y-36150000D02*
X132150000Y-36150000D01*
X143662500Y-42825000D02*
X143775000Y-42937500D01*
X129242500Y-46900000D02*
X128400000Y-46900000D01*
X86640119Y-74626180D02*
X86633405Y-74626180D01*
X91500001Y-74540601D02*
X91500000Y-74540602D01*
X80289000Y-45211000D02*
X80000000Y-45500000D01*
X92000000Y-75906200D02*
X92000000Y-74200000D01*
X91500000Y-75250000D02*
X91862500Y-75612500D01*
X89600000Y-68200000D02*
X89600000Y-66730000D01*
X91862500Y-75612500D02*
X91862500Y-76043700D01*
%TO.N,/microSD/_DAT2*%
X113412500Y-38100000D02*
X119400000Y-38100000D01*
X112400000Y-38350000D02*
X112650000Y-38100000D01*
X112400000Y-40750000D02*
X112400000Y-38350000D01*
X120382500Y-37117500D02*
X120382500Y-35635000D01*
X111500000Y-41650000D02*
X112400000Y-40750000D01*
X112650000Y-38100000D02*
X113300000Y-38100000D01*
X119400000Y-38100000D02*
X120382500Y-37117500D01*
X111500000Y-42250000D02*
X111500000Y-41650000D01*
%TO.N,/microSD/_DAT3*%
X121482500Y-37517500D02*
X121482500Y-35635000D01*
X120100000Y-38900000D02*
X121482500Y-37517500D01*
X114600000Y-42000000D02*
X114600000Y-41100000D01*
X114350000Y-42250000D02*
X114600000Y-42000000D01*
X113900000Y-42250000D02*
X114350000Y-42250000D01*
X114600000Y-39800000D02*
X114600000Y-38900000D01*
X114600000Y-38900000D02*
X113300000Y-38900000D01*
X113412500Y-38900000D02*
X120100000Y-38900000D01*
D91*
%TO.N,Net-(Q4-Pad1)*%
X135750000Y-54750000D02*
X137250000Y-54750000D01*
X131797500Y-52365000D02*
X134025000Y-52365000D01*
X134025000Y-53635000D02*
X134635000Y-53635000D01*
X137250000Y-54750000D02*
X138365000Y-53635000D01*
X131750000Y-52412500D02*
X131797500Y-52365000D01*
X138365000Y-53635000D02*
X138975000Y-53635000D01*
X130112500Y-54050000D02*
X131500000Y-52662500D01*
X129010000Y-54050000D02*
X130112500Y-54050000D01*
X134635000Y-53635000D02*
X135750000Y-54750000D01*
X131500000Y-52662500D02*
X131500000Y-52412500D01*
X138975000Y-53635000D02*
X138975000Y-52365000D01*
X131500000Y-52412500D02*
X131750000Y-52412500D01*
X134025000Y-52365000D02*
X134025000Y-53635000D01*
D86*
%TO.N,Net-(U9-PRG)*%
X132000000Y-58909787D02*
X132675000Y-58234787D01*
X132000000Y-59200000D02*
X132000000Y-58909787D01*
%TD*%
%TA.AperFunction,Conductor*%
%TO.N,/LX*%
G36*
X100749471Y-45739881D02*
G01*
X100789846Y-45747912D01*
X100834543Y-45766427D01*
X100858413Y-45782377D01*
X100864305Y-45788269D01*
X100869037Y-45790329D01*
X100892622Y-45816586D01*
X100908572Y-45840456D01*
X100927088Y-45885155D01*
X100935117Y-45925522D01*
X100937500Y-45949710D01*
X100937500Y-47437789D01*
X100935117Y-47461982D01*
X100927088Y-47502344D01*
X100923897Y-47510046D01*
X100923805Y-47515206D01*
X100908572Y-47547043D01*
X100892622Y-47570913D01*
X100858413Y-47605122D01*
X100834543Y-47621072D01*
X100789844Y-47639588D01*
X100773341Y-47642870D01*
X100749478Y-47647617D01*
X100725289Y-47650000D01*
X100400000Y-47650000D01*
X100207502Y-47851888D01*
X100116117Y-47947731D01*
X100087473Y-47977772D01*
X100026964Y-48012707D01*
X100024193Y-48013345D01*
X100017654Y-48014773D01*
X99893023Y-48058384D01*
X99810420Y-48119347D01*
X99791378Y-48126301D01*
X99774592Y-48137673D01*
X99759225Y-48138045D01*
X99744791Y-48143317D01*
X99725012Y-48138873D01*
X99704743Y-48139364D01*
X99691616Y-48131370D01*
X99676621Y-48128001D01*
X99662382Y-48113567D01*
X99645068Y-48103023D01*
X99638347Y-48089202D01*
X99627553Y-48078260D01*
X99623378Y-48058419D01*
X99614513Y-48040188D01*
X99616331Y-48024926D01*
X99613167Y-48009887D01*
X99620381Y-47990941D01*
X99622780Y-47970809D01*
X99636834Y-47947731D01*
X99638030Y-47944591D01*
X99641087Y-47940727D01*
X99704615Y-47863725D01*
X99704615Y-47863723D01*
X99850000Y-47687500D01*
X99849984Y-47687516D01*
X99849999Y-47687499D01*
X99759800Y-47608152D01*
X99761283Y-47606465D01*
X99743470Y-47594002D01*
X99716964Y-47529356D01*
X99716300Y-47516543D01*
X99716300Y-45861500D01*
X99735985Y-45794461D01*
X99788789Y-45748706D01*
X99840300Y-45737500D01*
X100725289Y-45737500D01*
X100749471Y-45739881D01*
G37*
%TD.AperFunction*%
%TD*%
%TA.AperFunction,Conductor*%
%TO.N,GND*%
G36*
X101932654Y-48307185D02*
G01*
X101953296Y-48323819D01*
X102213681Y-48584204D01*
X102247166Y-48645527D01*
X102250000Y-48671885D01*
X102250000Y-50665272D01*
X102245816Y-50697210D01*
X102231977Y-50749127D01*
X102200186Y-50804525D01*
X102174185Y-50830731D01*
X102119035Y-50862958D01*
X102067228Y-50877203D01*
X102035325Y-50881636D01*
X101288453Y-50887491D01*
X101288454Y-50887492D01*
X101288213Y-50887494D01*
X101287500Y-50887498D01*
X101286716Y-50887500D01*
X100249711Y-50887500D01*
X100225520Y-50885117D01*
X100207381Y-50881509D01*
X100185156Y-50877088D01*
X100140456Y-50858572D01*
X100116586Y-50842622D01*
X100082377Y-50808413D01*
X100066427Y-50784543D01*
X100047912Y-50739846D01*
X100039881Y-50699471D01*
X100037500Y-50675289D01*
X100037500Y-48499710D01*
X100039881Y-48475529D01*
X100047912Y-48435151D01*
X100066427Y-48390456D01*
X100082377Y-48366586D01*
X100116586Y-48332377D01*
X100140456Y-48316427D01*
X100185153Y-48297912D01*
X100225527Y-48289881D01*
X100249711Y-48287500D01*
X101865615Y-48287500D01*
X101932654Y-48307185D01*
G37*
%TD.AperFunction*%
%TD*%
%TA.AperFunction,Conductor*%
%TO.N,+1V1*%
G36*
X99099472Y-45739881D02*
G01*
X99133892Y-45746728D01*
X99195800Y-45779110D01*
X99230376Y-45839825D01*
X99233700Y-45868344D01*
X99233700Y-47538400D01*
X99251181Y-47555881D01*
X99284666Y-47617204D01*
X99287500Y-47643562D01*
X99287500Y-48052303D01*
X99272540Y-48108139D01*
X99273090Y-48108367D01*
X99271361Y-48112540D01*
X99270891Y-48114296D01*
X99269982Y-48115870D01*
X99269979Y-48115875D01*
X99249500Y-48192305D01*
X99249500Y-49126000D01*
X99229815Y-49193039D01*
X99177011Y-49238794D01*
X99125500Y-49250000D01*
X98049711Y-49250000D01*
X98025520Y-49247617D01*
X98000604Y-49242661D01*
X97985156Y-49239588D01*
X97940456Y-49221072D01*
X97916586Y-49205122D01*
X97882377Y-49170913D01*
X97866427Y-49147043D01*
X97847912Y-49102346D01*
X97839881Y-49061971D01*
X97837500Y-49037789D01*
X97837500Y-45949710D01*
X97839881Y-45925529D01*
X97847912Y-45885151D01*
X97866427Y-45840456D01*
X97882377Y-45816586D01*
X97916586Y-45782377D01*
X97940456Y-45766427D01*
X97985153Y-45747912D01*
X98025527Y-45739881D01*
X98049711Y-45737500D01*
X99075289Y-45737500D01*
X99099472Y-45739881D01*
G37*
%TD.AperFunction*%
%TD*%
%TA.AperFunction,Conductor*%
%TO.N,+3V3*%
G36*
X111353342Y-46001110D02*
G01*
X111381481Y-46004903D01*
X111413418Y-46013670D01*
X111439547Y-46024774D01*
X111454356Y-46032274D01*
X112688237Y-46764894D01*
X112713411Y-46784642D01*
X112750819Y-46822742D01*
X112782210Y-46877887D01*
X112795872Y-46929507D01*
X112800000Y-46961231D01*
X112800000Y-47404946D01*
X112797617Y-47429137D01*
X112789588Y-47469501D01*
X112771073Y-47514201D01*
X112748205Y-47548425D01*
X112732784Y-47567215D01*
X111850000Y-48449999D01*
X111850000Y-49987789D01*
X111847617Y-50011982D01*
X111839588Y-50052344D01*
X111821072Y-50097043D01*
X111805122Y-50120913D01*
X111770913Y-50155122D01*
X111747043Y-50171072D01*
X111702344Y-50189588D01*
X111685841Y-50192870D01*
X111661978Y-50197617D01*
X111637789Y-50200000D01*
X110895054Y-50200000D01*
X110870863Y-50197617D01*
X110830498Y-50189588D01*
X110785798Y-50171073D01*
X110751574Y-50148205D01*
X110732784Y-50132784D01*
X107617215Y-47017215D01*
X107601794Y-46998425D01*
X107578926Y-46964201D01*
X107575735Y-46956497D01*
X107572151Y-46952783D01*
X107560413Y-46919507D01*
X107552381Y-46879129D01*
X107550000Y-46854946D01*
X107550000Y-46212210D01*
X107552381Y-46188029D01*
X107560412Y-46147651D01*
X107578927Y-46102956D01*
X107594877Y-46079086D01*
X107600769Y-46073193D01*
X107602829Y-46068462D01*
X107629086Y-46044877D01*
X107652956Y-46028927D01*
X107697653Y-46010412D01*
X107738027Y-46002381D01*
X107762211Y-46000000D01*
X111336782Y-46000000D01*
X111353342Y-46001110D01*
G37*
%TD.AperFunction*%
%TD*%
%TA.AperFunction,Conductor*%
%TO.N,+BATT*%
G36*
X154923194Y-39355939D02*
G01*
X154926207Y-39358117D01*
X155057434Y-39489344D01*
X155060861Y-39497617D01*
X155060270Y-39501287D01*
X154627156Y-40812244D01*
X154621307Y-40819025D01*
X154613775Y-40820051D01*
X153771429Y-40653327D01*
X153763979Y-40648359D01*
X153762224Y-40644122D01*
X153744043Y-40552265D01*
X153595500Y-39801774D01*
X153597255Y-39792995D01*
X153603304Y-39788396D01*
X154914265Y-39355281D01*
X154923194Y-39355939D01*
G37*
%TD.AperFunction*%
%TD*%
M02*
